<svg width="24" height="25" viewBox="0 0 24 25" fill="none" xmlns="http://www.w3.org/2000/svg">
<path d="M23.9227 7.09551C23.9093 6.08613 23.7203 5.08677 23.3643 4.14216C23.0556 3.34538 22.584 2.62177 21.9798 2.01754C21.3756 1.41332 20.652 0.941782 19.8552 0.633052C18.9227 0.283017 17.9376 0.0937467 16.9418 0.0733008C15.6597 0.015993 15.2532 0 11.9987 0C8.74411 0 8.32697 8.93672e-08 7.0542 0.0733008C6.05885 0.093897 5.07421 0.283165 4.14216 0.633052C3.34526 0.941567 2.62153 1.41303 2.01728 2.01728C1.41303 2.62153 0.941567 3.34526 0.633052 4.14216C0.282316 5.07392 0.093456 6.05879 0.0746335 7.0542C0.0173256 8.33763 0 8.74411 0 11.9987C0 15.2532 -9.92969e-09 15.669 0.0746335 16.9431C0.0946246 17.94 0.282541 18.9236 0.633052 19.8578C0.942085 20.6545 1.4139 21.3779 2.01835 21.9819C2.6228 22.5859 3.3466 23.0572 4.14349 23.3656C5.07299 23.7297 6.0578 23.9325 7.05553 23.9653C8.33896 24.0227 8.74545 24.04 12 24.04C15.2546 24.04 15.6717 24.04 16.9445 23.9653C17.9402 23.9457 18.9254 23.7569 19.8578 23.4069C20.6544 23.0978 21.3778 22.6262 21.982 22.022C22.5862 21.4178 23.0579 20.6944 23.3669 19.8978C23.7175 18.9649 23.9054 17.9813 23.9254 16.9831C23.9827 15.701 24 15.2945 24 12.0386C23.9973 8.7841 23.9973 8.37095 23.9227 7.09551ZM11.9907 18.1533C8.58685 18.1533 5.82941 15.3958 5.82941 11.992C5.82941 8.58818 8.58685 5.83074 11.9907 5.83074C13.6247 5.83074 15.1919 6.47987 16.3473 7.63533C17.5028 8.7908 18.1519 10.3579 18.1519 11.992C18.1519 13.6261 17.5028 15.1932 16.3473 16.3487C15.1919 17.5041 13.6247 18.1533 11.9907 18.1533ZM18.3972 7.03954C18.2084 7.03971 18.0215 7.00267 17.8472 6.93053C17.6728 6.8584 17.5143 6.75258 17.3809 6.61913C17.2474 6.48569 17.1416 6.32724 17.0695 6.15285C16.9973 5.97846 16.9603 5.79156 16.9605 5.60284C16.9605 5.41426 16.9976 5.22753 17.0698 5.0533C17.1419 4.87907 17.2477 4.72077 17.3811 4.58742C17.5144 4.45407 17.6727 4.34829 17.8469 4.27613C18.0212 4.20396 18.2079 4.16681 18.3965 4.16681C18.5851 4.16681 18.7718 4.20396 18.946 4.27613C19.1203 4.34829 19.2786 4.45407 19.4119 4.58742C19.5453 4.72077 19.651 4.87907 19.7232 5.0533C19.7954 5.22753 19.8325 5.41426 19.8325 5.60284C19.8325 6.39716 19.1901 7.03954 18.3972 7.03954Z" fill="black"/>
<path d="M11.9905 15.9927C14.2009 15.9927 15.9927 14.2009 15.9927 11.9905C15.9927 9.78014 14.2009 7.98828 11.9905 7.98828C9.78014 7.98828 7.98828 9.78014 7.98828 11.9905C7.98828 14.2009 9.78014 15.9927 11.9905 15.9927Z" fill="black"/>
</svg>
