<svg width="14" height="17" viewBox="0 0 14 17" fill="none" xmlns="http://www.w3.org/2000/svg">
<path fill-rule="evenodd" clip-rule="evenodd" d="M1.94652 2.51126L2.64752 1.81468C5.08244 -0.604894 8.91756 -0.604895 11.3525 1.81468L12.0535 2.51126C14.6488 5.09027 14.6488 9.39936 12.0535 11.9784L7 17L1.94652 11.9784C-0.648841 9.39936 -0.648842 5.09027 1.94652 2.51126ZM6.99986 6.01737C6.34758 6.01737 5.8188 6.56707 5.8188 7.24516V7.25444C5.8188 7.93253 6.34758 8.48223 6.99986 8.48223H7.00879C7.66107 8.48223 8.18985 7.93253 8.18985 7.25444V7.24516C8.18985 6.56707 7.66107 6.01737 7.00879 6.01737H6.99986Z" fill="#2A2A2F"/>
</svg>
