<svg width="12" height="12" viewBox="0 0 12 12" fill="none" xmlns="http://www.w3.org/2000/svg">
<path d="M11.3623 11.0602C10.8431 11.6602 10.101 12 9.31526 12C9.29063 12 9.266 12 9.24136 11.9994C4.19612 11.8623 0.136796 7.80299 0.0010012 2.75843C-0.0211049 1.93925 0.323756 1.16301 0.946517 0.627414C1.53833 0.117715 2.30889 -0.0950745 3.06176 0.0394555C3.17734 0.0602982 3.2765 0.0867598 3.36114 0.11455C3.69462 0.225079 3.93716 0.513836 3.99274 0.866267L4.41594 3.55363C4.469 3.89028 4.33761 4.23142 4.07423 4.4449C4.02118 4.48785 3.96622 4.52882 3.90874 4.56672C3.76221 4.66651 3.70662 4.83642 3.77231 4.98737C4.40518 6.4432 5.55472 7.59268 7.00993 8.22553C7.16152 8.29185 7.33139 8.23506 7.43371 8.08537C7.4634 8.04242 7.49435 8.00012 7.52593 7.9597C7.73814 7.68937 8.08618 7.55919 8.42977 7.61414L11.1659 8.06964C11.5271 8.13027 11.8209 8.38604 11.915 8.72205C11.932 8.78332 11.9484 8.85281 11.9623 8.93176C12.0943 9.69031 11.8758 10.4652 11.3623 11.0602Z" fill="#2A2A2F"/>
</svg>
