<svg width="26" height="30" viewBox="0 0 26 30" fill="none" xmlns="http://www.w3.org/2000/svg">
<path d="M5.00026 8.36804C5.00026 4.3053 8.58929 1 13.0008 1C17.4123 1 21.0013 4.3053 21.0013 8.36804C21.0013 12.4308 17.4123 15.7361 13.0008 15.7361C8.58929 15.7361 5.00026 12.4308 5.00026 8.36804ZM19.5884 17.3144C18.694 17.1051 17.7211 17.223 16.9163 17.6357C14.4873 18.8794 11.5142 18.8794 9.08529 17.6357C8.28204 17.2245 7.3076 17.1081 6.41315 17.3144C3.22574 18.0556 1 20.7199 1 23.7924V25.2822C1 26.2223 1.27199 27.1417 1.78882 27.9434C2.20965 28.5947 2.99855 29 3.84501 29H22.155C23.0014 29 23.7903 28.5962 24.2111 27.9419C24.7279 27.1418 25 26.2223 25 25.2822V23.7924C25.0016 20.7199 22.7758 18.0556 19.5884 17.3144Z" fill="#2A2A2F"/>
</svg>
