<svg width="59" height="38" viewBox="0 0 59 38" fill="none" xmlns="http://www.w3.org/2000/svg">
<path d="M10.6107 12.5058C9.9301 13.2813 8.84114 13.8929 7.75218 13.8055C7.61606 12.757 8.1492 11.643 8.77308 10.9549C9.45368 10.1575 10.6447 9.58959 11.6089 9.5459C11.7223 10.6381 11.28 11.7085 10.6107 12.5058ZM11.5976 14.0131C10.0208 13.9257 8.67099 14.8759 7.92233 14.8759C7.16233 14.8759 6.01665 14.0567 4.76889 14.0786C3.14679 14.1004 1.63813 14.9851 0.810066 16.3941C-0.891433 19.212 0.367677 23.3843 2.01246 25.6779C2.81784 26.8138 3.78202 28.059 5.05247 28.0153C6.25486 27.9716 6.73128 27.2616 8.18323 27.2616C9.64652 27.2616 10.0662 28.0153 11.3367 27.9934C12.6525 27.9716 13.4806 26.8575 14.2859 25.7216C15.2047 24.4328 15.5791 23.1768 15.6018 23.1112C15.5791 23.0894 13.0609 22.161 13.0382 19.3649C13.0155 17.0276 15.0233 15.9135 15.114 15.848C13.9797 14.2315 12.2101 14.0567 11.5976 14.0131ZM20.7063 10.8456V27.8733H23.4513V22.0518H27.2514C30.7224 22.0518 33.1612 19.7581 33.1612 16.4378C33.1612 13.1174 30.7678 10.8456 27.3421 10.8456H20.7063ZM23.4513 13.0738H26.6161C28.9982 13.0738 30.3594 14.297 30.3594 16.4487C30.3594 18.6004 28.9982 19.8346 26.6048 19.8346H23.4513V13.0738ZM38.175 28.0043C39.8992 28.0043 41.4986 27.1633 42.2246 25.8308H42.2813V27.8733H44.8222V19.3977C44.8222 16.9402 42.7804 15.3565 39.6383 15.3565C36.723 15.3565 34.5678 16.962 34.4884 19.1683H36.9613C37.1654 18.1198 38.175 17.4317 39.5589 17.4317C41.2377 17.4317 42.1792 18.1853 42.1792 19.5724V20.5117L38.7535 20.7083C35.566 20.894 33.8418 22.1501 33.8418 24.3345C33.8418 26.5408 35.6227 28.0043 38.175 28.0043ZM38.9123 25.9837C37.449 25.9837 36.5189 25.3066 36.5189 24.269C36.5189 23.1986 37.415 22.576 39.1278 22.4777L42.1792 22.2921V23.2532C42.1792 24.8478 40.7726 25.9837 38.9123 25.9837ZM48.2138 32.5043C50.8909 32.5043 52.15 31.5213 53.2503 28.5395L58.0712 15.5203H55.2807L52.0479 25.5796H51.9912L48.7583 15.5203H45.8885L50.5392 27.917L50.2897 28.6706C49.87 29.9485 49.1894 30.44 47.9756 30.44C47.7601 30.44 47.3404 30.4181 47.1702 30.3963V32.4387C47.3291 32.4824 48.0097 32.5043 48.2138 32.5043Z" fill="#2A2A2F"/>
</svg>
