<svg width="59" height="40" viewBox="0 0 59 40" fill="none" xmlns="http://www.w3.org/2000/svg">
<path d="M27.8546 21.8021V28.6402H25.6853V11.7531H31.4387C32.1255 11.7387 32.8083 11.8605 33.4477 12.1115C34.0872 12.3624 34.6706 12.7375 35.1643 13.215C35.663 13.6636 36.0599 14.2137 36.3284 14.8285C36.5968 15.4432 36.7305 16.1082 36.7206 16.7789C36.7349 17.4532 36.6032 18.1226 36.3346 18.7412C36.0659 19.3599 35.6667 19.9131 35.1643 20.363C34.1583 21.3224 32.9164 21.8016 31.4387 21.8007H27.8546V21.8021ZM27.8546 13.8321V19.7271H31.4926C31.8915 19.7389 32.2884 19.6673 32.658 19.517C33.0276 19.3666 33.3617 19.1408 33.6391 18.8539C33.9149 18.5857 34.1342 18.2649 34.284 17.9105C34.4337 17.556 34.5109 17.1751 34.5109 16.7904C34.5109 16.4056 34.4337 16.0247 34.284 15.6703C34.1342 15.3159 33.9149 14.995 33.6391 14.7268C33.3652 14.4339 33.0322 14.2025 32.6622 14.0481C32.2921 13.8936 31.8935 13.8195 31.4926 13.8308H27.8546V13.8321Z" fill="#2A2A2F"/>
<path d="M41.7197 16.707C43.3231 16.707 44.5888 17.1355 45.5167 17.9925C46.4446 18.8494 46.9082 20.0244 46.9073 21.5173V28.6383H44.8322V27.0349H44.7379C43.8397 28.3554 42.645 29.0156 41.1538 29.0156C39.881 29.0156 38.8161 28.6383 37.9591 27.8838C37.5479 27.5375 37.2191 27.1038 36.9967 26.6142C36.7743 26.1247 36.664 25.5918 36.6737 25.0542C36.6737 23.8586 37.1255 22.9078 38.0292 22.2018C38.9328 21.4957 40.1392 21.1418 41.6483 21.14C42.9364 21.14 43.9973 21.3758 44.8309 21.8474V21.3515C44.8334 20.9851 44.7542 20.6226 44.5992 20.2906C44.4443 19.9585 44.2173 19.665 43.9349 19.4315C43.3612 18.9139 42.6136 18.6315 41.841 18.6406C40.6292 18.6406 39.6703 19.1517 38.9643 20.1739L37.0537 18.9707C38.1046 17.4616 39.66 16.707 41.7197 16.707ZM38.9131 25.1014C38.9116 25.3775 38.9762 25.6499 39.1013 25.896C39.2265 26.1421 39.4086 26.3547 39.6326 26.5162C40.1124 26.8936 40.7079 27.0935 41.3182 27.0821C42.2336 27.0805 43.1111 26.7162 43.7584 26.0688C44.477 25.3924 44.8363 24.5988 44.8363 23.688C44.1599 23.149 43.2167 22.8795 42.0067 22.8795C41.1255 22.8795 40.3907 23.092 39.8024 23.5168C39.2082 23.948 38.9131 24.4721 38.9131 25.1014Z" fill="#2A2A2F"/>
<path d="M58.8178 17.084L51.5742 33.7312H49.3348L52.0229 27.9064L47.2598 17.084H49.6177L53.0604 25.384H53.1075L56.4558 17.084H58.8178Z" fill="#2A2A2F"/>
<path d="M19.088 20.3271C19.0888 19.666 19.0329 19.006 18.9209 18.3545H9.77197V22.0909H15.012C14.9048 22.6876 14.6779 23.2565 14.3449 23.7631C14.0119 24.2698 13.5797 24.7038 13.0745 25.039V27.4643H16.2018C18.0329 25.776 19.088 23.2793 19.088 20.3271Z" fill="#2A2A2F"/>
<path d="M9.77237 29.8065C12.3904 29.8065 14.5948 28.9469 16.2022 27.4647L13.0749 25.0394C12.2044 25.6296 11.0834 25.9664 9.77237 25.9664C7.24194 25.9664 5.09417 24.2606 4.32615 21.9619H1.10449V24.4614C1.91195 26.0681 3.1501 27.4188 4.68071 28.3627C6.21131 29.3066 7.97414 29.8064 9.77237 29.8065Z" fill="#2A2A2F"/>
<path d="M4.32596 21.9629C3.91994 20.7584 3.91994 19.454 4.32596 18.2494V15.75H1.10431C0.425048 17.1017 0.0712891 18.5934 0.0712891 20.1062C0.0712891 21.6189 0.425048 23.1107 1.10431 24.4623L4.32596 21.9629Z" fill="#2A2A2F"/>
<path d="M9.77237 14.245C11.1559 14.2224 12.4927 14.7452 13.4939 15.7002L16.2628 12.9313C14.5071 11.2822 12.181 10.3768 9.77237 10.4049C7.97414 10.405 6.21131 10.9049 4.6807 11.8488C3.1501 12.7926 1.91195 14.1433 1.10449 15.7501L4.32615 18.2495C5.09417 15.9509 7.24194 14.245 9.77237 14.245Z" fill="#2A2A2F"/>
</svg>
