<svg width="46" height="38" viewBox="0 0 46 38" fill="none" xmlns="http://www.w3.org/2000/svg">
<path d="M0.831266 7.41156H4.60441V14.9864C5.44032 14.7675 6.18386 14.4971 6.95358 14.384C11.0038 13.7859 14.66 16.5308 15.1156 20.4747C15.5467 24.2026 12.4678 27.6866 8.52995 27.9262C4.39812 28.1774 0.883607 25.1842 0.842042 21.2873C0.79432 16.691 0.831266 12.0917 0.831266 7.41156ZM7.97576 24.376C9.87387 24.3863 11.4087 22.9345 11.4195 21.1198C11.4302 19.3212 9.88619 17.8356 8.00347 17.8298C6.13614 17.8239 4.56746 19.3139 4.55669 21.1007C4.54591 22.9066 6.06994 24.3657 7.9773 24.376H7.97576Z" fill="black"/>
<path d="M35.8317 27.7777H32.0109V7.43948H35.7702V20.6437C36.1596 20.1794 36.4075 19.8855 36.6538 19.5901C37.9638 18.0208 39.6572 15.9665 40.9965 14.4207H45.3777C43.5474 16.5617 41.8232 18.5777 40.0836 20.6114C42.0018 22.9742 43.3626 25.2753 45.3839 27.763C44.4664 27.763 40.8426 27.763 40.8426 27.763C40.8426 27.763 40.0037 26.6206 39.5833 25.9086C38.3231 23.7746 37.1695 22.5701 35.8317 20.7583V27.7777Z" fill="black"/>
<path d="M17.8066 7.42185H21.5043V27.7689H17.8066V7.42185Z" fill="black"/>
<path d="M24.8941 27.763V14.4765H28.6257V27.763H24.8941Z" fill="black"/>
<path d="M11.735 12.7985C13.6055 12.7985 15.1218 11.3511 15.1218 9.56573C15.1218 7.78035 13.6055 6.33301 11.735 6.33301C9.8646 6.33301 8.3483 7.78035 8.3483 9.56573C8.3483 11.3511 9.8646 12.7985 11.735 12.7985Z" fill="url(#paint0_linear_267_2038)"/>
<defs>
<linearGradient id="paint0_linear_267_2038" x1="13.4284" y1="6.76502" x2="10.2726" y2="12.4937" gradientUnits="userSpaceOnUse">
<stop stop-color="#E94C86"/>
<stop offset="1" stop-color="#E53216"/>
</linearGradient>
</defs>
</svg>
