<svg width="52" height="38" viewBox="0 0 52 38" fill="none" xmlns="http://www.w3.org/2000/svg">
<path d="M22.3292 27.4493H18.2268L20.7928 12.7422H24.895L22.3292 27.4493Z" fill="black"/>
<path d="M37.201 13.1008C36.3918 12.8032 35.1084 12.4746 33.5214 12.4746C29.4701 12.4746 26.6172 14.4772 26.5997 17.3403C26.5661 19.4526 28.6423 20.6259 30.1952 21.3302C31.7824 22.0499 32.3219 22.5197 32.3219 23.1612C32.3057 24.1465 31.0394 24.6007 29.8582 24.6007C28.2203 24.6007 27.3427 24.3665 26.0091 23.8184L25.4689 23.5834L24.8948 26.8848C25.857 27.2911 27.6297 27.6517 29.4701 27.6675C33.7747 27.6675 36.5771 25.6959 36.6103 22.6449C36.6267 20.9707 35.5303 19.6878 33.1667 18.6395C31.7319 17.9666 30.8532 17.5129 30.8532 16.8243C30.87 16.1984 31.5964 15.5573 33.2161 15.5573C34.5498 15.5259 35.5297 15.823 36.272 16.1204L36.6431 16.2766L37.201 13.1008Z" fill="black"/>
<path d="M42.6538 22.2391C42.9916 21.3942 44.2917 18.1242 44.2917 18.1242C44.2746 18.1556 44.6289 17.2637 44.8314 16.7161L45.1181 17.9834C45.1181 17.9834 45.895 21.5038 46.0637 22.2391C45.4226 22.2391 43.4641 22.2391 42.6538 22.2391ZM47.7177 12.7422H44.5445C43.5659 12.7422 42.8225 13.0079 42.4003 13.9624L36.3066 27.4491H40.6112C40.6112 27.4491 41.3199 25.6339 41.4722 25.243C41.9444 25.243 46.1319 25.243 46.7394 25.243C46.8572 25.7593 47.2289 27.4491 47.2289 27.4491H51.0274L47.7177 12.7422Z" fill="black"/>
<path d="M14.8004 12.7422L10.7828 22.7711L10.3438 20.7371C9.601 18.3901 7.27149 15.8402 4.67188 14.5724L8.35189 27.4337H12.6901L19.1384 12.7422H14.8004Z" fill="black"/>
<path d="M7.05199 12.7422H0.451558L0.384033 13.0393C5.53278 14.2598 8.9427 17.2017 10.3437 20.7377L8.90882 13.9785C8.6726 13.0391 7.94664 12.7732 7.05199 12.7422Z" fill="#FAA61A"/>
</svg>
