<svg width="42" height="38" viewBox="0 0 42 38" fill="none" xmlns="http://www.w3.org/2000/svg">
<path d="M26.6212 31.7553H15.2979V11.4053H26.6212V31.7553Z" fill="#FF5F00"/>
<path d="M16.023 21.5783C16.023 17.4502 17.9558 13.773 20.9657 11.4033C18.7647 9.67042 15.9868 8.63614 12.9679 8.63614C5.82084 8.63614 0.0273438 14.4305 0.0273438 21.5783C0.0273438 28.7262 5.82084 34.5205 12.9679 34.5205C15.9868 34.5205 18.7647 33.4862 20.9657 31.7534C17.9558 29.3836 16.023 25.7064 16.023 21.5783Z" fill="#EB001B"/>
<path d="M41.8928 21.5783C41.8928 28.7262 36.0993 34.5205 28.9523 34.5205C25.9333 34.5205 23.1555 33.4862 20.9536 31.7534C23.9643 29.3836 25.8971 25.7064 25.8971 21.5783C25.8971 17.4502 23.9643 13.773 20.9536 11.4033C23.1555 9.67042 25.9333 8.63614 28.9523 8.63614C36.0993 8.63614 41.8928 14.4305 41.8928 21.5783Z" fill="#F79E1B"/>
<path d="M9.76466 21.6606C9.76466 21.0953 10.1351 20.6309 10.7405 20.6309C11.3189 20.6309 11.7094 21.0753 11.7094 21.6606C11.7094 22.2459 11.3189 22.6903 10.7405 22.6903C10.1351 22.6903 9.76466 22.2259 9.76466 21.6606ZM12.3686 21.6606V20.0525H11.6693V20.443C11.4475 20.1534 11.1109 19.9716 10.6534 19.9716C9.75156 19.9716 9.04454 20.6786 9.04454 21.6606C9.04454 22.6434 9.75156 23.3496 10.6534 23.3496C11.1109 23.3496 11.4475 23.1678 11.6693 22.8783V23.2687H12.3686V21.6606ZM36.0008 21.6606C36.0008 21.0953 36.3712 20.6309 36.9766 20.6309C37.5558 20.6309 37.9455 21.0753 37.9455 21.6606C37.9455 22.2459 37.5558 22.6903 36.9766 22.6903C36.3712 22.6903 36.0008 22.2259 36.0008 21.6606ZM38.6055 21.6606V18.7609H37.9054V20.443C37.6836 20.1534 37.3471 19.9716 36.8896 19.9716C35.9877 19.9716 35.2807 20.6786 35.2807 21.6606C35.2807 22.6434 35.9877 23.3496 36.8896 23.3496C37.3471 23.3496 37.6836 23.1678 37.9054 22.8783V23.2687H38.6055V21.6606ZM21.0493 20.5978C21.4999 20.5978 21.7895 20.8804 21.8634 21.378H20.1944C20.2691 20.9135 20.551 20.5978 21.0493 20.5978ZM21.0632 19.9716C20.1205 19.9716 19.4612 20.6578 19.4612 21.6606C19.4612 22.6834 20.1474 23.3496 21.1102 23.3496C21.5946 23.3496 22.0382 23.2287 22.4287 22.8991L22.086 22.3807C21.8164 22.5956 21.4729 22.7173 21.1502 22.7173C20.6997 22.7173 20.2891 22.5086 20.1883 21.9294H22.5766C22.5835 21.8424 22.5904 21.7546 22.5904 21.6606C22.5835 20.6578 21.9643 19.9716 21.0632 19.9716ZM29.5074 21.6606C29.5074 21.0953 29.8779 20.6309 30.4832 20.6309C31.0616 20.6309 31.4521 21.0753 31.4521 21.6606C31.4521 22.2459 31.0616 22.6903 30.4832 22.6903C29.8779 22.6903 29.5074 22.2259 29.5074 21.6606ZM32.1114 21.6606V20.0525H31.4121V20.443C31.1895 20.1534 30.8537 19.9716 30.3962 19.9716C29.4943 19.9716 28.7873 20.6786 28.7873 21.6606C28.7873 22.6434 29.4943 23.3496 30.3962 23.3496C30.8537 23.3496 31.1895 23.1678 31.4121 22.8783V23.2687H32.1114V21.6606ZM25.5579 21.6606C25.5579 22.6364 26.2372 23.3496 27.2739 23.3496C27.7583 23.3496 28.081 23.2418 28.4307 22.9661L28.0949 22.4007C27.8323 22.5894 27.5566 22.6903 27.2531 22.6903C26.6947 22.6834 26.2842 22.2798 26.2842 21.6606C26.2842 21.0414 26.6947 20.6378 27.2531 20.6309C27.5566 20.6309 27.8323 20.7318 28.0949 20.9205L28.4307 20.3552C28.081 20.0794 27.7583 19.9716 27.2739 19.9716C26.2372 19.9716 25.5579 20.6848 25.5579 21.6606ZM34.5744 19.9716C34.1708 19.9716 33.9082 20.1603 33.7265 20.443V20.0525H33.0333V23.2687H33.7334V21.4658C33.7334 20.9336 33.9621 20.6378 34.4196 20.6378C34.5613 20.6378 34.7092 20.6578 34.8571 20.7187L35.0727 20.0594C34.9179 19.9986 34.7161 19.9716 34.5744 19.9716ZM15.8275 20.3082C15.4909 20.0864 15.0273 19.9716 14.5159 19.9716C13.701 19.9716 13.1766 20.3621 13.1766 21.0013C13.1766 21.5258 13.567 21.8493 14.2864 21.9502L14.6168 21.9972C15.0003 22.0511 15.1813 22.152 15.1813 22.3337C15.1813 22.5825 14.9256 22.7242 14.4481 22.7242C13.9637 22.7242 13.614 22.5694 13.3783 22.3877L13.0487 22.9322C13.4322 23.2148 13.9167 23.3496 14.4412 23.3496C15.37 23.3496 15.9084 22.9121 15.9084 22.2999C15.9084 21.7345 15.4848 21.4388 14.7847 21.3379L14.455 21.2902C14.1524 21.2501 13.9098 21.19 13.9098 20.9744C13.9098 20.7387 14.1385 20.5978 14.5221 20.5978C14.9326 20.5978 15.33 20.7526 15.5248 20.8735L15.8275 20.3082ZM24.8509 19.9716C24.4473 19.9716 24.1847 20.1603 24.0037 20.443V20.0525H23.3106V23.2687H24.0099V21.4658C24.0099 20.9336 24.2386 20.6378 24.6961 20.6378C24.8378 20.6378 24.9857 20.6578 25.1336 20.7187L25.3492 20.0594C25.1944 19.9986 24.9926 19.9716 24.8509 19.9716ZM18.8828 20.0525H17.7391V19.0767H17.0321V20.0525H16.3797V20.6917H17.0321V22.1589C17.0321 22.9052 17.3217 23.3496 18.1488 23.3496C18.4523 23.3496 18.8019 23.2556 19.0237 23.1008L18.822 22.5016C18.6132 22.6226 18.3845 22.6834 18.2027 22.6834C17.8531 22.6834 17.7391 22.4678 17.7391 22.1451V20.6917H18.8828V20.0525ZM8.42609 23.2687V21.2501C8.42609 20.4899 7.94165 19.9785 7.16068 19.9716C6.75018 19.9647 6.32658 20.0925 6.03006 20.5438C5.80825 20.1873 5.45859 19.9716 4.96722 19.9716C4.62372 19.9716 4.28792 20.0725 4.02529 20.4491V20.0525H3.3252V23.2687H4.03145V21.4858C4.03145 20.9274 4.34106 20.6309 4.81934 20.6309C5.28376 20.6309 5.51866 20.9336 5.51866 21.4788V23.2687H6.22569V21.4858C6.22569 20.9274 6.54839 20.6309 7.01281 20.6309C7.49032 20.6309 7.71906 20.9336 7.71906 21.4788V23.2687H8.42609Z" fill="white"/>
</svg>
