<svg width="49" height="44" viewBox="0 0 49 44" fill="none" xmlns="http://www.w3.org/2000/svg">
<path d="M10.0142 28.9824H7.06037C6.85823 28.9824 6.68633 29.1293 6.6548 29.3288L5.46013 36.9033C5.43638 37.0527 5.55213 37.1875 5.70373 37.1875H7.11392C7.31606 37.1875 7.48796 37.0406 7.51949 36.8406L7.84169 34.7977C7.87279 34.5977 8.04512 34.4509 8.24683 34.4509H9.18192C11.1277 34.4509 12.2507 33.5093 12.5439 31.6434C12.6761 30.8271 12.5495 30.1857 12.1673 29.7365C11.7475 29.2433 11.0029 28.9824 10.0142 28.9824ZM10.355 31.7488C10.1935 32.8087 9.38362 32.8087 8.60056 32.8087H8.15483L8.46753 30.8293C8.48611 30.7096 8.58977 30.6215 8.7107 30.6215H8.91499C9.44841 30.6215 9.95158 30.6215 10.2116 30.9256C10.3667 31.107 10.4142 31.3765 10.355 31.7488Z" fill="black"/>
<path d="M18.8436 31.7141H17.4291C17.3086 31.7141 17.2045 31.8022 17.1859 31.9218L17.1233 32.3175L17.0244 32.1741C16.7182 31.7296 16.0353 31.5811 15.3538 31.5811C13.7907 31.5811 12.4556 32.7649 12.1956 34.4256C12.0604 35.254 12.2526 36.0462 12.7226 36.5986C13.1536 37.1065 13.7704 37.3181 14.5042 37.3181C15.7637 37.3181 16.4621 36.5083 16.4621 36.5083L16.399 36.9013C16.3752 37.0516 16.491 37.1864 16.6417 37.1864H17.9159C18.1184 37.1864 18.2895 37.0396 18.3214 36.8396L19.0859 31.9983C19.1101 31.8493 18.9948 31.7141 18.8436 31.7141ZM16.8719 34.4671C16.7355 35.2752 16.0941 35.8177 15.276 35.8177C14.8653 35.8177 14.537 35.6859 14.3263 35.4363C14.1172 35.1884 14.0377 34.8355 14.1043 34.4425C14.2317 33.6413 14.8839 33.0811 15.6894 33.0811C16.091 33.0811 16.4176 33.2145 16.6327 33.4663C16.8482 33.7207 16.9337 34.0758 16.8719 34.4671Z" fill="black"/>
<path d="M26.377 31.7168H24.9556C24.82 31.7168 24.6925 31.7842 24.6157 31.8969L22.6552 34.7847L21.8242 32.0096C21.772 31.836 21.6117 31.7168 21.4303 31.7168H20.0335C19.8638 31.7168 19.7459 31.8827 19.7998 32.0425L21.3655 36.6371L19.8936 38.7151C19.7778 38.8788 19.8944 39.1038 20.0944 39.1038H21.5141C21.6489 39.1038 21.775 39.0381 21.8514 38.9276L26.5791 32.1034C26.6923 31.9401 26.5761 31.7168 26.377 31.7168Z" fill="black"/>
<path d="M31.0828 28.9814H28.1285C27.9268 28.9814 27.7549 29.1283 27.7234 29.3278L26.5287 36.9023C26.505 37.0517 26.6207 37.1865 26.7715 37.1865H28.2875C28.4283 37.1865 28.5488 37.0837 28.5708 36.9437L28.9099 34.7967C28.941 34.5967 29.1133 34.4499 29.315 34.4499H30.2497C32.1959 34.4499 33.3184 33.5083 33.6121 31.6425C33.7447 30.8261 33.6173 30.1848 33.235 29.7356C32.8156 29.2423 32.0715 28.9814 31.0828 28.9814ZM31.4236 31.7478C31.2625 32.8078 30.4527 32.8078 29.6692 32.8078H29.2239L29.537 30.8283C29.5556 30.7087 29.6584 30.6206 29.7797 30.6206H29.984C30.517 30.6206 31.0206 30.6206 31.2806 30.9246C31.4357 31.106 31.4828 31.3755 31.4236 31.7478Z" fill="black"/>
<path d="M39.9121 31.7141H38.4984C38.3771 31.7141 38.2738 31.8022 38.2557 31.9218L38.1931 32.3175L38.0937 32.1741C37.7875 31.7296 37.1051 31.5811 36.4235 31.5811C34.8604 31.5811 33.5258 32.7649 33.2658 34.4256C33.1311 35.254 33.3224 36.0462 33.7923 36.5986C34.2242 37.1065 34.8401 37.3181 35.574 37.3181C36.8334 37.3181 37.5318 36.5083 37.5318 36.5083L37.4688 36.9013C37.445 37.0516 37.5608 37.1864 37.7124 37.1864H38.9861C39.1878 37.1864 39.3597 37.0396 39.3912 36.8396L40.1561 31.9983C40.1794 31.8493 40.0637 31.7141 39.9121 31.7141ZM37.9404 34.4671C37.8048 35.2752 37.1625 35.8177 36.3445 35.8177C35.9346 35.8177 35.6055 35.6859 35.3947 35.4363C35.1857 35.1884 35.1071 34.8355 35.1727 34.4425C35.301 33.6413 35.9523 33.0811 36.7578 33.0811C37.1595 33.0811 37.486 33.2145 37.7011 33.4663C37.9175 33.7207 38.003 34.0758 37.9404 34.4671Z" fill="black"/>
<path d="M41.58 29.1896L40.3676 36.9027C40.3438 37.0521 40.4596 37.1869 40.6103 37.1869H41.8292C42.0318 37.1869 42.2037 37.0401 42.2348 36.8401L43.4303 29.2661C43.454 29.1166 43.3383 28.9814 43.1876 28.9814H41.8227C41.7022 28.9819 41.5986 29.07 41.58 29.1896Z" fill="black"/>
<path opacity="0.68" d="M31.7355 9.77976C31.9698 8.28567 31.7339 7.26926 30.9258 6.34832C30.0362 5.33465 28.429 4.90039 26.3728 4.90039H20.4038C19.9837 4.90039 19.6257 5.20613 19.5603 5.62142L17.0747 21.3823C17.0258 21.6934 17.2662 21.9745 17.5807 21.9745H21.2657L21.0114 23.5873C20.9686 23.8594 21.1787 24.1053 21.4541 24.1053H24.5602C24.9278 24.1053 25.2407 23.8379 25.2981 23.4746L25.3286 23.3166L25.9137 19.6062L25.9514 19.4012C26.0087 19.0381 26.3217 18.7703 26.6893 18.7703H27.1538C30.163 18.7703 32.5191 17.5479 33.2075 14.0124C33.4952 12.5352 33.3464 11.302 32.5856 10.4351C32.3558 10.1733 32.0694 9.95659 31.7355 9.77976Z" fill="black"/>
<path opacity="0.7" d="M31.7355 9.77976C31.9698 8.28567 31.7339 7.26926 30.9258 6.34832C30.0362 5.33465 28.429 4.90039 26.3728 4.90039H20.4038C19.9837 4.90039 19.6257 5.20613 19.5603 5.62142L17.0747 21.3823C17.0258 21.6934 17.2662 21.9745 17.5807 21.9745H21.2657L22.1913 16.1047L22.1626 16.2888C22.2281 15.8737 22.5828 15.5677 23.0031 15.5677H24.7546C28.1943 15.5677 30.8877 14.1703 31.6745 10.1289C31.6979 10.0096 31.7177 9.8936 31.7355 9.77976Z" fill="black"/>
<path d="M23.1858 9.79951C23.2252 9.54991 23.3856 9.3453 23.6013 9.24202C23.6993 9.19507 23.8091 9.16886 23.9239 9.16886H28.6027C29.1571 9.16886 29.6739 9.20524 30.1463 9.28134C30.2813 9.30305 30.4128 9.32809 30.5405 9.35645C30.668 9.38482 30.792 9.41631 30.912 9.45152C30.972 9.46893 31.0309 9.48751 31.089 9.50668C31.321 9.58375 31.5371 9.67452 31.7359 9.77995C31.9702 8.28586 31.7343 7.26946 30.9262 6.34851C30.0362 5.33465 28.429 4.90039 26.3728 4.90039H20.4038C19.9837 4.90039 19.6257 5.20613 19.5603 5.62142L17.0747 21.3823C17.0258 21.6934 17.2662 21.9745 17.5807 21.9745H21.2657L22.1913 16.1047L23.1858 9.79951Z" fill="black"/>
</svg>
