<svg width="150" height="52" viewBox="0 0 150 52" fill="none" xmlns="http://www.w3.org/2000/svg">
<path fill-rule="evenodd" clip-rule="evenodd" d="M149.011 4.05376L150 0V43L149.008 38.9381C148.127 34.8578 146.313 31.2277 142.636 27.9849C141.693 27.1534 140.415 26.5285 138.99 26.0163C137.66 25.5382 136.237 25.1694 134.879 24.8176C134.782 24.7923 134.684 24.7671 134.587 24.7419C133.165 24.3725 131.802 24.009 130.798 23.5457C129.797 23.0839 129 22.4504 129 21.5001C129 20.6947 129.637 20.192 130.448 19.8406C131.223 19.5046 132.289 19.2471 133.45 18.9667C133.482 18.9588 133.515 18.9509 133.548 18.943C135.99 18.3527 139.022 17.6063 141.684 15.8051C144.332 14.0138 146.168 11.0987 147.347 8.58504C147.933 7.33534 148.349 6.19967 148.619 5.37671C148.754 4.96546 148.852 4.6329 148.916 4.40397C148.948 4.28952 148.972 4.20102 148.987 4.14159C148.995 4.11188 149.001 4.08943 149.005 4.07465L149.009 4.05827L149.01 4.05448L149.01 4.0536L149.011 4.05376Z" fill="white"/>
<path fill-rule="evenodd" clip-rule="evenodd" d="M34.8264 22.8291C31.909 22.8291 29.1111 23.988 27.0482 26.0509L6.06599 47.0331C5.67547 47.4237 5.0423 47.4237 4.65178 47.0331C4.26126 46.6426 4.26126 46.0095 4.65178 45.6189L25.634 24.6367C28.072 22.1987 31.3786 20.8291 34.8264 20.8291H138C138.552 20.8291 139 21.2768 139 21.8291C139 22.3814 138.552 22.8291 138 22.8291H34.8264Z" fill="white"/>
<path d="M12.2485 45.5608C12.2485 48.9431 9.50656 51.685 6.12423 51.685C2.74191 51.685 0 48.9431 0 45.5608C0 42.1784 2.74191 39.4365 6.12423 39.4365C9.50656 39.4365 12.2485 42.1784 12.2485 45.5608Z" fill="white"/>
</svg>
