<svg width="44" height="44" viewBox="0 0 44 44" fill="none" xmlns="http://www.w3.org/2000/svg">
<path d="M22.6844 24.072C22.6928 24.01 22.6957 23.9452 22.6957 23.8804C22.6957 21.8857 18.9598 20.2686 14.3478 20.2686C9.73581 20.2686 6 21.8857 6 23.8804V32.0338H6.01127C6.23948 33.9384 9.88513 35.4541 14.3478 35.4541C18.8105 35.4541 22.4534 33.9384 22.6844 32.0338C22.6928 31.969 22.6957 31.9071 22.6957 31.8423C22.6957 31.7775 22.6928 31.7155 22.6844 31.6507V24.072ZM14.3478 27.157C10.3218 27.157 7.05651 25.8272 7.05651 24.1847C7.05651 22.5422 10.3218 21.2124 14.3478 21.2124C18.3738 21.2124 21.6391 22.5422 21.6391 24.1847C21.6391 25.8272 18.3738 27.157 14.3478 27.157Z" fill="#424242"/>
<ellipse cx="4.86957" cy="2.08696" rx="4.86957" ry="2.08696" transform="matrix(-1 0 0 1 19.2173 22.0117)" fill="#C83A2E"/>
<path d="M37.9888 24.072C37.9973 24.01 38.0001 23.9452 38.0001 23.8804C38.0001 21.8857 34.2643 20.2686 29.6523 20.2686C25.0403 20.2686 21.3044 21.8857 21.3044 23.8804V32.0338H21.3157C21.5439 33.9384 25.1896 35.4541 29.6523 35.4541C34.115 35.4541 37.7578 33.9384 37.9888 32.0338C37.9973 31.969 38.0001 31.9071 38.0001 31.8423C38.0001 31.7775 37.9973 31.7155 37.9888 31.6507V24.072ZM29.6523 27.157C25.6263 27.157 22.361 25.8272 22.361 24.1847C22.361 22.5422 25.6263 21.2124 29.6523 21.2124C33.6783 21.2124 36.9436 22.5422 36.9436 24.1847C36.9436 25.8272 33.6783 27.157 29.6523 27.157Z" fill="#424242"/>
<ellipse cx="4.86957" cy="2.08696" rx="4.86957" ry="2.08696" transform="matrix(-1 0 0 1 34.522 22.0117)" fill="#C83A2E"/>
<path d="M29.6844 12.3034C29.6928 12.2414 29.6957 12.1766 29.6957 12.1118C29.6957 10.1172 25.9598 8.5 21.3478 8.5C16.7358 8.5 13 10.1172 13 12.1118V20.2653H13.0113C13.2395 22.1698 16.8851 23.6855 21.3478 23.6855C25.8105 23.6855 29.4534 22.1698 29.6844 20.2653C29.6928 20.2005 29.6957 20.1385 29.6957 20.0737C29.6957 20.0089 29.6928 19.9469 29.6844 19.8821V12.3034ZM21.3478 15.3884C17.3218 15.3884 14.0565 14.0586 14.0565 12.4161C14.0565 10.7736 17.3218 9.44381 21.3478 9.44381C25.3738 9.44381 28.6391 10.7736 28.6391 12.4161C28.6391 14.0586 25.3738 15.3884 21.3478 15.3884Z" fill="#424242"/>
<ellipse class="red-on-hover" cx="4.86957" cy="2.08696" rx="4.86957" ry="2.08696" transform="matrix(-1 0 0 1 26.2175 10.2432)" fill="#C83A2E"/>
</svg>
