<svg width="44" height="44" viewBox="0 0 44 44" fill="none" xmlns="http://www.w3.org/2000/svg">
<path d="M36.3697 17.7969C36.4478 16.0993 35.4446 14.5377 33.8683 13.9029L23.2207 9.61473C22.2428 9.22092 21.1491 9.22903 20.1772 9.63731L9.95447 13.9317C8.46775 14.5562 7.50144 16.0124 7.50366 17.625L7.51551 26.24C7.51774 27.8601 8.49694 29.3188 9.99547 29.9345L20.1753 34.1166C21.1485 34.5165 22.2402 34.5167 23.2136 34.1174L35.5862 29.0412C35.772 28.965 35.9078 28.7917 35.9078 28.5909V28.5909V28.5909C35.9078 28.3734 35.8936 28.1554 35.9036 27.9381L36.3697 17.7969ZM23.2043 19.998C22.2363 20.3926 21.1523 20.3926 20.1843 19.998L18.366 19.2568C15.046 17.9034 15.046 13.2021 18.366 11.8487L20.1843 11.1074C21.1523 10.7128 22.2363 10.7128 23.2043 11.1074L25.0226 11.8487C28.3426 13.2021 28.3426 17.9034 25.0226 19.2568L23.2043 19.998Z" fill="#424242"/>
<path d="M21.3195 10.3939C21.571 10.2861 21.8558 10.2861 22.1073 10.3939L32.0055 14.636C32.8136 14.9823 32.8136 16.128 32.0055 16.4743L22.1073 20.7164C21.8558 20.8242 21.571 20.8242 21.3195 20.7164L11.4213 16.4743C10.6132 16.128 10.6132 14.9823 11.4213 14.636L21.3195 10.3939Z" fill="white"/>
<path class="red-on-hover" d="M21.2662 11.6328C21.5477 11.492 21.8791 11.492 22.1606 11.6328L27.0313 14.0681C27.7684 14.4366 27.7684 15.4885 27.0313 15.857L22.1606 18.2923C21.8791 18.4331 21.5477 18.4331 21.2662 18.2923L16.3955 15.857C15.6585 15.4885 15.6585 14.4366 16.3955 14.0681L21.2662 11.6328Z" fill="#C83A2E"/>
</svg>
