<svg width="44" height="44" viewBox="0 0 44 44" fill="none" xmlns="http://www.w3.org/2000/svg">
<path d="M33.9838 18.0519C33.9959 17.9628 34 17.8697 34 17.7765C34 14.9091 28.6298 12.5845 22 12.5845C15.3702 12.5845 10 14.9091 10 17.7765V29.4971H10.0162C10.3442 32.2348 15.5849 34.4137 22 34.4137C28.4151 34.4137 33.6517 32.2348 33.9838 29.4971C33.9959 29.4039 34 29.3148 34 29.2217C34 29.1285 33.9959 29.0394 33.9838 28.9463V18.0519ZM22 22.4866C16.2126 22.4866 11.5187 20.575 11.5187 18.2139C11.5187 15.8528 16.2126 13.9412 22 13.9412C27.7874 13.9412 32.4813 15.8528 32.4813 18.2139C32.4813 20.575 27.7874 22.4866 22 22.4866Z" fill="#424242"/>
<ellipse cx="11" cy="4.5" rx="11" ry="4.5" transform="matrix(-1 0 0 1 33 13.7451)" fill="white"/>
<ellipse class="red-on-hover" cx="10" cy="4" rx="10" ry="4" transform="matrix(-1 0 0 1 32 10.749)" fill="#C83A2E"/>
</svg>
