<svg width="44" height="44" viewBox="0 0 44 44" fill="none" xmlns="http://www.w3.org/2000/svg">
<path d="M34.9824 16.058C34.9956 15.9636 35 15.865 35 15.7663C35 12.729 29.1822 10.2666 22 10.2666C14.8178 10.2666 9 12.729 9 15.7663V28.1814H9.01755C9.37294 31.0814 15.0503 33.3894 22 33.3894C28.9497 33.3894 34.6227 31.0814 34.9824 28.1814C34.9956 28.0827 35 27.9884 35 27.8897C35 27.791 34.9956 27.6967 34.9824 27.598V16.058ZM22 20.7555C15.7303 20.7555 10.6453 18.7307 10.6453 16.2296C10.6453 13.7286 15.7303 11.7037 22 11.7037C28.2697 11.7037 33.3547 13.7286 33.3547 16.2296C33.3547 18.7307 28.2697 20.7555 22 20.7555Z" fill="#424242"/>
<ellipse class="red-on-hover" cx="7.58333" cy="3.25" rx="7.58333" ry="3.25" transform="matrix(-1 0 0 1 29.5833 13.2148)" fill="#424242"/>
</svg>
