<svg width="44" height="44" viewBox="0 0 44 44" fill="none" xmlns="http://www.w3.org/2000/svg">
<path d="M34.6076 26.0512C34.5159 26.0053 34.2316 26.0053 34.0114 26.0237C33.9335 26.0283 33.8418 26.0695 33.8143 26.1337C33.0805 27.8855 31.2142 29.009 29.2744 29.009H9.93176C8.75322 29.009 7.66182 28.5229 6.93727 27.9405C6.77677 27.7984 6.61627 27.8029 6.53831 27.7983C6.00637 27.78 5.50652 27.7387 5.04795 27.6699C4.77281 27.6287 4.516 27.5782 4.26379 27.5186C4.08953 27.4773 3.83273 27.5461 3.9382 27.7433C4.91955 29.6051 6.74009 31.0588 8.99627 31.0588H30.2053C32.5303 31.0588 34.548 29.4767 35.5431 27.1609C35.5568 27.1288 35.5889 27.0646 35.5202 26.9958C35.1487 26.5877 34.7314 26.1062 34.6076 26.042V26.0512Z" fill="#424242"/>
<path class="red-on-hover" d="M15.5862 18.9752C15.8476 18.3928 16.8564 16.1779 17.8286 14.1006C17.8836 13.9859 17.9111 13.775 17.5397 13.6603C16.462 13.4311 15.8155 13.3348 14.7149 13.2064C13.6372 13.078 12.5596 13.0046 11.4911 13C11.3489 13 11.2068 13 11.0646 13C9.86776 13.0138 8.69381 13.1192 7.56113 13.3302H7.55196C7.51527 13.3393 7.47859 13.3439 7.4419 13.3531C4.01636 14.0318 4.07597 15.169 3.75956 16.1045C3.42021 17.0951 4.18145 17.8976 3.87879 18.911C3.66326 19.6356 -1.00961 25.3173 5.24534 26.2528C6.20375 26.3949 7.40063 26.4224 8.88182 26.2849C10.2942 26.1565 11.9726 25.8813 13.9491 25.4319C14.1646 25.3815 14.7928 25.2347 14.9121 25.2072C15.1918 25.143 15.1184 24.9917 15.1093 24.9092C14.9717 23.2904 14.9671 20.3601 15.5862 18.9844V18.9752Z" fill="#424242"/>
<path class="red-on-hover" d="M42.0002 21.323C41.9635 21.135 41.0784 21.0158 40.2713 21.1763C38.8635 21.4469 36.855 22.6621 36.4285 22.552C36.3735 22.5383 35.9974 22.5658 34.9978 21.8733C34.3924 21.456 33.7137 20.9837 32.847 20.3371C32.2234 19.8694 31.5355 19.3787 30.8156 18.8926C29.5407 18.0396 28.1558 17.2142 26.8214 16.6089C26.7205 16.563 26.615 16.5172 26.5141 16.4713C25.5282 16.0494 24.4322 15.623 23.2583 15.2194C23.2032 15.2011 23.1436 15.1827 23.0886 15.1598C22.9831 15.1231 22.7768 15.0681 22.63 15.3387C21.5432 17.5352 19.7089 21.2634 19.5622 21.7449C19.4017 22.2631 19.3283 23.1344 19.3008 24.0837C19.3008 24.157 19.3008 24.3267 19.5484 24.2625C20.461 24.1112 21.08 24.0286 21.9101 23.9323C23.4738 23.7489 24.8954 23.6526 26.1794 23.6205C27.7156 23.5792 29.0592 23.6342 30.2148 23.7351C31.5814 23.8589 32.682 24.047 33.5257 24.2441C34.2961 24.4184 34.9519 24.4459 35.1995 24.7257C35.1995 24.7257 38.7168 29.4214 39.7348 30.013C39.8678 30.091 39.9916 30.0634 40.01 30.0589C40.5419 29.9167 37.9418 23.9461 38.084 23.7397C38.2078 23.5563 42.1102 21.8963 41.9956 21.3139L42.0002 21.323Z" fill="#424242"/>
</svg>
