<svg width="44" height="44" viewBox="0 0 44 44" fill="none" xmlns="http://www.w3.org/2000/svg">
<path class="red-on-hover" d="M14.9448 19.0727C15.2323 18.4321 16.3421 15.9957 17.4115 13.7106C17.472 13.5845 17.5022 13.3525 17.0937 13.2264C15.9082 12.9742 15.197 12.8682 13.9864 12.727C12.801 12.5858 11.6155 12.505 10.4402 12.5C10.2838 12.5 10.1275 12.5 9.9711 12.5C8.65453 12.5151 7.36319 12.6312 6.11725 12.8632H6.10716C6.0668 12.8733 6.02645 12.8783 5.98609 12.8884C2.218 13.635 2.28357 14.886 1.93551 15.915C1.56223 17.0046 2.39959 17.8873 2.06667 19.0021C1.82958 19.7991 -3.31057 26.049 3.56987 27.078C4.62413 27.2344 5.94069 27.2647 7.57001 27.1134C9.12365 26.9721 10.9699 26.6695 13.144 26.1751C13.3811 26.1196 14.0721 25.9582 14.2033 25.9279C14.511 25.8573 14.4303 25.6909 14.4202 25.6001C14.2688 23.8194 14.2638 20.5961 14.9448 19.0828V19.0727Z" fill="#424242"/>
<path class="red-on-hover" d="M44.0001 21.6553C43.9597 21.4485 42.9862 21.3174 42.0984 21.4939C40.5498 21.7915 38.3404 23.1283 37.8713 23.0072C37.8107 22.9921 37.3971 23.0223 36.2974 22.2607C35.6316 21.8016 34.885 21.2821 33.9316 20.5708C33.2456 20.0563 32.489 19.5166 31.697 18.9819C30.2947 18.0436 28.7713 17.1356 27.3034 16.4698C27.1925 16.4193 27.0764 16.3689 26.9655 16.3185C25.8809 15.8544 24.6753 15.3853 23.384 14.9414C23.3235 14.9212 23.2579 14.901 23.1974 14.8758C23.0813 14.8354 22.8543 14.7749 22.6929 15.0725C21.4974 17.4887 19.4797 21.5898 19.3183 22.1194C19.1417 22.6894 19.061 23.6478 19.0308 24.692C19.0308 24.7727 19.0308 24.9594 19.3032 24.8887C20.307 24.7223 20.988 24.6315 21.901 24.5256C23.6211 24.3238 25.1848 24.2178 26.5972 24.1825C28.2871 24.1371 29.765 24.1977 31.0362 24.3086C32.5394 24.4448 33.7501 24.6517 34.6782 24.8686C35.5257 25.0602 36.247 25.0905 36.5194 25.3982C36.5194 25.3982 40.3884 30.5636 41.5082 31.2143C41.6545 31.3001 41.7907 31.2698 41.8109 31.2647C42.396 31.1084 39.5359 24.5407 39.6922 24.3137C39.8284 24.1119 44.1212 22.2859 43.995 21.6452L44.0001 21.6553Z" fill="#424242"/>
</svg>
