<svg width="44" height="44" viewBox="0 0 44 44" fill="none" xmlns="http://www.w3.org/2000/svg">
<path class="red-on-hover" d="M35.7257 19.183H34.7208C34.8823 18.7218 34.965 18.2366 34.9652 17.7479C34.9652 15.3576 33.0206 13.413 30.6303 13.413C30.5652 13.413 30.4992 13.4145 30.4324 13.4177C29.6277 12.255 28.2859 11.5437 26.8642 11.5437C25.4426 11.5437 24.1007 12.2551 23.2961 13.4177C23.2302 13.4146 23.1642 13.413 23.0982 13.413C20.7079 13.413 18.7632 15.3576 18.7632 17.7479C18.7635 18.2366 18.8462 18.7218 19.0077 19.183H17.3605H17.031H16.4479H15.2186H14.5107C14.4251 19.0975 14.6317 19.183 14.5107 19.183C14.3897 19.183 14.5963 19.0975 14.5107 19.183C14.4251 19.2686 14.5107 19.062 14.5107 19.183C14.4251 19.0975 14.5107 19.3041 14.5107 19.183C14.6344 19.183 17.3605 19.183 17.3605 19.183C17.2821 19.222 17.4476 19.1927 17.3605 19.183C17.439 19.1441 18.4542 19.183 18.4542 19.183C18.4542 19.183 17.8093 19.183 19.0077 19.183C19.9412 19.183 20.298 14.5648 20.298 14.5648C20.2377 14.5637 20.3531 14.5891 20.298 14.5648C20.3582 14.566 20.5195 14.2465 20.5756 14.2244C20.5323 14.2663 20.6316 14.2023 20.5756 14.2244C20.5518 14.2797 20.6188 14.1825 20.5756 14.2244C20.5994 14.1691 20.9781 14.2846 20.9788 14.2244C20.9795 14.1642 21.0014 13.9398 20.9788 13.884C20.9563 13.8281 20.3403 12.9056 20.298 12.8627C19.5813 12.1238 18.3689 11.6721 17.3605 11.5676C17.3605 11.5676 17.0494 11.4934 16.8476 11.501C16.6894 11.5069 16.4478 11.5687 16.4478 11.5687C15.1995 11.7028 14.0538 12.3803 13.3359 13.4177C13.27 13.4146 13.2041 13.413 13.1381 13.413C13.028 13.413 12.9193 13.4184 12.8112 13.4265C12.8112 13.4265 12.5087 13.4356 12.3193 13.4726C12.1514 13.5055 11.8986 13.5945 11.8986 13.5945C10.1105 14.1291 8.80316 15.7883 8.80316 17.7479C8.8034 18.2366 8.88605 18.7218 9.04762 19.183H8.04263C7.98271 19.183 7.92336 19.1948 7.868 19.2177C7.81263 19.2407 7.76232 19.2743 7.71995 19.3167C7.67758 19.359 7.64396 19.4093 7.62104 19.4647C7.59811 19.5201 7.58631 19.5794 7.58632 19.6393C7.58632 24.9221 10.4823 29.7547 15.1441 32.2511C15.2104 32.2866 15.2844 32.3052 15.3596 32.3052H28.4089C28.4841 32.3052 28.5581 32.2866 28.6243 32.2511C33.286 29.7547 36.1821 24.9221 36.1821 19.6393C36.1821 19.5183 36.134 19.4023 36.0484 19.3167C35.9628 19.2311 35.8468 19.183 35.7257 19.183Z" fill="#C83A2E"/>
<path d="M6 18.6499H38C38 18.6499 37.4644 24.0497 35.7674 26.9276C34.0301 29.8739 29.4419 32.9478 29.4419 32.9478H14.5581C14.5581 32.9478 9.59456 29.9943 7.86047 26.9276C6.28515 24.1417 6 18.6499 6 18.6499Z" fill="#2C2C2C"/>
</svg>
