<svg width="44" height="44" viewBox="0 0 44 44" fill="none" xmlns="http://www.w3.org/2000/svg">
<path d="M6 16.9727H38C38 16.9727 37.4644 22.3724 35.7674 25.2504C34.0301 28.1967 29.4419 31.2705 29.4419 31.2705H14.5581C14.5581 31.2705 9.59456 28.3171 7.86047 25.2504C6.28515 22.4644 6 16.9727 6 16.9727Z" fill="#2C2C2C"/>
<path class="red-on-hover" d="M37 17.6275C37 17.7647 36.8969 18.1119 36.1782 18.6033C35.492 19.0725 34.4337 19.5348 33.0359 19.9391C30.2537 20.7437 26.3516 21.2551 22 21.2551C17.6484 21.2551 13.7463 20.7437 10.9641 19.9391C9.56635 19.5348 8.50795 19.0725 7.82181 18.6033C7.10313 18.1119 7 17.7647 7 17.6275C7 17.4904 7.10313 17.1432 7.82181 16.6518C8.50795 16.1826 9.56635 15.7203 10.9641 15.316C13.7463 14.5113 17.6484 14 22 14C26.3516 14 30.2537 14.5113 33.0359 15.316C34.4337 15.7203 35.492 16.1826 36.1782 16.6518C36.8969 17.1432 37 17.4904 37 17.6275Z" fill="white" stroke="#2C2C2C" stroke-width="2"/>
</svg>
