<svg width="44" height="44" viewBox="0 0 44 44" fill="none" xmlns="http://www.w3.org/2000/svg">
<path d="M23.4078 2.5C23.9525 2.5 24.7408 2.44091 24.8731 2.96938C25.0784 3.72466 24.5097 4.4685 23.727 4.4685L20.2727 4.4685C19.4901 4.4685 18.9214 3.72466 19.1266 2.96938C19.2725 2.38668 20.1713 2.5 20.772 2.5H23.4078Z" fill="#1F1F1F"/>
<path d="M19.6266 5.04492L24.3525 5.04492C24.7553 10.4921 26.6135 13.8806 27.5761 17.9559L27.5756 17.9564L27.4234 17.9926L16.576 17.9926L16.4243 17.9569C17.374 13.9169 19.2168 10.5749 19.6266 5.04492Z" fill="#2C2C2C"/>
<path class="red-on-hover" d="M27.4234 17.9922L27.5756 17.9561C28.1374 20.3404 28.4284 22.9325 28.0961 25.8656L15.9043 25.8656C15.5707 22.9339 15.8625 20.3417 16.4244 17.9566L16.5761 17.9923L27.4234 17.9922Z" fill="#C83A2E"/>
<path d="M28.0959 25.8662L27.2404 30.1467C26.7801 32.5667 26.5486 34.0593 27.4009 35.6789C28.7939 38.3237 27.888 40.652 26.3357 41.3559C25.2236 41.8612 23.2146 41.9066 21.9981 41.8891C20.7691 41.9071 18.7866 41.8668 17.6634 41.3559C16.1122 40.6517 15.2092 38.3174 16.5977 35.6785C17.45 34.0597 17.2194 32.5672 16.7587 30.1476L15.9041 25.8662L28.0959 25.8662Z" fill="#2C2C2C"/>
</svg>
