<svg width="195" height="68" viewBox="0 0 195 68" fill="none" xmlns="http://www.w3.org/2000/svg">
<path d="M52.9994 30.6602C52.9497 29.7934 52.6084 29.1224 51.7874 28.7999C51.0273 28.4895 50.3529 28.7041 49.7334 29.12C48.9257 29.6887 48.0266 30.0806 47.219 30.6494C45.7979 31.6035 44.1332 32.1917 42.9801 33.5484C42.8162 33.7378 42.6461 33.7991 42.3298 33.6408C41.2775 33.05 40.1888 32.4837 39.088 31.9785C38.4554 31.6618 37.842 32.0472 37.6788 32.7128C37.4128 33.8974 38.0339 34.7513 38.7523 35.5927C38.9896 35.8305 39.482 35.897 39.4824 36.2144C39.5012 36.599 38.9846 36.6546 38.7235 36.8564C36.6224 38.373 34.7099 40.0542 32.8157 41.8026C31.0369 43.447 29.1119 44.8718 26.6568 45.3023C26.1038 45.3824 25.6362 45.6699 25.2172 46.0306C24.8408 46.3363 24.4639 46.3246 24.1233 46.1297C23.4968 45.7825 22.8036 45.6125 22.0984 45.5035C21.5756 45.431 21.1134 45.2118 20.6997 44.9071C19.9453 44.4075 19.2516 43.7614 18.2307 43.9702C17.5744 44.0932 17.0155 44.3625 16.4933 44.7661C16.1229 45.0412 15.6188 45.3532 15.7227 45.7865C15.8022 46.1832 16.4042 46.335 16.8054 46.3833C18.3374 46.6255 19.7 47.4051 21.1593 47.855C22.5031 48.25 23.8773 48.6511 25.2503 48.1C25.7667 47.8856 26.1923 47.9705 26.6241 48.1836C26.8004 48.2506 26.9768 48.3175 27.1592 48.3539C28.3935 48.6636 29.6392 48.4361 30.8668 48.3002C32.2586 48.1336 33.6744 47.8449 35.0293 47.3853C35.1994 47.324 35.3999 47.2688 35.5034 47.3847C35.6373 47.5066 35.4794 47.6655 35.4128 47.8426C35.2552 48.1602 35.1583 48.49 35.0555 48.8503C35.0132 49.064 34.6913 49.2537 34.9347 49.4609C35.1721 49.6987 35.5125 49.7349 35.8163 49.6368C36.6972 49.3365 37.4564 48.8533 37.7773 47.8701C38.0982 46.8868 38.632 46.1048 39.6161 45.6029C41.159 44.8318 42.6044 43.9142 43.9768 42.8869C44.3107 42.6362 44.3597 42.8681 44.4086 43.1C44.7871 44.3814 45.6936 45.0701 46.478 45.2583C48.0283 45.5676 48.3683 45.2864 48.3122 44.1327C48.2997 43.8763 48.2811 43.6505 48.2383 43.388C48.0059 42.3262 47.7188 41.2216 47.7478 40.1167C47.7534 39.7687 47.6312 39.2683 48.1659 39.1211C48.7978 38.9616 49.2776 38.613 49.6051 38.0754C50.1813 37.0796 50.8669 36.1692 51.3519 35.1552C51.8854 34.0557 52.3337 32.9075 52.776 31.7898C52.8241 31.3868 53.0425 31.0813 52.9994 30.6602ZM39.4937 35.5185C38.6906 34.9457 38.2399 34.1894 38.0806 33.2373C37.9642 32.5476 38.2799 32.2298 39.1007 32.3935C39.277 32.4605 39.5689 32.5822 39.8548 32.7344C40.6273 33.1424 41.3573 33.6054 42.1782 33.9279C42.5005 34.0557 42.598 34.202 42.2397 34.4162C41.6627 34.7771 41.0797 35.1685 40.5027 35.5294C40.1627 35.8107 39.8526 35.7805 39.4937 35.5185ZM35.8338 49.0691C35.7001 49.1059 35.5483 49.2342 35.4144 49.1123C35.2501 48.9843 35.4627 48.8681 35.4929 48.7154C35.7651 47.659 36.2563 46.7732 37.4412 46.5336C37.5081 46.5152 37.5993 46.5334 37.733 46.4966C37.4123 47.6386 37.0185 48.6707 35.8338 49.0691ZM47.8077 44.1272C47.8876 44.8414 47.5476 45.1226 46.8665 44.8915C45.9483 44.5814 45.2485 43.9657 44.8219 43.0872C44.6268 42.6358 44.6445 42.2267 45.0939 41.8721C45.8103 41.2851 46.4841 40.5945 47.2673 39.8304C47.1477 41.3933 47.6721 42.7356 47.8077 44.1272ZM52.3743 31.424C51.5747 33.5494 50.538 35.5958 49.3369 37.5141C49.161 37.7646 49.0155 38.0212 48.6328 38.1987C48.7052 37.8324 48.7596 37.5576 48.82 37.2523C48.8441 37.1302 48.8379 37.002 48.6919 36.9411C48.5399 36.9108 48.4306 36.9842 48.3761 37.1003C47.164 39.8733 44.8138 41.5306 42.4941 43.194C40.1683 44.888 37.5562 46.1123 34.8038 46.9277C32.6225 47.5715 30.4167 48.02 28.1495 47.9802C27.5173 47.981 26.8789 47.8537 26.3195 47.6468C25.9364 47.5069 25.6567 47.4829 25.3348 47.6725C24.6302 48.0397 23.8765 48.0163 23.1409 47.9012C21.5481 47.6469 20.0521 47.0628 18.5621 46.4482C17.9175 46.1927 17.2728 45.9371 16.5859 45.8953C16.4279 45.8955 16.2455 45.8591 16.1541 45.6822C16.0992 45.4808 16.2753 45.389 16.3907 45.2851C16.931 44.7899 17.5748 44.4106 18.2979 44.2693C18.7901 44.1771 19.2886 44.213 19.6659 44.5422C20.7733 45.493 22.1777 45.7415 23.467 46.2526C24.4035 46.6299 25.0844 46.7023 25.8311 45.9626C26.0314 45.7487 26.4324 45.6383 26.7301 45.5708C29.6834 45.0176 31.9424 43.342 34.049 41.3187C37.0965 38.3724 40.5641 36.0177 44.2023 33.9192C44.4513 33.7784 44.7187 33.7048 44.9556 33.6252C45.0589 33.5823 45.1986 33.515 45.1924 33.3868C45.1678 33.1915 45.0098 33.1917 44.8517 33.1919C44.5661 33.1984 44.2743 33.2354 43.9218 33.2602C44.6683 32.3619 45.6342 31.9517 46.5271 31.4316C47.7054 30.7464 48.9751 30.2381 50.0803 29.4431C50.7786 28.9477 51.5324 28.9711 52.0435 29.4222C52.5486 29.9038 52.659 30.624 52.3743 31.424Z" fill="#242424"/>
<path d="M37.3274 42.7969C36.3792 42.7981 35.8389 43.2933 35.4509 44.1362C35.1782 44.7165 34.5644 44.7844 33.9991 44.7669C33.5006 44.7309 33.0205 44.762 32.6623 45.1349C31.9764 45.8866 31.144 46.1013 30.1895 45.9744C29.4843 45.8654 28.8343 46.1165 28.1538 46.3616C28.7547 45.7198 29.5691 45.5967 30.3351 45.7178C31.1315 45.845 31.7755 45.6244 32.3279 45.0681C32.7285 44.6403 33.2389 44.4565 33.7981 44.5046C34.637 44.5768 35.1288 44.1672 35.4441 43.5319C35.8079 42.8111 36.3363 42.5357 37.0717 42.492C37.169 42.4797 37.2358 42.4613 37.333 42.4489C37.5519 42.4609 37.8432 42.1064 37.9104 42.4055C37.996 42.7716 37.5462 42.8088 37.3274 42.7969Z" fill="#242424"/>
<path d="M22.6536 46.8516C22.1553 46.9743 21.0609 46.756 20.4405 46.3783C19.7409 45.9214 19.0536 45.5621 18.0627 45.4596C18.749 45.0253 19.2539 45.3482 19.6493 45.5858C20.5496 46.1462 21.468 46.6151 22.5136 46.7602C22.544 46.7663 22.5988 46.8089 22.6536 46.8516Z" fill="#242424"/>
<path d="M47.1457 35.0134C46.0956 36.1685 45.0152 37.3175 43.7521 38.2714C43.7277 38.2348 43.7034 38.1982 43.679 38.1617C44.7778 37.0797 45.913 35.9734 47.0118 34.8914C47.0361 34.928 47.0909 34.9707 47.1457 35.0134Z" fill="#242424"/>
<path d="M42.8294 39.1015C42.5019 39.6392 41.9186 39.8719 41.4633 40.2571C40.8925 40.7462 40.2123 41.1499 39.5625 41.5598C39.4531 41.6332 39.3197 41.8287 39.2039 41.6152C39.1065 41.4688 39.2766 41.4075 39.3859 41.3341C40.5215 40.5452 41.6571 39.7562 42.7563 38.9918C42.7503 39.0223 42.7746 39.0589 42.8294 39.1015Z" fill="#242424"/>
<path d="M48.3749 31.514C48.3389 31.8559 47.4825 32.3515 47.1358 32.1871C46.9595 32.1202 46.9532 31.992 46.9895 31.8088C47.0863 31.479 47.7605 31.1058 48.1253 31.1786C48.3016 31.2455 48.4112 31.3308 48.3749 31.514Z" fill="#242424"/>
<path d="M50.8459 34.0372C50.7674 34.4341 50.2331 34.8987 49.9655 34.8136C49.7588 34.7406 49.795 34.5574 49.8252 34.4048C49.9158 33.9468 50.4257 33.4456 50.6872 33.5612C50.9852 33.6524 50.8821 33.854 50.8459 34.0372Z" fill="#242424"/>
<path d="M42.8292 39.1027C42.8048 39.0661 42.7805 39.0295 42.7561 38.9929C42.8531 38.8219 42.9806 38.6569 43.2419 38.6138C43.2423 38.9312 43.0053 39.0109 42.8292 39.1027Z" fill="#242424"/>
<path d="M43.7521 38.2714C43.6551 38.4425 43.5519 38.644 43.3147 38.5649C43.2779 38.2719 43.5027 38.2533 43.6849 38.131C43.7032 38.1981 43.7277 38.2348 43.7521 38.2714Z" fill="#242424"/>
<path d="M46.8412 43.9015C46.6762 43.1386 46.2498 42.4189 46.3764 41.619C46.5719 42.3879 46.9679 43.1016 46.8412 43.9015Z" fill="#242424"/>
<path d="M46.0076 43.4817C45.6972 43.1342 45.7028 42.7862 45.7084 42.4382C45.9397 42.7065 46.0009 43.0361 46.0076 43.4817Z" fill="#242424"/>
<path d="M40.9873 34.3558C40.1911 34.3874 39.7647 33.6676 39.114 33.4426C39.8678 33.466 40.3427 34.1003 40.9873 34.3558Z" fill="#242424"/>
<path d="M40.2223 34.7111C39.7118 34.7362 39.5658 34.6753 39.2795 34.2057C39.6687 34.315 39.9181 34.4917 40.2223 34.7111Z" fill="#242424"/>
<path d="M21.24 22.372C21.2334 22.4024 21.2334 22.4024 21.24 22.372V22.372ZM50.7061 21.1779C50.1937 20.9071 49.6565 21.0449 49.1613 20.8415C47.3623 20.0674 45.5763 19.2325 43.6181 18.9015C42.8543 18.767 42.084 18.6629 41.3428 19.0111C40.9873 19.1884 40.6713 19.1833 40.3144 19.0737C38.6076 18.6064 36.8801 18.676 35.15 18.9043C33.7793 19.0835 32.4363 19.428 31.0263 19.7897C31.3091 19.2143 31.5419 18.7236 31.751 18.1958C32.0036 17.6138 31.7532 17.3045 31.1449 17.3312C30.2442 17.3899 29.0425 18.4021 28.8152 19.3081C28.6115 20.2511 27.9692 20.8756 27.2215 21.2542C25.6457 22.0895 24.0462 22.8877 22.6602 24.0191C22.5431 24.1209 22.4325 24.1924 22.2573 24.1224C21.7293 24.0711 22.215 23.731 22.1267 23.5525C22.103 23.5155 22.0793 23.4785 22.0621 23.411C21.8264 23.3278 21.6275 23.2208 21.8446 22.9496L21.8209 22.9126C21.5826 22.9881 21.5483 22.8532 21.5877 22.6707C21.406 22.6311 21.2177 22.6219 21.2768 22.3482C20.9608 22.343 20.7579 22.1077 20.5418 21.9333C20.0321 21.5037 19.4171 21.5609 18.8285 21.4964L18.7917 21.5202C18.8708 21.8878 18.3311 22.1843 18.7263 22.557C18.8471 21.8508 19.3131 21.6019 19.9164 21.8926C20.6276 22.2705 21.2454 22.7872 21.6355 23.4774C22.0019 24.1305 21.9296 24.4651 21.4111 24.9573C20.7385 25.5752 20.0659 26.1931 19.2762 26.9129C19.231 25.9475 19.2938 25.0694 18.9905 24.2708C18.7602 24.6028 18.8763 24.9466 18.962 25.2838C19.0175 25.6144 19.2613 25.9541 18.8795 26.2532C18.8598 26.3445 18.877 26.4119 18.8573 26.5032C19.1353 26.9778 18.9737 27.5796 18.5471 27.6459L18.5168 27.6393C18.5091 28.1154 18.2219 27.8299 18.0336 27.8207C17.9916 28.1619 17.8008 28.3115 17.4742 28.2085C17.3939 28.2865 17.3505 28.3408 17.2768 28.3884C17.2611 28.6079 17.1611 28.7773 17.0005 28.9334C16.8334 29.1199 16.8677 29.2548 17.06 29.3923C17.2968 29.0298 17.5099 28.6303 17.9931 28.4489C17.8209 28.9528 17.5643 29.4066 17.7687 29.9288C17.8424 29.8812 17.9767 29.8467 17.9898 29.7859C18.6894 27.868 20.2163 26.6718 21.6588 25.4253C25.622 22.0525 30.2139 20.0269 35.3872 19.2745C36.8618 19.0542 38.3471 18.9319 39.801 19.2485C39.9827 19.2881 40.1947 19.3343 40.333 19.4281C40.6939 19.666 41.0165 19.6407 41.372 19.4633C41.9723 19.18 42.6109 19.1599 43.2601 19.2376C45.1037 19.5117 46.7948 20.1986 48.4727 20.9463C49.0522 21.1999 49.6408 21.2644 50.2163 21.3898C50.5798 21.4689 50.6141 21.6038 50.3601 21.8988C49.3073 23.1028 47.718 23.2662 46.4692 22.2935C45.7909 21.7635 45.0559 21.3487 44.1644 21.2182C43.5455 21.1471 42.966 20.8934 42.4365 20.5551C42.0993 20.3543 41.8504 20.3319 41.5595 20.6508C41.1081 21.1258 40.5078 21.4091 39.8495 21.5205C37.2399 22.0031 35.0546 23.3108 33.1475 25.093C31.7958 26.3593 30.4032 27.5211 28.9501 28.6697C29.0949 28.7331 29.2398 28.7965 29.3847 28.8599C29.569 28.7408 29.7836 28.6283 29.9744 28.4787C30.0138 28.2962 30.0598 28.0833 30.3324 28.1427C30.3693 28.1188 30.4061 28.095 30.4799 28.0474C30.5496 27.8715 30.5178 27.5779 30.8484 27.8092L30.8853 27.7853C30.8601 27.4613 30.9364 27.255 31.317 27.4016C31.317 27.4016 31.317 27.4016 31.3473 27.4082C31.3353 27.0234 31.4958 26.8673 31.883 26.9834C31.9396 26.8684 31.8881 26.666 31.9987 26.5946C31.9987 26.5946 31.9987 26.5946 32.0356 26.5708C32.0356 26.5708 32.0356 26.5708 32.0658 26.5774L32.1264 26.5906C32.1567 26.5972 32.2173 26.6103 32.3082 26.6301C32.3082 26.6301 32.3384 26.6367 32.345 26.6063C32.333 26.2215 32.4935 26.0654 32.857 26.1445C32.8939 26.1207 32.9004 26.0903 32.907 26.0599C32.9358 25.7795 33.049 25.5493 33.4124 25.6285C33.4493 25.6047 33.4862 25.5809 33.5296 25.5266C33.573 25.4724 33.6099 25.4486 33.6533 25.3943C33.8639 25.1535 34.1456 25.0238 34.3799 24.82C35.8462 23.6106 37.3942 22.61 39.2915 22.1952C39.9261 22.0468 40.537 21.8613 41.1307 21.6084C42.1839 21.1371 42.1839 21.1371 43.3046 21.3812C44.5162 21.6451 45.6277 22.0784 46.5696 22.8568C48.1661 24.1282 50.2382 23.0508 51.083 21.9289C51.1356 21.6855 51.1579 21.4356 50.7061 21.1779ZM31.1336 18.4117C30.7694 19.5108 30.2325 20.3813 28.8513 20.4626C29.2392 19.4005 29.5469 18.4164 30.6843 17.9953C30.8252 17.9305 30.9858 17.7743 31.1412 17.9356C31.273 18.0599 31.173 18.2292 31.1336 18.4117Z" fill="#242424"/>
<path d="M27.3006 34.84C26.4854 34.5032 25.7636 34.0274 24.9549 33.6602C24.5505 33.4766 24.1553 33.1038 23.6484 33.2482C23.5379 33.3197 23.4273 33.3912 23.3167 33.4626C22.7821 33.4417 22.7507 33.8808 22.6719 34.2458C22.4876 34.3649 22.2967 34.5145 22.0822 34.627C21.7661 34.6218 21.5041 34.6603 21.5399 35.0822L21.503 35.106C21.3173 34.9381 21.2304 35.0466 21.191 35.2291L20.8961 35.4197C20.7078 35.4105 20.4549 35.2599 20.5275 35.6579L20.4907 35.6818C20.3352 35.5205 20.1404 35.5417 19.9652 35.4717C20.1495 35.3526 20.3403 35.2031 20.5246 35.084C21.1684 34.7464 21.8121 34.4089 22.3135 33.8493C22.357 33.795 22.4675 33.7236 22.4438 33.6865C22.3727 33.5755 22.2989 33.6231 22.1949 33.6642C21.9698 33.6788 21.7446 33.6935 21.5129 33.7386C21.3483 33.7664 21.1969 33.7334 21.1691 33.5681C21.1177 33.3658 21.252 33.3314 21.3928 33.2665C21.7048 33.1434 22.0103 33.0507 22.3289 32.8971C23.8915 32.1227 25.3421 31.1328 26.8401 30.2169C26.8007 30.3995 26.7613 30.582 26.7522 30.7711C26.7456 30.8015 26.7759 30.8081 26.7693 30.8385C26.6431 31.1295 26.9379 30.9389 26.9854 31.013C27.0762 31.0328 27.1302 31.0764 27.1908 31.0896C27.2448 31.1332 27.2686 31.1702 27.3226 31.2138C27.3528 31.2204 27.3831 31.227 27.4069 31.264C27.4306 31.3011 27.4846 31.3447 27.5083 31.3817C27.4689 31.5642 27.5335 31.7057 27.7415 31.6236L27.7652 31.6606C27.6784 31.7691 27.6284 31.8537 27.5415 31.9622C27.3558 31.7944 27.17 31.6265 26.9474 31.4825C26.6168 31.2512 26.2599 31.1416 25.8979 31.3494C25.2779 31.724 24.6513 32.1289 24.0313 32.5035C23.847 32.6226 23.7167 32.7853 24.0064 32.9121C25.1246 33.3149 26.0427 34.0564 27.1109 34.5438C27.4006 34.6707 27.6904 34.7975 27.9918 34.5765C28.3301 34.3317 28.2746 34.0011 28.256 33.6467C28.1991 33.0291 27.8367 32.5043 27.5718 31.9688C27.6692 31.9582 27.797 31.9542 27.8681 32.0652C28.3082 32.6707 28.5706 33.3648 28.5709 34.0975C28.5542 34.7627 27.9407 35.1068 27.3006 34.84Z" fill="#242424"/>
<path d="M17.0101 29.4764C16.7721 30.2845 16.1667 30.8852 15.6996 31.5797C14.9825 32.6975 14.6697 33.999 14.0738 35.1432C13.5778 36.1181 13.6479 36.6748 14.4015 37.4441C14.3752 37.5658 14.3555 37.657 14.3292 37.7787L14.2923 37.8025C13.3625 37.4089 12.9235 36.3578 13.4695 35.2982C14.1285 34.0085 14.4741 32.555 15.2781 31.3287C15.7952 30.5495 16.4335 29.7967 16.7583 28.8801C16.828 28.7042 16.9648 28.511 17.1965 28.466C17.1809 28.6855 17.0809 28.8548 16.9203 29.0109C16.79 29.1737 16.8177 29.339 17.0101 29.4764Z" fill="#242424"/>
<path d="M26.8678 34.9366C25.7825 34.3817 24.7538 33.7118 23.6185 33.2415C24.1557 33.1037 24.5206 33.4699 24.9249 33.6535C25.7033 34.0141 26.4489 34.5269 27.2707 34.8333C27.9108 35.1001 28.5479 34.793 28.541 34.0908C28.5472 33.3277 28.2783 32.664 27.8382 32.0585C27.7604 31.9779 27.6692 31.9582 27.5415 31.9622L27.5484 31.9317L27.5116 31.9555C27.5984 31.847 27.655 31.732 27.7353 31.6539C28.5388 32.3385 28.8158 33.2588 28.7333 34.2282C28.7245 35.15 27.8688 35.4413 26.8678 34.9366Z" fill="#242424"/>
<path d="M18.8429 26.2763C18.6381 25.0214 18.3966 23.7903 18.1919 22.5354C18.1021 22.07 18.3324 21.7379 18.7484 21.5737C18.8276 21.9413 18.2879 22.2378 18.6831 22.6106C18.6765 22.641 18.6936 22.7084 18.6871 22.7389C18.6371 22.8235 18.6174 22.9148 18.5977 23.006C18.5911 23.0365 18.578 23.0973 18.5714 23.1277C18.5648 23.1581 18.5517 23.219 18.5754 23.256C18.5688 23.2864 18.586 23.3538 18.5794 23.3843C18.594 23.6104 18.6823 23.7889 18.7641 23.9978C18.7878 24.0348 18.8115 24.0718 18.8352 24.1088C18.8589 24.1459 18.8827 24.1829 18.9064 24.2199C18.9301 24.2569 18.9301 24.2569 18.9538 24.2939L18.9841 24.3005C18.7538 24.6326 18.8699 24.9763 18.9556 25.3135C18.9808 25.6375 19.2246 25.9773 18.8429 26.2763Z" fill="#242424"/>
<path d="M17.6601 37.0397C17.6233 37.0635 17.5495 37.1112 17.5127 37.135C17.3652 37.2303 17.2178 37.3256 17.0704 37.4208C16.4807 37.802 15.8909 38.1832 15.1377 38.1465C14.7914 38.1348 14.5188 38.0754 14.2988 37.7727L14.3356 37.7488C15.2009 38.001 15.9632 37.8485 16.7069 37.3417C16.9715 37.1445 17.2189 36.8799 17.589 36.9286C17.6061 36.9961 17.6364 37.0027 17.6601 37.0397Z" fill="#242424"/>
<path d="M20.48 35.5828C19.86 35.9573 19.2768 36.3081 18.5685 36.5041C18.7013 36.1827 18.9699 36.1138 19.2214 35.9775C19.4662 35.8715 19.7414 35.7722 19.8071 35.468C19.8439 35.4442 19.9111 35.427 19.9479 35.4032C20.1297 35.4428 20.3483 35.4585 20.48 35.5828Z" fill="#242424"/>
<path d="M21.2333 22.4025C20.9173 22.3974 20.6841 22.1555 20.4984 21.9877C19.9886 21.5581 19.3737 21.6153 18.7851 21.5508C18.8588 21.5031 18.9325 21.4555 19.0299 21.4448C19.4459 21.2807 19.8291 21.2686 20.2309 21.6109C20.5549 21.8726 21.0527 21.9173 21.2333 22.4025Z" fill="#242424"/>
<path d="M27.9009 30.0017C27.5324 30.2399 27.1269 30.502 26.7583 30.7402C26.7978 30.5577 26.8372 30.3752 26.8463 30.186C26.8832 30.1622 26.9266 30.108 26.9937 30.0908C27.3203 30.1937 27.5032 29.7877 27.8298 29.8906C27.8535 29.9277 27.8772 29.9647 27.9009 30.0017Z" fill="#242424"/>
<path d="M18.5099 27.6695C18.6256 27.2806 18.7045 26.9156 18.8202 26.5267C19.1048 26.9709 18.9431 27.5727 18.5099 27.6695Z" fill="#242424"/>
<path d="M29.3342 28.944C28.9788 29.1214 28.796 29.5275 28.3931 29.6309C28.3613 29.3373 28.7642 29.2339 28.7627 28.947C28.7693 28.9165 28.7693 28.9166 28.7456 28.8795C28.8365 28.8993 28.8733 28.8755 28.893 28.7842C29.0445 28.8172 29.1894 28.8806 29.3342 28.944Z" fill="#242424"/>
<path d="M18.5614 36.5352C18.3074 36.8302 17.948 36.8793 17.6294 37.0329C17.6057 36.9959 17.5819 36.9589 17.5582 36.9218C17.8359 36.6638 18.1374 36.4428 18.5614 36.5352Z" fill="#242424"/>
<path d="M23.3228 33.4316C23.1597 33.7464 22.9425 34.0176 22.6779 34.2148C22.7568 33.8497 22.7882 33.4107 23.3228 33.4316Z" fill="#242424"/>
<path d="M22.0888 34.5953C21.9994 34.8625 21.7914 34.9446 21.5466 35.0505C21.5174 34.5982 21.7794 34.5597 22.0888 34.5953Z" fill="#242424"/>
<path d="M32.7224 26.1792C32.5619 26.3353 32.4487 26.5655 32.2104 26.641C32.1615 26.28 32.3524 26.1305 32.7224 26.1792Z" fill="#242424"/>
<path d="M17.4 28.2563C17.5434 28.0327 17.7514 27.9506 17.966 27.8381C17.9477 28.2163 17.7569 28.3659 17.4 28.2563Z" fill="#242424"/>
<path d="M31.8091 27.031C31.6182 27.1805 31.4576 27.3366 31.2733 27.4557C31.2547 27.1013 31.4153 26.9452 31.8091 27.031Z" fill="#242424"/>
<path d="M31.23 27.509C31.076 27.6347 30.9997 27.841 30.7983 27.8927C30.7731 27.5687 30.8494 27.3624 31.23 27.509Z" fill="#242424"/>
<path d="M28.3931 29.6309C28.2088 29.75 28.0615 29.8454 27.8772 29.9645C27.8535 29.9275 27.8297 29.8905 27.806 29.8535C27.8954 29.5863 28.1205 29.5715 28.3931 29.6309Z" fill="#242424"/>
<path d="M33.2477 25.6558C33.1648 25.8925 32.9568 25.9746 32.7422 26.0871C32.8014 25.8134 32.9145 25.5832 33.2477 25.6558Z" fill="#242424"/>
<path d="M22.0493 23.4714C21.8135 23.3882 21.6146 23.2812 21.8318 23.01C21.8858 23.0536 21.9398 23.0973 21.9872 23.1713C22.0175 23.1779 22.0109 23.2083 22.0044 23.2387C22.0584 23.2823 22.069 23.3802 22.0493 23.4714Z" fill="#242424"/>
<path d="M22.2805 24.1587C21.7525 24.1074 22.2382 23.7673 22.1499 23.5888C22.2382 23.7673 22.2897 23.9696 22.2805 24.1587Z" fill="#242424"/>
<path d="M17.9901 27.874C18.1613 27.8157 18.3021 27.7508 18.4733 27.6925C18.4656 28.1686 18.1547 27.8461 17.9901 27.874Z" fill="#242424"/>
<path d="M31.779 27.0244C31.879 26.8551 31.7089 26.4677 32.1435 26.6579C32.0501 26.7968 31.9264 26.9291 31.779 27.0244Z" fill="#242424"/>
<path d="M30.2457 28.2505C30.2062 28.433 30.0891 28.5349 29.8877 28.5866C29.9639 28.3803 29.9731 28.1911 30.2457 28.2505Z" fill="#242424"/>
<path d="M30.7316 27.9105C30.6382 28.0494 30.5276 28.1208 30.363 28.1487C30.4327 27.9728 30.4313 27.6858 30.7316 27.9105Z" fill="#242424"/>
<path d="M21.5746 22.7309C21.3929 22.6913 21.2046 22.6821 21.2637 22.4083C21.4152 22.4413 21.5166 22.559 21.5746 22.7309C21.5443 22.7243 21.5443 22.7243 21.5746 22.7309Z" fill="#242424"/>
<path d="M20.8791 35.3517C20.7619 35.4535 20.6448 35.5554 20.5105 35.5899C20.4682 35.1984 20.7276 35.3187 20.8791 35.3517Z" fill="#242424"/>
<path d="M21.8142 22.9429C21.5759 23.0184 21.5416 22.8835 21.581 22.701C21.6956 22.7578 21.8167 22.7842 21.8142 22.9429Z" fill="#242424"/>
<path d="M21.516 35.0447C21.4528 35.1902 21.3251 35.1942 21.204 35.1678C21.2434 34.9853 21.3302 34.8768 21.516 35.0447Z" fill="#242424"/>
<path d="M27.7786 31.5992C27.5403 31.6747 27.506 31.5398 27.5454 31.3573C27.6297 31.4075 27.7509 31.4339 27.7786 31.5992Z" fill="#242424"/>
<path d="M26.961 30.9753C26.9136 30.9013 26.6253 31.0614 26.745 30.8008C26.8661 30.8272 26.9504 30.8774 26.961 30.9753Z" fill="#242424"/>
<path d="M27.5384 31.3885C27.4844 31.3449 27.4609 31.3076 27.4069 31.264C27.4674 31.2772 27.491 31.3145 27.5384 31.3885Z" fill="#242424"/>
<path d="M27.1908 31.0896C27.2448 31.1332 27.2686 31.1702 27.3226 31.2138C27.2751 31.1398 27.2514 31.1028 27.1908 31.0896Z" fill="#242424"/>
<path d="M22.4503 33.6558C22.4503 33.6558 22.3634 33.7643 22.32 33.8186C22.2963 33.7816 22.2488 33.7075 22.2251 33.6705C22.3054 33.5924 22.4094 33.5514 22.4503 33.6558Z" fill="#242424"/>
<path d="M19.8071 35.468C19.7414 35.7722 19.4662 35.8715 19.2214 35.9775C18.9462 36.0768 18.671 36.1761 18.5685 36.5041C18.1444 36.4118 17.8436 36.6329 17.5896 36.9279C17.2196 36.8791 16.9656 37.1742 16.7076 37.3409C15.9639 37.8478 15.195 38.0307 14.3363 37.7481C14.3626 37.6264 14.3823 37.5351 14.4085 37.4135C15.0961 37.7543 15.7413 37.7037 16.4113 37.2445C17.4261 36.5101 18.6196 35.9738 19.8071 35.468Z" fill="#242424"/>
<path d="M18.9064 24.2199C18.8827 24.1829 18.8589 24.1459 18.8352 24.1088C18.8115 24.0718 18.7878 24.0348 18.7641 23.9978C18.6823 23.7889 18.594 23.6104 18.5794 23.3843C18.586 23.3538 18.5688 23.2864 18.5754 23.256C18.582 23.2256 18.5648 23.1581 18.5714 23.1277C18.578 23.0973 18.5911 23.0365 18.5977 23.006C18.6174 22.9148 18.6371 22.8235 18.6871 22.7389C18.7637 23.2652 18.8402 23.7918 18.9471 24.3247C18.9234 24.2877 18.9301 24.2569 18.9064 24.2199Z" fill="#242424"/>
<path d="M28.3931 29.6309C28.1205 29.5715 27.8955 29.5865 27.8298 29.8906C27.5032 29.7877 27.3203 30.1937 26.9937 30.0908C27.5123 29.5986 28.1322 29.2237 28.7456 28.8795C28.739 28.91 28.7693 28.9165 28.7627 28.947C28.7642 29.2339 28.3613 29.3373 28.3931 29.6309Z" fill="#242424"/>
<path d="M28.7761 28.8861C28.813 28.8623 28.8867 28.8146 28.9235 28.7908C28.9038 28.8821 28.867 28.9059 28.7761 28.8861Z" fill="#242424"/>
<path d="M19.3774 34.9602C19.2749 35.2882 18.4231 35.7078 18.1334 35.581C17.9582 35.511 17.9173 35.4066 17.9502 35.2545C18.0593 34.896 18.8439 34.4936 19.1942 34.6336C19.3391 34.697 19.4471 34.7843 19.3774 34.9602Z" fill="#242424"/>
<path d="M16.5868 32.3153C16.4752 32.8324 15.9197 33.3484 15.6537 33.2586C15.3574 33.1623 15.4705 32.9321 15.5165 32.7192C15.6453 32.2695 15.8822 31.907 16.3865 31.9213C16.6722 31.9198 16.6131 32.1936 16.5868 32.3153Z" fill="#242424"/>
<path d="M27.1696 25.6064C26.8247 25.8817 26.4496 26.1503 26.0679 26.4494C26.0492 26.095 27.0535 25.2627 27.205 25.2957C27.2353 25.3023 27.259 25.3393 27.2827 25.3763C27.3776 25.5244 27.2433 25.5588 27.1696 25.6064Z" fill="#242424"/>
<path d="M37.2158 21.2332C36.4574 21.5139 35.7199 21.2577 35.0036 21.1973C35.1681 21.1694 35.309 21.1045 35.467 21.1071C36.0556 21.1716 36.6206 21.1991 37.2158 21.2332Z" fill="#242424"/>
<path d="M33.6714 22.3725C32.9499 22.6294 32.3467 22.3388 31.7964 22.5374C32.319 22.1735 32.9142 22.2076 33.6714 22.3725Z" fill="#242424"/>
<path d="M24.9908 26.8839C24.9291 27.3164 24.5762 27.3351 24.1945 27.6341C24.3733 27.0998 24.6722 27.0374 24.9908 26.8839Z" fill="#242424"/>
<path d="M22.4268 29.0638C22.4016 28.7398 22.5728 28.6816 22.7742 28.6299C22.8362 28.9301 22.6111 28.9447 22.4268 29.0638Z" fill="#242424"/>
<path d="M23.6718 27.9973C23.6769 27.6799 23.8481 27.6216 24.0429 27.6004C24.0747 27.8939 23.8733 27.9456 23.6718 27.9973Z" fill="#242424"/>
<path d="M19.5562 31.7828C19.5325 31.7458 19.5088 31.7088 19.4851 31.6717C19.5048 31.5805 19.5245 31.4892 19.6588 31.4548C19.7259 31.4375 19.78 31.4812 19.7668 31.542C19.7643 31.7007 19.6603 31.7417 19.5562 31.7828Z" fill="#242424"/>
<path d="M20.1247 31.2062C20.105 31.2975 20.0853 31.3887 19.951 31.4232C19.8838 31.4404 19.8298 31.3968 19.8429 31.336C19.8455 31.1773 19.9495 31.1362 20.0535 31.0952C20.0772 31.1322 20.101 31.1692 20.1247 31.2062Z" fill="#242424"/>
<path d="M20.7243 30.6359C20.698 30.7576 20.6006 30.7682 20.5335 30.7854C20.5335 30.7854 20.4926 30.681 20.5057 30.6201C20.5254 30.5289 20.6229 30.5182 20.69 30.501C20.7203 30.5076 20.7006 30.5989 20.7243 30.6359Z" fill="#242424"/>
<path d="M23.1294 28.4526C23.1032 28.5743 23.0295 28.6219 22.9386 28.6021C22.9083 28.5955 22.8977 28.4977 22.9043 28.4673C22.924 28.376 22.9977 28.3284 23.0886 28.3481C23.0951 28.3177 23.1057 28.4156 23.1294 28.4526Z" fill="#242424"/>
<path d="M21.0386 30.3542C21.0189 30.4454 20.9518 30.4627 20.8477 30.5037C20.8306 30.4363 20.8069 30.3992 20.82 30.3384C20.8397 30.2471 20.9134 30.1995 21.0043 30.2193C21.0109 30.1889 21.0517 30.2933 21.0386 30.3542Z" fill="#242424"/>
<path d="M22.3096 29.1661L22.2965 29.2269C22.2965 29.2269 22.2899 29.2573 22.2596 29.2508C22.2227 29.2746 22.1859 29.2984 22.1556 29.2918C22.0647 29.272 22.0779 29.2112 22.091 29.1503C22.1107 29.0591 22.1541 29.0048 22.2516 28.9942C22.2516 28.9942 22.2516 28.9942 22.2819 29.0008C22.2819 29.0008 22.2819 29.0008 22.3122 29.0074C22.3122 29.0074 22.3122 29.0074 22.3056 29.0378C22.3056 29.0378 22.3056 29.0378 22.299 29.0682C22.3162 29.1357 22.3162 29.1357 22.3096 29.1661Z" fill="#242424"/>
<path d="M21.3662 30.0114C21.3596 30.0418 21.3596 30.0418 21.3531 30.0722C21.3465 30.1027 21.3465 30.1027 21.3096 30.1265L21.2728 30.1503C21.2425 30.1437 21.2359 30.1741 21.2056 30.1675C21.1148 30.1477 21.1279 30.0869 21.141 30.026C21.1607 29.9348 21.2042 29.8806 21.3016 29.8699C21.3016 29.8699 21.3016 29.8699 21.3319 29.8765C21.3319 29.8765 21.3319 29.8765 21.3622 29.8831C21.3622 29.8831 21.3622 29.8831 21.3556 29.9135C21.3556 29.9135 21.3556 29.9135 21.349 29.944C21.3793 29.9506 21.3728 29.981 21.3662 30.0114Z" fill="#242424"/>
<path d="M21.8411 29.5739C21.8214 29.6651 21.778 29.7194 21.6806 29.73C21.5831 29.7406 21.6028 29.6494 21.6094 29.6189C21.5988 29.5211 21.6725 29.4734 21.77 29.4628C21.874 29.4218 21.8174 29.5369 21.8411 29.5739Z" fill="#242424"/>
<path d="M34.3674 21.7914C34.324 21.8457 34.274 21.9303 34.2306 21.9846C34.1937 22.0084 34.1094 21.9582 34.1528 21.904C34.1963 21.8497 34.2463 21.7651 34.2897 21.7108C34.3331 21.6566 34.3871 21.7002 34.3674 21.7914Z" fill="#242424"/>
<path d="M20.1247 31.2062C20.101 31.1692 20.0772 31.1322 20.0535 31.0952C20.1878 31.0607 20.1495 30.7976 20.3116 30.9284C20.3721 30.9416 20.2655 31.1414 20.1247 31.2062Z" fill="#242424"/>
<path d="M19.5562 31.7828C19.4891 31.8 19.4263 31.9458 19.3551 31.8348C19.3077 31.7608 19.3877 31.6824 19.4851 31.6717C19.5088 31.7088 19.5325 31.7458 19.5562 31.7828Z" fill="#242424"/>
<path d="M31.5625 22.7406C31.5256 22.7644 31.4953 22.7578 31.4585 22.7816C31.465 22.7512 31.4413 22.7142 31.4479 22.6838C31.4544 22.6534 31.5282 22.6057 31.5282 22.6057C31.619 22.6255 31.6059 22.6863 31.5625 22.7406Z" fill="#242424"/>
<path d="M20.0684 25.3016C20.0206 24.4949 19.5594 23.6937 19.6762 22.8592C19.8517 23.6618 20.2892 24.426 20.0684 25.3016Z" fill="#242424"/>
<path d="M20.7605 24.5926C20.6576 24.1879 20.585 23.7899 20.4887 23.3549C20.7562 23.7316 20.9565 24.1256 20.7605 24.5926Z" fill="#242424"/>
<path d="M27.3446 33.607C26.5374 33.5267 26.0433 32.8776 25.3558 32.5368C26.1564 32.6474 26.6308 33.3878 27.3446 33.607Z" fill="#242424"/>
<path d="M19.2894 3.66812C18.3666 4.09869 17.4808 4.63102 16.5876 5.143C14.466 6.38208 12.4792 7.80239 10.6697 9.45754C8.96689 11.0274 7.49472 12.7895 6.19044 14.6976C5.35158 15.9276 4.54778 17.191 3.88968 18.5393C3.33998 19.6172 2.8456 20.721 2.40655 21.8506C1.91055 23.1394 1.44962 24.4616 1.1122 25.8076C0.565692 27.9683 0.19062 30.1584 0.069963 32.4167C-0.0201268 34.0641 -0.0291633 35.6818 0.0779118 37.3031C0.200098 39.2186 0.600503 41.0783 0.988042 42.9657C1.22539 44.1241 1.73356 45.2062 2.05196 46.3349C2.37968 47.5524 3.05736 48.5955 3.60058 49.7109C4.07916 50.7116 4.60567 51.7178 5.21869 52.6462C6.98765 55.3648 9.08244 57.7795 11.5436 59.8753C13.466 61.4999 15.5264 62.9354 17.7559 64.0783C19.2239 64.8317 20.723 65.4813 22.2736 66.0198C24.5138 66.8129 26.8219 67.3504 29.185 67.6603C31.0688 67.9152 32.9819 67.9979 34.8986 67.964C35.5804 67.9446 36.2736 68.0826 36.9718 67.9188C36.9644 67.8985 36.9496 67.8578 36.9422 67.8374C36.3894 67.8326 35.8197 67.7185 35.2723 67.6655C34.4541 67.6888 33.6358 67.712 32.8082 67.6464C32.5779 67.7078 32.3531 67.721 32.0691 67.5715C32.3676 67.5082 32.6127 67.4875 32.8597 67.5353C33.6577 67.5195 34.4428 67.5315 35.2279 67.5434C35.7364 67.4262 36.2691 67.4385 36.7998 67.3823C38.3919 67.2137 39.9821 66.9766 41.5481 66.61C42.8765 66.2844 44.1624 65.9052 45.4316 65.4168C45.5127 65.3871 45.6011 65.3777 45.6121 65.2815C45.5844 65.2686 45.577 65.2482 45.5696 65.2279C44.7073 65.3826 43.9042 65.7001 43.064 65.9159C41.8646 66.2172 40.6578 66.4982 39.4417 66.6904C38.4025 66.8638 37.3372 66.8393 36.3109 66.9849C35.5277 67.0415 34.7445 67.098 33.9797 67.0786C32.8758 67.1373 31.8086 67.0443 30.7192 66.8902C31.8324 66.9203 32.9308 66.9096 34.044 66.9397C34.7866 66.898 35.5367 66.8767 36.2794 66.8351C37.7682 66.6351 39.2626 66.3871 40.7476 66.0502C41.9139 65.784 43.0451 65.4846 44.1743 65.1167C44.4378 65.0201 44.6883 64.9513 44.9665 64.8955C45.3737 64.8154 45.7642 64.6261 46.1897 64.4701C46.0569 64.3573 45.9906 64.4277 45.9299 64.45C45.1579 64.6639 44.4082 64.9387 43.6639 65.1655C41.5803 65.8141 39.4485 66.2036 37.2723 66.471C34.0347 66.8508 30.8019 66.6754 27.6312 66.039C25.325 65.5699 23.0353 64.9564 20.8961 63.8726C20.0238 63.4314 19.1258 63.0457 18.259 62.5563C15.867 61.2192 13.6719 59.6024 11.6736 57.7059C9.80809 55.9221 8.18932 53.9326 6.79699 51.7447C6.05467 50.587 5.34548 49.394 4.78553 48.1694C4.07956 46.6063 3.54117 44.9356 3.07097 43.263C2.95808 42.8892 2.777 42.5174 2.72491 42.1214C2.56668 40.8648 2.29975 39.625 2.18205 38.3536C1.8534 34.9224 2.00399 31.5462 2.79593 28.1654C3.14976 26.675 3.58657 25.2233 4.11923 23.7826C4.56923 22.5567 5.18519 21.4084 5.69051 20.2084C6.00476 19.4935 6.51264 18.8691 6.93753 18.206C7.86452 16.713 8.91695 15.3123 10.0874 13.9838C10.98 12.9646 11.8726 11.9455 12.9201 11.1002C14.7944 9.55969 16.7811 8.13938 18.9545 7.04275C20.0043 6.51947 20.9969 5.90187 22.1262 5.53396C23.4858 5.10469 24.8231 4.61436 26.1975 4.22579C27.1721 3.93767 28.1393 3.6292 29.1601 3.53166C30.2013 3.4267 31.2608 3.24583 32.3093 3.16122C34.2018 2.9978 36.0927 3.01948 37.9894 3.2466C39.2152 3.39683 40.4207 3.55449 41.6301 3.84911C42.4817 4.04424 43.3334 4.23936 44.1871 4.50296C45.1642 4.79047 46.1487 5.09834 47.0689 5.5451C47.2404 5.5745 47.4082 5.72051 47.5961 5.60551C47.0445 5.16199 46.388 4.87223 45.7444 4.55468C45.2742 4.33501 44.8114 4.1357 44.3411 3.91603C44.2932 3.91054 44.2453 3.90505 44.2508 3.85692C44.2231 3.844 44.2231 3.84399 44.2157 3.82364C44.236 3.81621 44.2434 3.83657 44.2636 3.82914C44.3116 3.83463 44.3392 3.84755 44.3871 3.85304C45.6737 3.98098 46.8612 4.46813 48.0284 4.9627C49.12 5.43886 50.1859 5.97058 51.2058 6.56529C52.08 7.07504 52.9616 7.60514 53.7898 8.17788C54.5553 8.70443 55.2951 9.28653 56.0017 9.90385C56.1271 9.99623 56.295 10.1422 56.4497 10.0625C56.6173 9.95489 56.6266 10.0437 56.7318 10.1435C57.195 10.5964 57.6324 11.1049 58.2078 11.4244C58.2483 11.4095 58.2888 11.3947 58.3496 11.3724C57.2423 10.0948 55.9232 9.05623 54.6042 8.01768C53.1948 6.92001 51.7211 5.96124 50.1148 5.14331C49.3256 4.74081 48.5363 4.3383 47.7084 4.01914C46.6869 3.60952 45.6727 3.22026 44.6458 2.85877C42.612 2.12837 40.441 2.0941 38.3468 1.63956C37.5707 1.46285 36.7672 1.52679 35.9619 1.52225C34.3916 1.49832 32.8159 1.52252 31.2347 1.59485C30.328 1.62746 29.4197 1.84516 28.5169 2.01473C27.1461 2.28669 25.7807 2.51052 24.4414 2.93237C22.5476 3.53445 20.7258 4.27155 18.8542 4.93469C18.7731 4.96441 18.7197 5.00705 18.6461 5.05712C17.9996 5.36333 17.3328 5.67698 16.6255 6.00548C16.7358 5.80359 16.8796 5.82007 16.9938 5.75514C18.3067 4.88171 19.7361 4.2654 21.1858 3.64167C21.8802 3.34094 22.6116 3.14197 23.3282 2.9023C24.0725 2.67555 24.8167 2.4488 25.561 2.22205C25.8926 2.12353 26.2168 2.00467 26.5559 1.92651C27.431 1.74401 28.3265 1.55409 29.2239 1.43265C30.4068 1.27568 31.5879 1.05023 32.7857 0.933962C33.3846 0.875828 33.9799 0.93431 34.5862 0.896528C35.0967 0.847761 35.6164 0.887827 36.1436 0.948243C36.9306 1.02869 37.7453 1.12206 38.5305 1.13402C39.8887 1.14342 41.1628 1.55271 42.4789 1.76206C43.3084 1.89613 44.0958 2.23016 44.8941 2.46792C45.9191 2.76093 46.9258 3.12984 47.8994 3.53396C50.4625 4.64683 52.8565 6.05236 55.0886 7.77089C57.2506 9.42288 59.201 11.3139 60.8992 13.4588C62.243 15.1341 63.4266 16.9372 64.4021 18.8628C64.9878 20.0318 65.5937 21.1934 66.0173 22.4219C66.1874 22.89 66.3576 23.358 66.5203 23.8058C66.5608 23.7909 66.5811 23.7835 66.6216 23.7686C66.4277 23.4246 66.4235 23.034 66.2904 22.6677C66.0221 21.8666 65.6195 21.1379 65.3512 20.3368C65.1885 19.8891 64.9373 19.4507 64.7138 19.0253C64.4902 18.5998 64.2262 18.1893 64.0763 17.7138C63.5832 16.9259 63.1178 16.151 62.6248 15.3631C62.2887 14.8175 61.8458 14.3572 61.5705 13.7893C61.3418 13.6656 61.1996 13.464 61.0536 13.1255C61.3727 13.3083 61.5148 13.5099 61.6165 13.7263C62.2588 14.4825 62.7666 15.3111 63.3353 16.1174C63.6768 16.6148 63.9502 17.1142 64.2181 17.6618C64.844 18.5624 65.2949 19.5502 65.7661 20.5306C66.0636 21.1595 66.3409 21.7959 66.6532 22.4655C66.721 22.21 66.6471 22.0065 66.5934 21.7956C65.9662 19.8807 65.0701 18.1105 64.0525 16.3849C62.5068 13.8381 60.6738 11.512 58.5481 9.45457C57.4115 8.34916 56.1957 7.34194 54.8934 6.41257C53.3402 5.29843 51.7099 4.35096 50.0206 3.49427C48.6228 2.80749 47.1864 2.20405 45.6985 1.71173C44.1074 1.18808 42.485 0.768114 40.8518 0.444411C39.836 0.24024 38.7891 0.139759 37.7367 0.0874092C35.8567 -0.0305307 33.9935 -0.0392848 32.1009 0.12413C31.4136 0.191629 30.7169 0.170291 30.0556 0.435805C30.0334 0.374753 29.9855 0.369261 29.9173 0.371198C29.3332 0.470032 28.7472 0.50039 28.1779 0.639926C27.0596 0.91157 25.956 1.22391 24.8727 1.52882C22.848 2.08665 21.0613 2.85704 19.2894 3.66812ZM0.874424 30.2075C0.741562 31.5477 0.581037 32.8751 0.536626 34.2059C0.529546 34.4391 0.522466 34.6724 0.522783 34.9259C0.552372 35.0073 0.5543 35.0758 0.488041 35.1462C0.543019 36.3715 0.590599 37.5764 0.665839 38.7942C0.867495 39.4121 0.851722 40.0637 0.992588 40.7039C1.07782 41.0647 1.09486 41.4275 1.20035 41.7809C0.791884 40.8467 0.762954 39.8195 0.605048 38.8165C0.42688 37.8209 0.385087 36.8215 0.391217 35.8275C0.398297 35.5943 0.405377 35.3611 0.412458 35.1278C0.417926 35.0797 0.403131 35.039 0.408599 34.9909C0.351694 33.6972 0.50675 32.418 0.661803 31.1388C0.707482 30.8222 0.657311 30.4947 0.826498 30.202C0.820713 29.9966 0.835191 29.7837 0.932651 29.6096C0.98636 29.8205 0.964486 30.0131 0.874424 30.2075ZM1.07579 29.1189C1.07225 29.2355 1.10377 29.3854 0.956455 29.4856C0.949058 29.4652 0.934263 29.4245 0.926866 29.4042C0.919469 29.3838 0.919468 29.3838 0.919468 29.3838C0.912071 29.3635 0.904674 29.3431 0.91754 29.3153C0.910143 29.295 0.910142 29.295 0.923008 29.2672C0.915611 29.2468 0.935873 29.2394 0.935873 29.2394C0.935873 29.2394 0.928475 29.2191 0.948739 29.2116C0.948739 29.2116 0.941344 29.1913 0.961608 29.1839C0.95421 29.1635 0.974473 29.1561 0.974473 29.1561C0.967076 29.1357 0.987338 29.1283 0.987338 29.1283C1.0076 29.1209 1.0002 29.1005 1.02047 29.0931C1.01629 28.7025 1.10797 28.323 1.25496 27.9693C1.2794 28.3524 1.16746 28.7394 1.07579 29.1189ZM1.89507 25.4975C1.95039 25.5234 1.95779 25.5437 1.94492 25.5715C1.94492 25.5715 1.95232 25.5918 1.93206 25.5993C1.93206 25.5993 1.93945 25.6196 1.91919 25.627L1.90632 25.6548C1.88606 25.6623 1.89346 25.6826 1.8732 25.69C1.8732 25.69 1.85293 25.6975 1.86033 25.7178C1.84199 25.7937 1.796 25.8567 1.7648 25.9604C1.65223 25.8402 1.71848 25.7698 1.77735 25.679C1.81594 25.5957 1.86001 25.4642 1.89507 25.4975ZM3.92696 20.3476C4.01734 20.4067 3.95108 20.4771 3.92534 20.5327C3.91248 20.5604 3.89962 20.5882 3.88675 20.616C3.87388 20.6438 3.84815 20.6993 3.83528 20.7271C3.82242 20.7549 3.80955 20.7827 3.78382 20.8382C3.77095 20.866 3.73782 20.9012 3.73235 20.9494C3.71949 20.9771 3.69376 21.0327 3.68089 21.0605C3.66802 21.0882 3.66256 21.1364 3.62943 21.1716C3.61656 21.1994 3.59083 21.2549 3.57796 21.2827C3.5651 21.3105 3.53197 21.3457 3.5265 21.3938C3.51363 21.4216 3.50077 21.4494 3.4879 21.4772C3.47503 21.5049 3.4493 21.5605 3.43644 21.5883C3.42357 21.6161 3.4107 21.6438 3.39784 21.6716C3.38497 21.6994 3.3721 21.7272 3.34637 21.7827C3.33351 21.8105 3.32064 21.8383 3.29491 21.8939C3.28204 21.9216 3.28204 21.9216 3.26918 21.9494C3.25631 21.9772 3.25631 21.9772 3.24345 22.005C3.23058 22.0328 3.20485 22.0883 3.19198 22.1161C3.17911 22.1439 3.16625 22.1717 3.14052 22.2272C3.12765 22.255 3.11478 22.2828 3.08905 22.3383C3.07618 22.3661 3.06332 22.3939 3.03759 22.4495C3.02472 22.4772 3.01186 22.505 2.98613 22.5606C2.97326 22.5884 2.96039 22.6161 2.93466 22.6717C2.92179 22.6995 2.88866 22.7347 2.8832 22.7828C2.87033 22.8106 2.85746 22.8384 2.83173 22.8939C2.82079 22.9902 2.83752 23.0994 2.75839 23.1976C2.74553 23.2254 2.73266 23.2531 2.71979 23.2809C2.70693 23.3087 2.69406 23.3365 2.66833 23.392C2.65546 23.4198 2.6426 23.4476 2.61687 23.5032C2.604 23.5309 2.59113 23.5587 2.5654 23.6143C2.55254 23.6421 2.53967 23.6698 2.51394 23.7254C2.51586 23.7939 2.49013 23.8494 2.49206 23.9179C2.47919 23.9457 2.46633 23.9735 2.45346 24.0013C2.4406 24.029 2.43513 24.0772 2.402 24.1124C2.38913 24.1402 2.37627 24.1679 2.35053 24.2235C2.35246 24.292 2.32673 24.3475 2.32866 24.416C2.31579 24.4438 2.30293 24.4716 2.29006 24.4994C2.27719 24.5271 2.26433 24.5549 2.25886 24.6031C2.22026 24.6864 2.18166 24.7697 2.15046 24.8734C2.14499 24.9216 2.15239 24.9419 2.14692 24.99C2.13406 25.0178 2.12859 25.0659 2.09546 25.1012C2.08259 25.1289 2.06973 25.1567 2.06426 25.2049C2.05332 25.3011 2.07744 25.4306 1.99092 25.5085C1.97805 25.5363 1.92466 25.5789 1.92466 25.5789C1.84907 25.5605 1.89507 25.4975 1.90794 25.4697C1.93914 25.366 1.95747 25.2901 1.96841 25.1939C1.98128 25.1661 1.98674 25.118 2.01987 25.0827C2.03274 25.055 2.03821 25.0068 2.07134 24.9716C2.08421 24.9438 2.11733 24.9086 2.1302 24.8809C2.09321 24.7791 2.12441 24.6754 2.19067 24.605C2.20354 24.5772 2.20901 24.5291 2.24214 24.4939C2.255 24.4661 2.26047 24.418 2.27334 24.3902C2.27881 24.3421 2.29714 24.2661 2.30261 24.218C2.31548 24.1902 2.32094 24.1421 2.35407 24.1069C2.36694 24.0791 2.37981 24.0513 2.40554 23.9958C2.41841 23.968 2.43127 23.9402 2.457 23.8847C2.43481 23.8236 2.43288 23.7551 2.48628 23.7125C2.49914 23.6847 2.50461 23.6366 2.53774 23.6014C2.55061 23.5736 2.56347 23.5458 2.5892 23.4902C2.61494 23.4347 2.61494 23.4347 2.64067 23.3791C2.65354 23.3513 2.68666 23.3161 2.69213 23.268C2.705 23.2402 2.71047 23.1921 2.7436 23.1569C2.75453 23.0606 2.79313 22.9773 2.80407 22.881C2.81694 22.8532 2.85006 22.818 2.85553 22.7699C2.8684 22.7421 2.90153 22.7069 2.907 22.6588C2.91987 22.631 2.93273 22.6032 2.95846 22.5477C2.97133 22.5199 2.98419 22.4921 3.00993 22.4365C3.02279 22.4088 3.02826 22.3606 3.06139 22.3254C3.07426 22.2976 3.07972 22.2495 3.11285 22.2143C3.12572 22.1865 3.15885 22.1513 3.16432 22.1032C3.17719 22.0754 3.18265 22.0273 3.21578 21.9921C3.22865 21.9643 3.24152 21.9365 3.26725 21.8809C3.28011 21.8532 3.28558 21.805 3.31871 21.7698C3.33158 21.742 3.36471 21.7068 3.37018 21.6587C3.38304 21.6309 3.39591 21.6031 3.42164 21.5476C3.43451 21.5198 3.46764 21.4846 3.47311 21.4365C3.48597 21.4087 3.49884 21.3809 3.52457 21.3254L3.57603 21.2142C3.5889 21.1864 3.59437 21.1383 3.6275 21.1031C3.64036 21.0753 3.64583 21.0272 3.67896 20.992C3.69183 20.9642 3.72496 20.929 3.73043 20.8809C3.74329 20.8531 3.74876 20.805 3.78189 20.7698C3.79476 20.742 3.80762 20.7142 3.83336 20.6586C3.84622 20.6308 3.85169 20.5827 3.88482 20.5475C3.89769 20.5197 3.91055 20.492 3.93629 20.4364C3.84044 20.4254 3.87903 20.3421 3.92696 20.3476ZM5.49371 17.5822C5.5233 17.6636 5.46251 17.6859 5.40912 17.7285C5.39625 17.7563 5.39078 17.8044 5.35765 17.8396C5.34479 17.8674 5.31166 17.9026 5.29879 17.9304C5.31359 17.9711 5.30072 17.9989 5.24733 18.0415C5.26405 18.1507 5.17753 18.2285 5.10387 18.2786C5.1132 18.3674 5.08747 18.423 5.01381 18.4731C5.00094 18.5008 4.98808 18.5286 4.96782 18.5361C4.89223 18.5176 4.94562 18.475 4.95849 18.4472C4.95109 18.4269 4.96396 18.3991 4.96396 18.3991L4.95656 18.3787L4.96943 18.351C4.98229 18.3232 4.99516 18.2954 5.02829 18.2602L5.04855 18.2528C5.04115 18.2324 5.05402 18.2046 5.04662 18.1843C5.03923 18.1639 5.05949 18.1565 5.05209 18.1361L5.06496 18.1084C5.09069 18.0528 5.15148 18.0305 5.21967 18.0286C5.20487 17.9879 5.21034 17.9398 5.27113 17.9175C5.284 17.8897 5.28947 17.8416 5.29494 17.7934C5.3078 17.7656 5.34093 17.7304 5.3464 17.6823C5.34447 17.6138 5.34254 17.5453 5.43099 17.536C5.45865 17.5489 5.49371 17.5822 5.49371 17.5822ZM14.3833 8.04986C14.2306 8.19813 14.098 8.33897 13.888 8.39291C13.3007 8.86193 12.7208 9.3513 12.1334 9.82032C11.9807 9.96859 11.8279 10.1169 11.6751 10.2651C11.2168 10.7099 10.7787 11.1473 10.3129 11.5717C9.59502 12.2501 8.98229 13.0282 8.28657 13.7676C8.03826 14.1585 7.71983 14.4828 7.394 14.7867C7.3628 14.8904 7.32421 14.9738 7.22289 15.0109C7.21935 15.1275 7.15309 15.198 7.05917 15.2554C7.02797 15.3591 6.98937 15.4425 6.88806 15.4796C6.88451 15.5962 6.81825 15.6667 6.72433 15.7242C6.69313 15.8278 6.65454 15.9112 6.53296 15.9558C6.54775 15.9965 6.54228 16.0446 6.48149 16.0669C6.47795 16.1835 6.41169 16.2539 6.31777 16.3114C6.30137 16.4558 6.20198 16.5614 6.09519 16.6467C6.06399 16.7504 6.02539 16.8337 5.92408 16.8709C5.91121 16.8987 5.89835 16.9264 5.87261 16.982C5.85975 17.0098 5.84688 17.0376 5.82115 17.0931C5.82855 17.1135 5.80828 17.1209 5.81568 17.1412C5.81568 17.1412 5.82307 17.1616 5.80281 17.169C5.78995 17.1968 5.77708 17.2246 5.76422 17.2524C5.76422 17.2524 5.74395 17.2598 5.75135 17.2801C5.73109 17.2876 5.69796 17.3228 5.65003 17.3173C5.65743 17.3376 5.65743 17.3376 5.65743 17.3376C5.65743 17.3376 5.66483 17.358 5.64456 17.3654C5.64456 17.3654 5.6317 17.3932 5.61143 17.4006L5.59117 17.4081C5.57831 17.4358 5.5857 17.4562 5.57283 17.484C5.51012 17.4378 5.55804 17.4433 5.59117 17.4081C5.58378 17.3877 5.57638 17.3674 5.58924 17.3396C5.60211 17.3118 5.60211 17.3118 5.64264 17.2969C5.59085 17.1545 5.69217 17.1173 5.78609 17.0598C5.79896 17.0321 5.81182 17.0043 5.83755 16.9487C5.85042 16.9209 5.88355 16.8857 5.89642 16.858C5.89449 16.7895 5.89996 16.7413 5.93309 16.7061C5.96621 16.6709 6.00674 16.6561 6.06013 16.6134C6.04888 16.4561 6.12801 16.3579 6.28271 16.2781C6.27886 16.1412 6.35252 16.0911 6.4741 16.0465C6.4593 16.0058 6.46477 15.9577 6.52556 15.9354C6.47378 15.793 6.57509 15.7558 6.66901 15.6983C6.66516 15.5613 6.75908 15.5039 6.86039 15.4667C6.83627 15.3372 6.93019 15.2797 7.03151 15.2425C7.02411 15.2222 7.02411 15.2222 7.03698 15.1944C7.02958 15.174 7.04984 15.1666 7.04984 15.1666L7.07557 15.1111C7.07557 15.1111 7.09584 15.1036 7.08844 15.0833C7.10131 15.0555 7.14183 15.0406 7.1621 15.0332C7.18236 15.0258 7.18236 15.0258 7.20262 15.0184C7.19523 14.998 7.19523 14.998 7.20809 14.9702L7.2007 14.9499L7.22643 14.8943C7.2393 14.8665 7.25956 14.8591 7.27982 14.8517C7.30009 14.8442 7.30008 14.8442 7.32035 14.8368C7.34061 14.8294 7.35348 14.8016 7.37374 14.7942C7.38661 14.7664 7.39947 14.7386 7.41234 14.7108C7.45834 14.6478 7.48407 14.5923 7.53006 14.5293C7.54293 14.5015 7.56319 14.4941 7.57606 14.4663C7.58892 14.4385 7.60919 14.4311 7.64232 14.3959C7.65518 14.3681 7.67545 14.3607 7.69571 14.3533C7.74171 14.2903 7.81536 14.2402 7.86136 14.1772C7.91475 14.1346 7.98101 14.0641 8.02701 14.0012C8.06013 13.966 8.0804 13.9585 8.11353 13.9233C8.14666 13.8881 8.17979 13.8529 8.19265 13.8251C9.09423 12.6412 10.136 11.5905 11.2129 10.573C11.5056 10.3042 11.7706 10.0225 12.1334 9.82032C12.6635 9.25697 13.2656 8.82866 13.888 8.39291C13.9929 8.23915 14.1456 8.09088 14.3833 8.04986ZM56.9457 8.7736C56.9734 8.78652 57.0085 8.81979 57.0361 8.83272L57.0233 8.8605C56.9956 8.84757 56.9605 8.8143 56.9329 8.80138C56.9052 8.78846 56.8904 8.74775 56.8628 8.73483C56.9235 8.71254 56.9383 8.75325 56.9457 8.7736ZM56.7778 8.62759C56.7778 8.62759 56.8055 8.64051 56.7852 8.64794C56.7724 8.67572 56.7724 8.67572 56.7447 8.6628C56.7373 8.64244 56.7576 8.63502 56.7778 8.62759C56.7704 8.60723 56.7576 8.63502 56.7778 8.62759ZM56.7077 8.56104C56.5032 8.56685 56.4459 8.47253 56.3388 8.30423C56.5379 8.34655 56.608 8.41309 56.7077 8.56104ZM56.2391 8.15628C56.2668 8.1692 56.3092 8.22283 56.289 8.23026C56.2558 8.26546 56.241 8.22477 56.2134 8.21184L56.0603 8.10653C56.0731 8.07875 56.0731 8.07876 56.086 8.05098C56.1487 8.09717 56.1838 8.13044 56.2391 8.15628ZM41.0016 0.919905C42.6571 1.30466 44.3052 1.66907 45.9056 2.28155C46.409 2.46601 46.9123 2.65047 47.4083 2.81458C47.4913 2.85334 47.5871 2.86433 47.6241 2.96608C47.7254 2.92893 47.7882 2.97512 47.8177 3.05652C48.0905 3.04878 48.3266 3.19286 48.5553 3.31658C49.6138 3.82795 50.6649 4.31896 51.6848 4.91367C52.8578 5.61369 53.9848 6.37669 55.0786 7.17491C55.1764 7.25438 55.2945 7.32641 55.3591 7.44109C55.4421 7.47985 55.5582 7.48341 55.5418 7.6278C55.4 7.6798 55.3758 7.55027 55.3131 7.50408C54.509 7.06087 53.8301 6.45648 53.0591 5.97806C51.5098 5.00088 49.9421 4.09962 48.2568 3.37988C48.0908 3.30235 47.8991 3.28039 47.7717 3.11952C47.6833 3.12888 47.6077 3.11047 47.5505 3.01614C46.968 2.92988 46.4276 2.64368 45.8763 2.45373C44.4216 1.9262 42.9504 1.54306 41.4461 1.19514C41.1714 1.1344 40.917 1.06624 40.6147 0.99258C40.7749 0.864665 40.9058 0.908921 41.0016 0.919905ZM40.6202 0.944447C40.4729 1.04458 40.3696 1.01325 40.2165 0.907941C40.3915 0.820727 40.4947 0.852059 40.6202 0.944447ZM39.3648 0.712814C39.6282 0.616235 39.8643 0.76031 40.1187 0.828474C39.8424 0.952833 39.5861 0.81619 39.3391 0.768377C39.0737 0.796476 38.8193 0.728308 38.5649 0.660145C38.8486 0.556137 39.1159 0.59652 39.3648 0.712814ZM38.4266 0.595538C38.434 0.615888 38.434 0.615891 38.4211 0.643671L38.3935 0.630749C38.3935 0.630749 38.3861 0.610397 38.4063 0.602967C38.4063 0.602967 38.4063 0.602967 38.4266 0.595538ZM38.2645 0.654973C38.0249 0.627511 37.765 0.607479 37.5254 0.580017C37.5382 0.552237 37.5234 0.511536 37.5363 0.483756C37.7611 0.470516 38.021 0.490548 38.2645 0.654973ZM29.9267 0.460035C29.9543 0.472957 29.9746 0.465522 30.0022 0.478444C30.0299 0.491365 30.0502 0.48394 30.0778 0.496861C30.0981 0.489432 30.1257 0.502355 30.1663 0.487497C30.1865 0.480068 30.2142 0.492983 30.2142 0.492983C30.2345 0.485554 30.2547 0.478127 30.2621 0.498478C30.2824 0.491049 30.3101 0.50397 30.3506 0.489112C30.439 0.479745 30.5477 0.462949 30.6362 0.453583C30.6565 0.446153 30.7044 0.451647 30.7246 0.444218C30.7449 0.436789 30.7726 0.44971 30.7928 0.442281C30.8408 0.447774 30.8887 0.453263 30.9163 0.466185C31.3438 0.378653 31.7603 0.387388 32.2045 0.409039C31.7992 0.557623 31.3605 0.487836 30.9533 0.567939C30.2734 0.655789 29.5934 0.743644 28.9338 0.824065C28.9264 0.803715 28.9318 0.755583 28.917 0.714882C29.2412 0.596015 29.5876 0.538201 29.9267 0.460035Z" fill="#C83A2E"/>
<path d="M36.9219 67.8448C37.552 67.683 38.2136 67.6711 38.8659 67.5703C38.9746 67.5535 39.0907 67.557 39.2013 67.6087C39.2087 67.6291 39.2161 67.6494 39.2235 67.6698C38.4847 67.8484 37.707 67.8568 36.9312 67.9336C36.9441 67.9059 36.9367 67.8855 36.9219 67.8448Z" fill="white"/>
<path d="M47.5905 5.65347C47.5703 5.66087 47.5703 5.66087 47.5905 5.65347V5.65347Z" fill="white"/>
<path d="M46.8331 5.65482C46.8405 5.67508 46.8405 5.67508 46.8331 5.65482V5.65482Z" fill="white"/>
<path d="M44.5518 66.4081L47.9156 65.1749C46.7956 65.6316 45.6978 66.1494 44.5261 66.4637C44.539 66.4359 44.5518 66.4081 44.5518 66.4081Z" fill="white"/>
<path d="M62.3099 52.6556C62.2459 53.048 61.8338 53.6834 61.4305 53.9005C61.7267 53.5151 61.9953 53.1169 62.3099 52.6556Z" fill="white"/>
<path d="M63.2131 51.2867C63.2408 51.2997 63.2482 51.32 63.2684 51.3126C63.1234 51.7348 62.8879 52.0978 62.5695 52.4222C62.5418 52.4092 62.5418 52.4092 62.5142 52.3963C62.5399 52.3408 62.5454 52.2926 62.5711 52.2371C62.6226 52.1259 62.6612 52.0426 62.72 51.9518C62.8635 51.7147 63.042 51.5109 63.2131 51.2867Z" fill="white"/>
<path d="M65.7042 46.199C65.7319 46.2119 65.7319 46.2119 65.7595 46.2248C65.7396 46.4858 65.6569 46.7006 65.5263 46.9099C65.4803 46.9729 65.4417 47.0563 65.3957 47.1193C65.3681 47.1063 65.3681 47.1063 65.3404 47.0934C65.3584 46.7639 65.5553 46.4842 65.7042 46.199Z" fill="white"/>
<path d="M64.4985 48.9474C64.5261 48.9603 64.5261 48.9603 64.5538 48.9732C64.5409 49.001 64.5355 49.0491 64.5226 49.0769C64.4785 49.2084 64.4473 49.3121 64.3959 49.4232C64.383 49.451 64.3701 49.4788 64.337 49.514C64.3241 49.5418 64.291 49.577 64.2781 49.6047C64.2579 49.6122 64.2653 49.6325 64.245 49.64C64.2119 49.6752 64.1916 49.6826 64.1585 49.7178C64.1308 49.7049 64.1308 49.7049 64.1032 49.692C64.1913 49.429 64.2518 49.1532 64.4985 48.9474Z" fill="white"/>
<path d="M63.9414 50.0049C63.9691 50.0178 63.9691 50.0178 63.9968 50.0307C63.9582 50.1141 63.9472 50.2103 63.9086 50.2937C63.8443 50.4326 63.78 50.5715 63.6327 50.6716C63.605 50.6587 63.5847 50.6661 63.5773 50.6457C63.6803 50.4235 63.7205 50.1551 63.9414 50.0049Z" fill="white"/>
<path d="M63.5773 50.6457C63.605 50.6587 63.605 50.6587 63.6327 50.6716C63.5703 50.879 63.5078 51.0865 63.3274 51.2219C63.2997 51.2089 63.2997 51.2089 63.272 51.196C63.3344 50.9886 63.3692 50.7682 63.5773 50.6457Z" fill="white"/>
<path d="M44.5518 66.4081C44.5592 66.4285 44.5388 66.4361 44.5462 66.4565C44.1721 66.5014 43.8517 66.7572 43.4629 66.7614C43.4758 66.7336 43.4758 66.7336 43.4886 66.7058C43.8553 66.6406 44.1482 66.3716 44.5518 66.4081Z" fill="white"/>
<path d="M39.2214 67.6015C39.4572 67.492 39.7097 67.4917 39.9548 67.471L39.9493 67.5192C39.7042 67.5398 39.5128 67.7714 39.2436 67.6626C39.2362 67.6422 39.2288 67.6219 39.2214 67.6015Z" fill="white"/>
<path d="M45.5419 65.2147L46.474 64.873C46.4814 64.8933 46.4888 64.9137 46.4962 64.934L45.5843 65.2683C45.5567 65.2554 45.5493 65.2351 45.5419 65.2147Z" fill="white"/>
<path d="M58.2131 11.3761C58.3736 11.5018 58.5138 11.6349 58.5804 11.818C58.5602 11.8255 58.5676 11.8458 58.5676 11.8458C58.3739 11.7554 58.252 11.5464 58.0915 11.4207C58.1192 11.4336 58.18 11.4114 58.2131 11.3761Z" fill="white"/>
<path d="M43.4886 66.7058C43.4758 66.7336 43.4758 66.7336 43.4629 66.7614C43.1718 66.845 42.8883 66.9489 42.6175 67.0251C42.8864 66.8804 43.1531 66.6674 43.4886 66.7058Z" fill="white"/>
<path d="M65.9061 45.6179C65.9337 45.6308 65.9411 45.6512 65.9614 45.6437C65.9929 45.7936 65.9414 45.9047 65.8421 46.0104C65.8144 45.9974 65.8144 45.9974 65.7867 45.9845C65.7903 45.8679 65.8067 45.7235 65.9061 45.6179Z" fill="white"/>
<path d="M49.5087 6.88759C49.6727 6.89664 49.7576 7.00389 49.8425 7.11113C49.8297 7.13891 49.8297 7.13891 49.8168 7.16669C49.6859 7.12243 49.555 7.07817 49.483 6.94315C49.4756 6.9228 49.4884 6.89502 49.5087 6.88759Z" fill="white"/>
<path d="M60.5899 55.0622C60.6175 55.0751 60.6452 55.088 60.6526 55.1084C60.6397 55.1362 60.6397 55.1362 60.6269 55.1639C60.5754 55.2751 60.5091 55.3455 60.3747 55.4178C60.3615 55.192 60.5034 55.14 60.5899 55.0622Z" fill="white"/>
<path d="M61.1255 54.4508C61.0631 54.6582 60.9765 54.7361 60.8144 54.7955C60.864 54.6159 60.9505 54.5381 61.1255 54.4508Z" fill="white"/>
<path d="M62.5142 52.3963C62.5418 52.4092 62.5418 52.4092 62.5695 52.4222C62.5383 52.5258 62.5422 52.663 62.3856 52.6743C62.3338 52.5318 62.4 52.4612 62.5142 52.3963Z" fill="white"/>
<path d="M39.9548 67.471C40.0837 67.4468 40.2257 67.3948 40.3547 67.3706C40.2276 67.4633 40.108 67.5763 39.942 67.4988L39.9548 67.471Z" fill="white"/>
<path d="M59.3848 56.611L59.4125 56.6239C59.3462 56.6943 59.2874 56.7851 59.2211 56.8555C59.1545 56.6724 59.3112 56.6611 59.3848 56.611Z" fill="white"/>
<path d="M58.7531 57.2118C58.792 57.3821 58.6833 57.3988 58.6245 57.4896C58.5856 57.3194 58.7017 57.3229 58.7531 57.2118Z" fill="white"/>
<path d="M61.427 54.0175C61.4511 54.1471 61.3498 54.1842 61.2835 54.2546C61.2559 54.2417 61.2356 54.2491 61.2282 54.2288C61.2668 54.1455 61.2906 54.0214 61.427 54.0175Z" fill="white"/>
<path d="M66.1081 45.0363C66.1358 45.0492 66.1432 45.0695 66.1635 45.0621C66.1802 45.1713 66.1895 45.2601 66.103 45.338C66.0753 45.3251 66.0753 45.3251 66.0477 45.3121C66.0586 45.2159 66.0419 45.1067 66.1081 45.0363Z" fill="white"/>
<path d="M60.8088 54.8435C60.8053 54.9601 60.7114 55.0176 60.6654 55.0806C60.6377 55.0677 60.6101 55.0548 60.6027 55.0344C60.6487 54.9714 60.6522 54.8548 60.8088 54.8435Z" fill="white"/>
<path d="M60.3674 55.3974C60.3308 55.5492 60.3124 55.6252 60.176 55.629C60.1593 55.5198 60.233 55.4698 60.3674 55.3974Z" fill="white"/>
<path d="M61.2282 54.2288C61.2559 54.2417 61.2761 54.2343 61.2835 54.2546C61.2652 54.3306 61.2139 54.4414 61.1438 54.3748C61.0737 54.3083 61.1748 54.2714 61.2282 54.2288Z" fill="white"/>
<path d="M47.7841 5.7441C47.8854 5.70695 47.9481 5.75315 47.998 5.82712C47.9851 5.8549 47.9722 5.88268 47.9594 5.91046C47.9114 5.90497 47.8838 5.89205 47.8358 5.88656C47.8082 5.87364 47.7455 5.82744 47.7841 5.7441Z" fill="white"/>
<path d="M48.3394 6.32478C48.3597 6.31735 48.3873 6.33027 48.4076 6.32284C48.4426 6.35611 48.4703 6.36904 48.4851 6.40974C48.4722 6.43752 48.4722 6.43752 48.4594 6.4653C48.3635 6.45432 48.3616 6.38583 48.3394 6.32478Z" fill="white"/>
<path d="M58.5877 11.8385C58.6228 11.8718 58.6855 11.918 58.7205 11.9513C58.7077 11.9791 58.7077 11.9791 58.6874 11.9865C58.5989 11.9959 58.597 11.9274 58.5546 11.8737C58.5674 11.846 58.5674 11.846 58.5877 11.8385Z" fill="white"/>
<path d="M58.7205 11.9513C58.7759 11.9771 58.8184 12.0308 58.7778 12.0456C58.7244 12.0883 58.7225 12.0198 58.6874 11.9865C58.7077 11.9791 58.7003 11.9587 58.7205 11.9513Z" fill="white"/>
<path d="M47.998 5.82712C48.0735 5.84554 48.0959 5.90662 48.1181 5.96767C48.0978 5.9751 48.0775 5.98253 48.037 5.99739C48.002 5.96412 47.9743 5.95119 47.9392 5.91792C47.9724 5.88271 47.9851 5.8549 47.998 5.82712Z" fill="white"/>
<path d="M58.9722 56.9923L58.9931 56.9847L59.0007 57.0056L58.9722 56.9923Z" fill="white"/>
<path d="M58.8733 57.0984L58.8808 57.1189L58.8399 57.1339L58.8733 57.0984Z" fill="white"/>
<path d="M59.4181 56.5753C59.4256 56.5959 59.4125 56.6239 59.4125 56.6239L59.3848 56.611C59.4053 56.6035 59.4181 56.5753 59.4181 56.5753Z" fill="white"/>
<path d="M63.272 51.196C63.2997 51.2089 63.2997 51.2089 63.3274 51.2219C63.3145 51.2496 63.2891 51.3052 63.2762 51.333C63.2485 51.3201 63.2411 51.2997 63.2209 51.3071C63.2263 51.259 63.2592 51.2238 63.272 51.196Z" fill="white"/>
<path d="M46.7647 5.65626C46.7851 5.64877 46.813 5.6618 46.813 5.6618L46.8 5.68983C46.8 5.68983 46.7926 5.6693 46.7647 5.65626Z" fill="white"/>
<path d="M47.48 5.60211C47.5408 5.57982 47.5683 5.59242 47.5905 5.65347C47.5169 5.70354 47.4893 5.69094 47.48 5.60211Z" fill="white"/>
<path d="M47.5703 5.66125C47.5906 5.65383 47.5906 5.65383 47.5703 5.66125C47.6311 5.63897 47.6588 5.65189 47.6809 5.71295C47.6276 5.75558 47.5796 5.75009 47.5703 5.66125Z" fill="white"/>
<path d="M47.6809 5.71295C47.7417 5.69066 47.7693 5.70325 47.7915 5.7643C47.7179 5.81437 47.6829 5.78143 47.6809 5.71295Z" fill="white"/>
<path d="M63.9928 49.8937C64.0205 49.9066 64.0205 49.9066 64.0481 49.9196C64.0353 49.9473 64.0096 50.0029 63.9968 50.0307C63.9691 50.0178 63.9691 50.0178 63.9414 50.0049C63.9543 49.9771 63.9597 49.9289 63.9928 49.8937Z" fill="white"/>
<path d="M64.0315 49.8107C64.0592 49.8236 64.0592 49.8236 64.0868 49.8365C64.074 49.8643 64.0409 49.8995 64.0354 49.9476C64.0077 49.9347 64.0077 49.9347 63.9801 49.9218C64.0058 49.8662 64.0187 49.8384 64.0315 49.8107Z" fill="white"/>
<path d="M64.0831 49.6995C64.1107 49.7125 64.1107 49.7125 64.1384 49.7254C64.1255 49.7532 64.12 49.8013 64.0868 49.8365C64.0592 49.8236 64.0592 49.8236 64.0315 49.8107C64.0573 49.7551 64.0702 49.7273 64.0831 49.6995Z" fill="white"/>
<path d="M48.4778 6.38938C48.5055 6.4023 48.5534 6.40779 48.5884 6.44106C48.5756 6.46884 48.5627 6.49662 48.5627 6.49662C48.535 6.4837 48.5 6.45043 48.4521 6.44494C48.4521 6.44494 48.4649 6.41716 48.4778 6.38938Z" fill="white"/>
<path d="M48.5884 6.44106C48.6161 6.45398 48.6512 6.48715 48.6991 6.49264C48.6862 6.52042 48.6936 6.54077 48.6734 6.5482C48.6457 6.53528 48.6106 6.50211 48.5627 6.49662C48.5627 6.49662 48.5756 6.46884 48.5884 6.44106Z" fill="white"/>
<path d="M48.6789 6.50012C48.7065 6.51304 48.7416 6.54631 48.7895 6.5518C48.7767 6.57958 48.7767 6.57958 48.7638 6.60736C48.7361 6.59444 48.6882 6.58895 48.6531 6.55567C48.6734 6.54824 48.6863 6.52047 48.6789 6.50012Z" fill="white"/>
<path d="M48.7895 6.5518C48.8172 6.56472 48.8524 6.59788 48.9003 6.60337C48.8875 6.63115 48.8875 6.63116 48.8746 6.65894C48.847 6.64601 48.7989 6.64063 48.7638 6.60736C48.7564 6.58701 48.7693 6.55923 48.7895 6.5518Z" fill="white"/>
<path d="M48.8724 6.59024C48.9001 6.60317 48.948 6.60866 48.9757 6.62158C48.9628 6.64936 48.9628 6.64936 48.95 6.67714C48.9223 6.66422 48.8872 6.63095 48.8393 6.62546C48.867 6.63838 48.8798 6.61059 48.8724 6.59024Z" fill="white"/>
<path d="M48.983 6.64195C49.0107 6.65487 49.0107 6.65487 49.0384 6.66779C49.066 6.68071 49.066 6.68072 49.0937 6.69364C49.0808 6.72142 49.068 6.74919 49.068 6.74919C49.0403 6.73627 49.0126 6.72335 48.9573 6.69751C48.9702 6.66973 48.9904 6.6623 48.983 6.64195Z" fill="white"/>
<path d="M49.0937 6.69364C49.1213 6.70656 49.1566 6.7401 49.2045 6.74559C49.1917 6.77337 49.1917 6.77337 49.1788 6.80115C49.1511 6.78823 49.1233 6.77504 49.068 6.74919C49.0808 6.72141 49.0734 6.70107 49.0937 6.69364Z" fill="white"/>
<path d="M64.5296 48.844C64.5573 48.8569 64.5573 48.8569 64.5849 48.8698C64.5721 48.8976 64.5389 48.9328 64.5334 48.9809C64.5058 48.968 64.5058 48.968 64.4781 48.9551C64.5113 48.9199 64.5167 48.8718 64.5296 48.844Z" fill="white"/>
<path d="M49.1971 6.725C49.2248 6.73792 49.2599 6.77119 49.3078 6.77669C49.2949 6.80447 49.2949 6.80447 49.2821 6.83225C49.2544 6.81933 49.2267 6.80641 49.1714 6.78056C49.1714 6.78056 49.1843 6.75278 49.1971 6.725Z" fill="white"/>
<path d="M64.5885 48.753C64.6162 48.7659 64.6162 48.7659 64.6438 48.7788C64.631 48.8066 64.6181 48.8344 64.5924 48.8899C64.5647 48.877 64.5647 48.877 64.537 48.8641C64.5425 48.816 64.5756 48.7807 64.5885 48.753Z" fill="white"/>
<path d="M49.2874 6.78416C49.3151 6.79708 49.3501 6.83035 49.398 6.83585C49.3852 6.86363 49.3852 6.86363 49.3723 6.89141C49.3446 6.87849 49.2967 6.873 49.2617 6.83972C49.2819 6.83229 49.2948 6.80451 49.2874 6.78416Z" fill="white"/>
<path d="M64.6399 48.6417C64.6675 48.6546 64.6675 48.6546 64.6952 48.6676C64.6823 48.6953 64.6492 48.7305 64.6364 48.7583C64.6087 48.7454 64.6087 48.7454 64.581 48.7325C64.5939 48.7047 64.6068 48.6769 64.6399 48.6417Z" fill="white"/>
<path d="M49.398 6.83585C49.4257 6.84877 49.4736 6.85432 49.5087 6.88759C49.4958 6.91537 49.4958 6.91537 49.483 6.94315C49.4553 6.93023 49.4204 6.89702 49.3927 6.8841C49.3853 6.86374 49.3852 6.86363 49.398 6.83585Z" fill="white"/>
<path d="M64.6714 48.5379C64.699 48.5509 64.7064 48.5712 64.7267 48.5638C64.7138 48.5916 64.701 48.6193 64.6752 48.6749C64.6476 48.662 64.6476 48.662 64.6199 48.6491C64.6531 48.6138 64.6585 48.5657 64.6714 48.5379Z" fill="white"/>
<path d="M64.7229 48.4272C64.7506 48.4401 64.7506 48.4401 64.7783 48.453C64.7654 48.4808 64.7598 48.5286 64.7267 48.5638C64.699 48.5509 64.699 48.5509 64.6714 48.5379C64.7045 48.5027 64.7175 48.4753 64.7229 48.4272Z" fill="white"/>
<path d="M64.7815 48.3366C64.8091 48.3495 64.8091 48.3495 64.8368 48.3624C64.8239 48.3902 64.8111 48.418 64.7853 48.4735C64.7577 48.4606 64.7577 48.4606 64.73 48.4477C64.7355 48.3995 64.7483 48.3718 64.7815 48.3366Z" fill="white"/>
<path d="M64.8128 48.2326C64.8405 48.2456 64.8405 48.2456 64.8681 48.2585C64.8553 48.2863 64.8498 48.3344 64.8167 48.3696C64.789 48.3567 64.789 48.3567 64.7613 48.3438C64.7945 48.3086 64.7999 48.2604 64.8128 48.2326Z" fill="white"/>
<path d="M49.8425 7.11113C49.8702 7.12405 49.9128 7.1779 49.9128 7.1779C49.8797 7.21311 49.852 7.20018 49.8372 7.15948C49.8096 7.14656 49.8223 7.11856 49.8425 7.11113Z" fill="white"/>
<path d="M64.8717 48.1419C64.8994 48.1548 64.8994 48.1548 64.9271 48.1677C64.9142 48.1955 64.881 48.2307 64.8681 48.2585C64.8405 48.2456 64.8405 48.2456 64.8128 48.2326C64.8459 48.1974 64.8589 48.1697 64.8717 48.1419Z" fill="white"/>
<path d="M64.9232 48.0305C64.9509 48.0434 64.9509 48.0434 64.9786 48.0564C64.9657 48.0841 64.9325 48.1196 64.9271 48.1677C64.8994 48.1548 64.8994 48.1548 64.8717 48.1419C64.8772 48.0937 64.9104 48.0583 64.9232 48.0305Z" fill="white"/>
<path d="M64.9542 47.927C64.9819 47.9399 64.9893 47.9602 65.0095 47.9528C64.9967 47.9806 64.9967 47.9806 64.9838 48.0084C64.9709 48.0362 64.9709 48.0362 64.9581 48.0639C64.9304 48.051 64.9304 48.051 64.9028 48.0381C64.9285 47.9825 64.9414 47.9548 64.9542 47.927Z" fill="white"/>
<path d="M65.0058 47.8159C65.0334 47.8288 65.0334 47.8288 65.0611 47.8417C65.0482 47.8695 65.0427 47.9176 65.0095 47.9528C64.9819 47.9399 64.9819 47.9399 64.9542 47.927C64.9874 47.8918 65.0003 47.864 65.0058 47.8159Z" fill="white"/>
<path d="M65.0647 47.7252C65.0923 47.7381 65.0923 47.7381 65.12 47.7511C65.1071 47.7788 65.1016 47.827 65.0685 47.8622C65.0409 47.8493 65.0409 47.8493 65.0132 47.8363C65.0187 47.7882 65.0518 47.753 65.0647 47.7252Z" fill="white"/>
<path d="M65.116 47.6141C65.1437 47.627 65.1437 47.627 65.1713 47.6399C65.1585 47.6677 65.1457 47.6955 65.12 47.7511C65.0923 47.7381 65.0923 47.7381 65.0647 47.7252C65.0701 47.6771 65.0829 47.6493 65.116 47.6141Z" fill="white"/>
<path d="M65.1474 47.5104C65.1751 47.5234 65.1751 47.5234 65.2027 47.5363C65.1899 47.5641 65.1567 47.5993 65.1439 47.6271C65.1162 47.6141 65.1162 47.6141 65.0885 47.6012C65.1291 47.5864 65.1419 47.5586 65.1474 47.5104Z" fill="white"/>
<path d="M65.2063 47.4196C65.2339 47.4325 65.2413 47.4528 65.2616 47.4454C65.2487 47.4732 65.2156 47.5084 65.2101 47.5565C65.1825 47.5436 65.1825 47.5436 65.1548 47.5307C65.1805 47.4751 65.1934 47.4473 65.2063 47.4196Z" fill="white"/>
<path d="M65.2576 47.3084C65.2853 47.3214 65.2853 47.3214 65.3129 47.3343C65.3001 47.3621 65.2947 47.4102 65.2616 47.4454C65.2339 47.4325 65.2265 47.4121 65.2063 47.4196C65.2117 47.3714 65.2245 47.3436 65.2576 47.3084Z" fill="white"/>
<path d="M65.289 47.2045C65.3166 47.2174 65.3166 47.2175 65.3443 47.2304C65.3314 47.2582 65.326 47.3063 65.2928 47.3415C65.2652 47.3286 65.2652 47.3286 65.2375 47.3156C65.2706 47.2804 65.2761 47.2323 65.289 47.2045Z" fill="white"/>
<path d="M65.3477 47.1139C65.3754 47.1268 65.3754 47.1268 65.403 47.1397C65.3901 47.1675 65.3847 47.2156 65.3515 47.2509C65.3239 47.2379 65.3239 47.2379 65.2962 47.225C65.322 47.1694 65.3348 47.1417 65.3477 47.1139Z" fill="white"/>
<path d="M65.7355 46.0953C65.7632 46.1082 65.7631 46.1082 65.7908 46.1211C65.7779 46.1489 65.7448 46.1841 65.7393 46.2322C65.7117 46.2193 65.7117 46.2193 65.684 46.2064C65.7172 46.1712 65.73 46.1434 65.7355 46.0953Z" fill="white"/>
<path d="M65.794 46.0046C65.8217 46.0175 65.8217 46.0175 65.8493 46.0305C65.8365 46.0582 65.831 46.1064 65.7979 46.1416C65.7702 46.1287 65.7702 46.1287 65.7426 46.1157C65.748 46.0676 65.7812 46.0324 65.794 46.0046Z" fill="white"/>
<path d="M65.9577 45.5067C65.9854 45.5196 65.9854 45.5196 66.013 45.5325C66.0002 45.5603 65.9871 45.5882 65.9614 45.6437C65.9337 45.6308 65.9263 45.6105 65.9061 45.6179C65.9189 45.5901 65.932 45.5622 65.9577 45.5067Z" fill="white"/>
<path d="M66.0162 45.416C66.0439 45.429 66.0439 45.429 66.0716 45.4419C66.0587 45.4697 66.0532 45.5178 66.0201 45.553C65.9924 45.5401 65.9924 45.5401 65.9648 45.5272C65.9703 45.479 65.9831 45.4512 66.0162 45.416Z" fill="white"/>
<path d="M66.0477 45.3121C66.0753 45.3251 66.0753 45.3251 66.103 45.338C66.0901 45.3658 66.0569 45.401 66.0514 45.4491C66.0238 45.4362 66.0238 45.4362 65.9961 45.4232C66.0293 45.388 66.0348 45.3399 66.0477 45.3121Z" fill="white"/>
<path d="M66.1595 44.9253C66.1872 44.9382 66.1872 44.9382 66.2149 44.9511C66.202 44.9789 66.1966 45.0269 66.1635 45.0621C66.1358 45.0492 66.1284 45.0288 66.1081 45.0363C66.1413 45.0011 66.1467 44.9531 66.1595 44.9253Z" fill="white"/>
<path d="M66.2185 44.8343C66.2461 44.8472 66.2461 44.8472 66.2738 44.8601C66.2609 44.8879 66.2554 44.936 66.2223 44.9712C66.1947 44.9583 66.1946 44.9583 66.167 44.9454C66.1725 44.8973 66.2056 44.8621 66.2185 44.8343Z" fill="white"/>
<path d="M66.2643 44.7713C66.2717 44.7917 66.2664 44.8398 66.2738 44.8601C66.2461 44.8472 66.2461 44.8472 66.2185 44.8343C66.2313 44.8065 66.2441 44.7787 66.2643 44.7713Z" fill="white"/>
<path d="M29.9267 0.460035C30.2567 0.546612 30.599 0.351873 30.929 0.43845C30.9364 0.458801 30.9512 0.499501 30.9586 0.519852C30.2786 0.607702 29.5987 0.695549 28.939 0.77597C28.9242 0.735269 28.9371 0.707488 28.9223 0.666787C29.241 0.59605 29.5876 0.538201 29.9267 0.460035Z" fill="white"/>
<path d="M30.9586 0.519852C30.9512 0.499501 30.9364 0.458801 30.929 0.43845C31.3565 0.350919 31.7731 0.359642 32.2173 0.381293C31.7918 0.537306 31.3658 0.439749 30.9586 0.519852Z" fill="white"/>
<path d="M39.3648 0.712814C39.6282 0.616235 39.8643 0.76031 40.1187 0.828474C39.8424 0.952833 39.5861 0.81619 39.3391 0.768377C39.3593 0.760948 39.3722 0.733165 39.3648 0.712814Z" fill="white"/>
<path d="M38.2645 0.654973C38.0249 0.627511 37.765 0.607479 37.5254 0.580017C37.5382 0.552237 37.5234 0.511536 37.5363 0.483756C37.7611 0.470516 38.021 0.490548 38.2645 0.654973Z" fill="white"/>
<path d="M39.3391 0.768377C39.0737 0.796476 38.8193 0.728308 38.5649 0.660145C38.8357 0.583917 39.0955 0.603973 39.3721 0.733189C39.3721 0.733189 39.3593 0.760948 39.3391 0.768377Z" fill="white"/>
<path d="M56.0936 8.07068C56.0806 8.0987 56.0807 8.0987 56.0677 8.12673L56.0936 8.07068Z" fill="white"/>
<path d="M14.3833 8.04986C14.2306 8.19813 14.098 8.33897 13.888 8.39291C13.8603 8.37999 13.8602 8.37983 13.8326 8.36691C13.9927 8.23899 14.1456 8.09088 14.3833 8.04986Z" fill="white"/>
<path d="M1.0005 29.1003C0.987516 29.1283 0.987517 29.1283 0.967076 29.1358C0.987517 29.1283 1.0005 29.1003 1.0005 29.1003Z" fill="white"/>
<path d="M6.33058 16.2837C6.31417 16.4281 6.21478 16.5337 6.108 16.619C6.08034 16.606 6.08033 16.606 6.05267 16.5931C6.04142 16.4358 6.11315 16.3173 6.27525 16.2578C6.30291 16.2707 6.31031 16.2911 6.33058 16.2837Z" fill="white"/>
<path d="M40.2165 0.907941C40.3989 0.841078 40.4947 0.852059 40.6202 0.944447C40.4931 1.03715 40.3825 0.98547 40.2165 0.907941Z" fill="white"/>
<path d="M5.66267 17.2895C5.61089 17.1471 5.7122 17.1099 5.80612 17.0524C5.83378 17.0653 5.83378 17.0653 5.86144 17.0783C5.83024 17.182 5.76398 17.2524 5.66267 17.2895Z" fill="white"/>
<path d="M5.88901 16.8376C5.86489 16.7081 5.95875 16.6506 6.05267 16.5931C6.06007 16.6135 6.08034 16.606 6.108 16.619C6.09706 16.7152 6.03825 16.8059 5.93693 16.8431C5.91667 16.8505 5.91667 16.8505 5.88901 16.8376Z" fill="white"/>
<path d="M6.28271 16.2781C6.27886 16.1412 6.35252 16.0911 6.4741 16.0465C6.47056 16.1631 6.40425 16.2336 6.31033 16.2911C6.31033 16.2911 6.30298 16.2707 6.28271 16.2781Z" fill="white"/>
<path d="M6.52556 15.9354C6.47378 15.793 6.57509 15.7558 6.66901 15.6983C6.69667 15.7112 6.69667 15.7112 6.72433 15.7242C6.69313 15.8278 6.65454 15.9112 6.52556 15.9354Z" fill="white"/>
<path d="M5.04855 18.2528C5.04469 18.1158 5.11067 18.0455 5.23964 18.0213C5.25637 18.1305 5.16984 18.2083 5.09619 18.2584C5.07592 18.2658 5.07621 18.2657 5.04855 18.2528Z" fill="white"/>
<path d="M6.83999 15.474C6.81587 15.3444 6.90979 15.2869 7.0111 15.2498C7.03876 15.2627 7.03876 15.2627 7.06643 15.2756C7.03522 15.3793 6.99663 15.4627 6.89531 15.4998C6.86765 15.4869 6.86025 15.4666 6.83999 15.474Z" fill="white"/>
<path d="M6.86777 15.487C6.86423 15.6036 6.79797 15.674 6.70405 15.7315C6.67639 15.7186 6.67639 15.7186 6.64873 15.7057C6.64487 15.5687 6.73879 15.5112 6.81985 15.4815C6.86037 15.4667 6.86777 15.487 6.86777 15.487Z" fill="white"/>
<path d="M7.33862 14.7608C7.36628 14.7737 7.36634 14.7738 7.394 14.7867C7.3628 14.8904 7.32421 14.9738 7.22289 15.0109C7.19523 14.998 7.19517 14.9979 7.18777 14.9776C7.18037 14.9572 7.18037 14.9572 7.19324 14.9294L7.18584 14.9091L7.21157 14.8535C7.22444 14.8257 7.2447 14.8183 7.26497 14.8109C7.28523 14.8034 7.28523 14.8034 7.30549 14.796C7.30549 14.796 7.32575 14.7886 7.33862 14.7608Z" fill="white"/>
<path d="M7.22289 15.0109C7.21935 15.1275 7.15309 15.198 7.05917 15.2554C7.03151 15.2425 7.03134 15.2427 7.00368 15.2297C6.99983 15.0928 7.07348 15.0427 7.1674 14.9852C7.19507 14.9981 7.20263 15.0184 7.22289 15.0109Z" fill="white"/>
<path d="M5.36108 17.7229C5.35915 17.6544 5.35722 17.5859 5.44567 17.5765C5.46593 17.5691 5.49359 17.582 5.50099 17.6024C5.53058 17.6838 5.46979 17.7061 5.4164 17.7487C5.38874 17.7358 5.38134 17.7154 5.36108 17.7229Z" fill="white"/>
<path d="M4.95849 18.4472C4.94916 18.3584 4.99516 18.2954 5.04855 18.2528C5.07621 18.2657 5.07621 18.2657 5.10387 18.2786C5.1132 18.3674 5.08747 18.423 5.01381 18.4731C4.99355 18.4805 4.96589 18.4676 4.95849 18.4472Z" fill="white"/>
<path d="M2.40744 24.0644C2.40937 24.1329 2.38364 24.1884 2.38557 24.2569C2.38364 24.1884 2.40197 24.1125 2.40744 24.0644Z" fill="white"/>
<path d="M56.9457 8.7736C56.9734 8.78652 57.0085 8.81979 57.0361 8.83272L57.0233 8.8605C56.9956 8.84757 56.9605 8.8143 56.9329 8.80138C56.9403 8.82173 56.9457 8.7736 56.9457 8.7736Z" fill="white"/>
<path d="M38.3859 0.609814L38.4063 0.602967C38.4138 0.623497 38.4138 0.622851 38.4008 0.650875L38.3729 0.637839C38.3934 0.630345 38.3934 0.630343 38.3859 0.609814Z" fill="white"/>
<path d="M5.32237 17.8063C5.33524 17.7785 5.36837 17.7433 5.37383 17.6952C5.40149 17.7081 5.4015 17.7081 5.42916 17.721C5.41629 17.7488 5.41082 17.7969 5.37769 17.8321C5.35003 17.8192 5.32977 17.8266 5.32237 17.8063Z" fill="white"/>
<path d="M5.35765 17.8396C5.34479 17.8674 5.31166 17.9026 5.29879 17.9304C5.31166 17.9026 5.31699 17.8545 5.32985 17.8267C5.32985 17.8267 5.35026 17.8193 5.35765 17.8396Z" fill="white"/>
<path d="M3.1073 22.2625C3.09443 22.2903 3.08156 22.318 3.05583 22.3736C3.08896 22.3384 3.10183 22.3106 3.1073 22.2625Z" fill="white"/>
<path d="M5.29879 17.9304C5.31359 17.9711 5.30812 18.0192 5.24733 18.0415C5.22514 17.9805 5.238 17.9527 5.29879 17.9304Z" fill="white"/>
<path d="M3.16601 22.1718C3.15315 22.1996 3.14028 22.2274 3.11455 22.283C3.12002 22.2348 3.15315 22.1996 3.16601 22.1718Z" fill="white"/>
<path d="M44.1144 3.86076C44.107 3.84023 44.0865 3.84772 44.0791 3.82719C44.107 3.84023 44.107 3.84023 44.1144 3.86076Z" fill="white"/>
<path d="M44.1271 3.83312C44.175 3.83861 44.2028 3.85143 44.2508 3.85692C44.2379 3.8847 44.2249 3.91258 44.2249 3.91258C44.1641 3.93487 44.1364 3.92195 44.1271 3.83312Z" fill="white"/>
<path d="M5.61143 17.4006C5.59845 17.4287 5.60611 17.4487 5.59313 17.4767C5.52986 17.4301 5.57055 17.4156 5.61143 17.4006Z" fill="white"/>
<path d="M2.45875 23.9531C2.44588 23.9809 2.43318 24.0088 2.40744 24.0644C2.42031 24.0366 2.44588 23.9809 2.45875 23.9531Z" fill="white"/>
<path d="M2.4899 23.8496C2.47703 23.8774 2.47157 23.9255 2.43844 23.9607C2.47157 23.9255 2.48443 23.8977 2.4899 23.8496Z" fill="white"/>
<path d="M5.60368 17.3802C5.58889 17.3395 5.59436 17.2914 5.65515 17.2691C5.67734 17.3302 5.64421 17.3654 5.60368 17.3802Z" fill="white"/>
<path d="M5.8855 16.9542C5.87264 16.982 5.85977 17.0098 5.83404 17.0653C5.80638 17.0524 5.80638 17.0524 5.77872 17.0395C5.79158 17.0117 5.80445 16.9839 5.83018 16.9284C5.85784 16.9413 5.8855 16.9542 5.8855 16.9542Z" fill="white"/>
<path d="M56.2391 8.15628C56.2668 8.1692 56.3092 8.22283 56.289 8.23026C56.2558 8.26546 56.241 8.22477 56.2134 8.21184C56.2336 8.20442 56.2262 8.18406 56.2391 8.15628Z" fill="white"/>
<path d="M56.7575 8.63449C56.7779 8.627 56.8057 8.64044 56.7852 8.64794C56.7797 8.69649 56.7801 8.69636 56.7447 8.6628C56.7373 8.64227 56.7575 8.63449 56.7575 8.63449Z" fill="white"/>
<path d="M56.9403 8.82181C56.9126 8.80888 56.8978 8.76818 56.8701 8.75526C56.9033 8.72005 56.9181 8.76075 56.9531 8.79402C56.9457 8.77367 56.9403 8.82181 56.9403 8.82181Z" fill="white"/>
<path d="M2.77122 23.1696C2.75836 23.1974 2.74553 23.2254 2.71979 23.2809C2.72526 23.2328 2.73809 23.2048 2.77122 23.1696Z" fill="white"/>
<path d="M3.30798 21.8655C3.295 21.8935 3.295 21.8935 3.28202 21.9215C3.295 21.8935 3.28754 21.873 3.30798 21.8655Z" fill="white"/>
<path d="M5.94422 16.8636C5.93135 16.8913 5.92589 16.9395 5.89276 16.9747C5.8651 16.9618 5.86521 16.9616 5.83755 16.9487C5.85042 16.9209 5.88355 16.8857 5.89642 16.858C5.91668 16.8505 5.91656 16.8506 5.94422 16.8636Z" fill="white"/>
<path d="M6.4741 16.0465C6.4593 16.0058 6.46477 15.9577 6.52556 15.9354C6.54775 15.9965 6.53489 16.0242 6.4741 16.0465Z" fill="white"/>
<path d="M4.99336 18.4805C4.98049 18.5083 4.96763 18.5361 4.94736 18.5435C4.87178 18.5251 4.92517 18.4824 4.93804 18.4547C4.9657 18.4676 4.99336 18.4805 4.99336 18.4805Z" fill="white"/>
<path d="M3.35897 21.7551C3.3461 21.7828 3.33371 21.8099 3.30798 21.8655C3.31345 21.8174 3.3461 21.7828 3.35897 21.7551Z" fill="white"/>
<path d="M3.39025 21.6514C3.37739 21.6792 3.36444 21.7069 3.35897 21.7551C3.37184 21.7273 3.37739 21.6792 3.39025 21.6514Z" fill="white"/>
<path d="M16.9403 30.7519C17.3147 30.9606 17.2709 31.3457 17.251 31.6067C17.1818 32.3008 17.2619 32.9634 17.5558 33.7089C17.1998 33.4243 17.157 33.1171 17.1143 32.8099C17.0731 32.3176 17.1204 31.816 17.0516 31.3108C17.0255 31.1128 16.9461 30.9574 16.9403 30.7519Z" fill="#C83A2E"/>
<path d="M83.1365 41.1388C82.353 40.8967 81.7502 40.594 81.2681 40.2308C80.7859 39.8071 80.5448 39.3834 80.5448 38.8386V36.4779H80.9065C81.1475 37.9306 81.6297 38.9597 82.353 39.6255C83.0762 40.2914 84.0405 40.594 85.3062 40.594C86.0898 40.594 86.7528 40.4124 87.2952 39.9887C87.8376 39.6255 88.139 39.0807 88.139 38.3544C88.139 37.7491 87.9582 37.2043 87.5965 36.7806C87.2349 36.3568 86.6322 35.8726 85.7884 35.3883L83.1365 33.8145C82.2324 33.2698 81.5694 32.725 81.1475 32.1197C80.7859 31.5749 80.5448 30.8485 80.5448 30.0616C80.5448 28.972 80.9064 28.0641 81.69 27.3982C82.4735 26.7324 83.4981 26.3692 84.7638 26.3692C85.4871 26.3692 86.2103 26.4903 86.9336 26.6719C87.6568 26.8535 88.2595 27.2167 88.7417 27.5798C89.2239 28.0036 89.465 28.4273 89.465 28.972V31.3328H89.1033C88.8623 29.88 88.3801 28.851 87.7171 28.1851C87.0541 27.5798 86.0898 27.2166 84.8241 27.2166C84.1611 27.2166 83.5584 27.3982 83.0762 27.822C82.594 28.2457 82.2927 28.7299 82.2927 29.3958C82.2927 30.0011 82.4735 30.4853 82.8351 30.8485C83.1968 31.2117 83.7995 31.6959 84.7035 32.2407L87.3555 33.8145C88.3198 34.4198 89.0431 34.9646 89.465 35.4489C89.8869 35.9331 90.0677 36.599 90.0677 37.3859C90.0677 38.5965 89.6458 39.565 88.8623 40.2914C88.0787 41.0177 86.9336 41.3809 85.5473 41.3809C84.7035 41.4415 83.92 41.3809 83.1365 41.1388Z" fill="#242424"/>
<path d="M93.564 40.4102C92.901 39.8049 92.5394 38.8364 92.5394 37.3837V33.4491C92.5394 32.7228 92.4188 32.178 92.238 31.8148C92.0572 31.4516 91.6353 31.27 91.0326 31.27H90.7915V30.8463H92.5394C93.0818 30.8463 93.5037 30.9068 93.7448 31.0279C93.9859 31.1489 94.227 31.3911 94.3475 31.7543C94.468 32.1175 94.5283 32.6622 94.5283 33.3886V37.3231C94.5283 38.3521 94.7694 39.0785 95.1913 39.5628C95.6735 40.047 96.2159 40.2892 96.8789 40.2892C97.6624 40.2892 98.3857 39.926 99.0487 39.1391V30.8463H100.977V41.0761H99.8925L99.1089 40.2286H98.9884C98.687 40.5313 98.2651 40.7734 97.783 41.0155C97.3008 41.1971 96.7583 41.3182 96.1556 41.3182C95.131 41.3182 94.227 41.0155 93.564 40.4102Z" fill="#242424"/>
<path d="M104.172 40.4111C103.931 40.1689 103.75 39.8663 103.69 39.5636C103.629 39.261 103.629 38.7767 103.629 38.1109H104.051C104.172 38.8373 104.473 39.382 105.016 39.8057C105.498 40.2295 106.221 40.4111 107.125 40.4111C107.909 40.4111 108.511 40.29 108.933 39.9874C109.355 39.6847 109.536 39.3215 109.536 38.8978C109.536 38.4741 109.355 38.1109 109.054 37.8082C108.752 37.5056 108.27 37.2029 107.547 36.9608L106.221 36.416C105.377 36.0528 104.714 35.6896 104.292 35.2054C103.87 34.7211 103.629 34.1764 103.629 33.5105C103.629 32.6025 103.991 31.9367 104.654 31.4525C105.317 30.9682 106.161 30.7261 107.246 30.7261C108.813 30.7261 109.898 31.0287 110.5 31.5735C110.741 31.8156 110.922 32.1183 110.982 32.421C111.043 32.7236 111.043 33.2079 111.043 33.8737H110.621C110.5 33.1473 110.199 32.6025 109.717 32.1788C109.235 31.7551 108.572 31.5735 107.728 31.5735C107.065 31.5735 106.522 31.6946 106.161 31.9972C105.799 32.2999 105.558 32.6631 105.558 33.0868C105.558 33.8132 106.161 34.479 107.306 34.9633L108.632 35.508C109.596 35.9318 110.319 36.3555 110.802 36.7792C111.284 37.2029 111.465 37.8082 111.465 38.5346C111.465 39.4426 111.103 40.1084 110.38 40.5927C109.656 41.0769 108.752 41.319 107.667 41.319C105.859 41.319 104.714 41.0164 104.172 40.4111Z" fill="#242424"/>
<path d="M113.754 29.334C113.754 28.6076 113.634 28.0629 113.453 27.6997C113.272 27.3365 112.85 27.1549 112.247 27.1549H111.825V26.7312H113.754C114.296 26.7312 114.718 26.7917 114.959 26.9128C115.201 27.0338 115.442 27.276 115.562 27.6391C115.683 28.0023 115.743 28.5471 115.743 29.2735V31.6947C116.044 31.3921 116.466 31.15 116.948 30.9078C117.431 30.7262 117.973 30.6052 118.576 30.6052C119.661 30.6052 120.565 30.9078 121.228 31.4526C121.891 32.0579 122.252 33.0264 122.252 34.4792V41.0771H120.324V34.5397C120.324 33.5107 120.083 32.7843 119.661 32.3C119.178 31.8158 118.636 31.5737 117.973 31.5737C117.19 31.5737 116.466 31.9369 115.803 32.7238V41.0771H113.875V29.334H113.754Z" fill="#242424"/>
<path d="M125.568 33.4513C125.568 32.7249 125.447 32.1802 125.266 31.817C125.086 31.4538 124.664 31.2722 124.061 31.2722H123.639V30.8485H125.568C126.11 30.8485 126.532 30.909 126.773 31.0301C127.014 31.1511 127.255 31.3932 127.376 31.7564C127.496 32.1196 127.557 32.6644 127.557 33.3908V41.0782H125.628V33.4513H125.568ZM125.568 29.1536C125.327 28.8509 125.206 28.5483 125.206 28.1851C125.206 27.8824 125.266 27.6403 125.508 27.4587C125.688 27.2771 125.929 27.2166 126.231 27.2166C126.592 27.2166 126.833 27.3377 127.075 27.6403C127.316 27.943 127.436 28.2456 127.436 28.6088C127.436 28.9115 127.316 29.1536 127.135 29.3352C126.954 29.5168 126.713 29.5773 126.412 29.5773C126.05 29.5168 125.809 29.3957 125.568 29.1536Z" fill="#242424"/>
<path d="M136.779 29.334C136.779 28.6076 136.658 28.0629 136.477 27.6997C136.296 27.3365 135.874 27.1549 135.272 27.1549H134.79V26.7312H140.455C143.288 26.7312 145.397 27.3365 146.844 28.6076C148.29 29.8788 149.014 31.5737 149.014 33.8133C149.014 35.2661 148.712 36.5372 148.11 37.6268C147.507 38.7163 146.603 39.5638 145.397 40.1691C144.192 40.7744 142.745 41.0771 141.058 41.0771H136.779V29.334ZM143.891 39.5032C144.734 38.9585 145.397 38.2321 145.94 37.2636C146.422 36.2951 146.663 35.145 146.663 33.8739C146.663 32.6027 146.422 31.5131 145.94 30.5446C145.458 29.5761 144.795 28.7892 143.891 28.305C143.047 27.7602 142.022 27.5181 140.937 27.5181C140.214 27.5181 139.491 27.6392 138.767 27.8813V40.1086C139.551 40.2901 140.335 40.4112 140.998 40.4112C142.082 40.3507 143.047 40.048 143.891 39.5032Z" fill="#242424"/>
<path d="M151.726 33.4497C151.726 32.7233 151.605 32.1785 151.424 31.8153C151.243 31.4522 150.821 31.2705 150.219 31.2705H149.978V30.8468H151.726C152.268 30.8468 152.69 30.9074 152.991 31.089C153.293 31.2706 153.473 31.5127 153.594 31.8153H153.714C153.956 31.4522 154.317 31.21 154.739 30.9679C155.161 30.7258 155.703 30.6047 156.306 30.6047C156.909 30.6047 157.331 30.7258 157.632 30.9074C157.873 31.089 158.114 31.4521 158.416 31.8759L157.572 32.5417C157.391 32.2996 157.21 32.1785 156.849 32.0575C156.487 31.9364 156.186 31.8759 155.824 31.8759C155.402 31.8759 154.98 31.9969 154.619 32.1785C154.257 32.3601 153.956 32.6628 153.775 32.9654V41.0766H151.846V33.4497H151.726Z" fill="#242424"/>
<path d="M161.43 40.5934C160.767 40.1091 160.224 39.5038 159.863 38.6563C159.501 37.8089 159.32 36.9615 159.32 35.9324C159.32 34.964 159.501 34.056 159.863 33.2085C160.224 32.3611 160.706 31.7558 161.369 31.2715C162.032 30.7873 162.816 30.5452 163.66 30.5452C165.106 30.5452 166.191 30.9689 166.914 31.7558C167.638 32.6032 167.999 33.7533 167.999 35.3271L167.939 36.1746H161.369C161.369 37.3852 161.61 38.4142 162.153 39.1406C162.695 39.867 163.419 40.2907 164.323 40.2907C164.986 40.2907 165.588 40.1696 166.07 39.867C166.553 39.5643 166.975 39.1406 167.396 38.5353L167.818 38.8379C167.336 39.6248 166.794 40.2302 166.131 40.5934C165.468 40.9565 164.745 41.1381 163.901 41.1381C162.936 41.3197 162.093 41.0776 161.43 40.5934ZM165.95 35.4482C165.95 34.1771 165.769 33.2085 165.408 32.5427C165.046 31.8769 164.443 31.5137 163.72 31.5137C163.298 31.5137 162.876 31.6953 162.575 31.9979C162.213 32.3611 161.972 32.7848 161.791 33.3901C161.61 33.9954 161.49 34.6613 161.49 35.3877H165.95V35.4482Z" fill="#242424"/>
<path d="M171.555 41.0161C171.073 40.8345 170.651 40.4713 170.349 40.0476C169.988 39.6238 169.867 39.0185 169.867 38.2316C169.867 37.1421 170.349 36.3552 171.374 35.8709C172.399 35.3867 173.725 35.1446 175.352 35.1446H176.015C176.015 33.6918 175.834 32.7233 175.412 32.2391C175.05 31.6943 174.448 31.4522 173.725 31.4522C173.062 31.4522 172.579 31.5732 172.157 31.8759C171.796 32.1785 171.494 32.6022 171.314 33.3286H170.349C170.349 32.8444 170.349 32.4206 170.41 32.1785C170.47 31.9364 170.59 31.6337 170.892 31.3916C171.133 31.1495 171.555 30.9074 172.157 30.7863C172.76 30.6652 173.423 30.6047 174.146 30.6047C175.292 30.6047 176.256 30.9074 176.919 31.5732C177.582 32.239 177.944 33.3891 177.944 35.2051V41.0766H176.859L176.075 40.1081H175.955C175.713 40.4713 175.292 40.7134 174.809 40.9555C174.327 41.1977 173.664 41.3187 172.941 41.3187C172.519 41.3187 172.037 41.1977 171.555 41.0161ZM175.111 39.987C175.412 39.7449 175.713 39.4423 175.955 39.0185V36.0525H175.292C174.207 36.0525 173.363 36.2341 172.76 36.6578C172.157 37.0816 171.856 37.5658 171.856 38.2316C171.856 38.8975 172.037 39.4423 172.459 39.7449C172.881 40.1081 173.363 40.2897 173.905 40.2897C174.387 40.3502 174.809 40.2292 175.111 39.987Z" fill="#242424"/>
<path d="M181.318 33.4506C181.318 32.7242 181.198 32.1795 181.017 31.8163C180.836 31.4531 180.414 31.2715 179.812 31.2715H179.39V30.8478H181.318C181.861 30.8478 182.283 30.9083 182.524 31.0899C182.825 31.2109 183.006 31.4531 183.127 31.7557H183.247C183.548 31.4531 183.97 31.2109 184.453 30.9688C184.935 30.7872 185.477 30.6662 186.08 30.6662C186.683 30.6662 187.225 30.7872 187.647 31.0294C188.069 31.2715 188.43 31.6347 188.672 32.24C189.033 31.7557 189.515 31.3925 190.118 31.0899C190.721 30.8478 191.323 30.6662 191.926 30.6662C192.83 30.6662 193.614 30.9688 194.156 31.5136C194.699 32.1189 195 33.0874 195 34.5402V41.0775H193.071V34.5402C193.071 33.5111 192.951 32.7242 192.649 32.3005C192.348 31.8163 191.926 31.6347 191.323 31.6347C190.902 31.6347 190.48 31.7557 190.058 32.0584C189.636 32.361 189.274 32.6637 189.033 33.0269C189.093 33.269 189.154 33.7533 189.154 34.5402V41.0775H187.225V34.5402C187.225 33.5111 187.104 32.7242 186.803 32.3005C186.502 31.8768 186.08 31.6347 185.477 31.6347C184.694 31.6347 183.97 31.9978 183.307 32.7847V41.0775H181.379V33.4506H181.318Z" fill="#242424"/>
</svg>
