<svg width="46" height="47" viewBox="0 0 46 47" fill="none" xmlns="http://www.w3.org/2000/svg">
<path d="M36.5621 21.2407C36.5278 20.6544 36.2923 20.2004 35.726 19.9823C35.2016 19.7723 34.7363 19.9175 34.309 20.1988C33.7518 20.5836 33.1316 20.8486 32.5744 21.2334C31.594 21.8788 30.4457 22.2767 29.6502 23.1945C29.5371 23.3226 29.4198 23.3641 29.2016 23.257C28.4756 22.8574 27.7246 22.4743 26.9652 22.1325C26.5288 21.9183 26.1056 22.179 25.993 22.6293C25.8096 23.4306 26.238 24.0082 26.7336 24.5774C26.8973 24.7383 27.237 24.7833 27.2373 24.998C27.2502 25.2581 26.8938 25.2958 26.7137 25.4323C25.2642 26.4582 23.9449 27.5955 22.6382 28.7782C21.411 29.8906 20.0831 30.8545 18.3894 31.1457C18.0079 31.1998 17.6853 31.3943 17.3963 31.6383C17.1366 31.8451 16.8766 31.8372 16.6416 31.7054C16.2094 31.4705 15.7313 31.3555 15.2448 31.2818C14.8841 31.2327 14.5652 31.0845 14.2798 30.8783C13.7594 30.5404 13.2808 30.1033 12.5766 30.2446C12.1238 30.3277 11.7383 30.5099 11.3781 30.7829C11.1225 30.9691 10.7748 31.1801 10.8464 31.4732C10.9013 31.7416 11.3165 31.8443 11.5933 31.877C12.6502 32.0408 13.5902 32.5682 14.5969 32.8725C15.524 33.1397 16.472 33.4111 17.4191 33.0382C17.7753 32.8932 18.0689 32.9507 18.3668 33.0948C18.4885 33.1401 18.6102 33.1854 18.736 33.21C19.5875 33.4195 20.4469 33.2656 21.2937 33.1737C22.2538 33.061 23.2306 32.8656 24.1652 32.5547C24.2826 32.5133 24.4209 32.476 24.4923 32.5543C24.5847 32.6368 24.4758 32.7443 24.4298 32.8641C24.3211 33.079 24.2543 33.3021 24.1833 33.5458C24.1541 33.6904 23.9321 33.8187 24.1 33.9589C24.2637 34.1197 24.4986 34.1442 24.7081 34.0778C25.3159 33.8747 25.8396 33.5478 26.061 32.8827C26.2823 32.2176 26.6506 31.6885 27.3295 31.349C28.3938 30.8274 29.391 30.2067 30.3377 29.5117C30.5681 29.3421 30.6019 29.499 30.6356 29.6559C30.8967 30.5227 31.5221 30.9886 32.0632 31.1159C33.1327 31.3251 33.3673 31.1349 33.3285 30.3545C33.3199 30.181 33.3071 30.0283 33.2776 29.8507C33.1173 29.1324 32.9192 28.3852 32.9392 27.6378C32.9431 27.4024 32.8588 27.0639 33.2276 26.9643C33.6636 26.8564 33.9945 26.6206 34.2205 26.2569C34.618 25.5833 35.091 24.9674 35.4255 24.2815C35.7935 23.5377 36.1028 22.7609 36.4079 22.0049C36.4411 21.7323 36.5918 21.5256 36.5621 21.2407ZM27.245 24.5272C26.691 24.1398 26.3801 23.6281 26.2702 22.984C26.1899 22.5175 26.4077 22.3025 26.9739 22.4133C27.0956 22.4585 27.297 22.5409 27.4942 22.6439C28.0271 22.9199 28.5306 23.2331 29.097 23.4512C29.3193 23.5376 29.3866 23.6367 29.1394 23.7815C28.7413 24.0257 28.3391 24.2905 27.9411 24.5346C27.7066 24.7249 27.4927 24.7045 27.245 24.5272ZM24.7202 33.6938C24.628 33.7187 24.5233 33.8055 24.4309 33.723C24.3176 33.6365 24.4643 33.5578 24.4851 33.4546C24.6728 32.7399 25.0117 32.1407 25.8291 31.9786C25.8753 31.9662 25.9382 31.9785 26.0304 31.9536C25.8092 32.7261 25.5375 33.4243 24.7202 33.6938ZM32.9805 30.3508C33.0356 30.8339 32.8011 31.0241 32.3312 30.8678C31.6978 30.658 31.215 30.2415 30.9207 29.6473C30.7862 29.3418 30.7984 29.0651 31.1084 28.8252C31.6026 28.4282 32.0675 27.961 32.6077 27.4441C32.5252 28.5013 32.887 29.4094 32.9805 30.3508ZM36.1309 21.7574C35.5793 23.1952 34.864 24.5795 34.0355 25.8772C33.9141 26.0467 33.8137 26.2202 33.5497 26.3403C33.5997 26.0925 33.6372 25.9066 33.6788 25.7001C33.6955 25.6175 33.6912 25.5308 33.5905 25.4896C33.4857 25.4691 33.4103 25.5187 33.3726 25.5972C32.5364 27.4731 30.9152 28.5942 29.3149 29.7195C27.7104 30.8654 25.9084 31.6936 24.0097 32.2452C22.5049 32.6807 20.9832 32.9841 19.4191 32.9572C18.983 32.9578 18.5427 32.8716 18.1567 32.7317C17.8924 32.637 17.6995 32.6208 17.4774 32.7491C16.9914 32.9975 16.4714 32.9816 15.9639 32.9038C14.8651 32.7317 13.8331 32.3366 12.8052 31.9209C12.3605 31.748 11.9158 31.5751 11.4419 31.5468C11.3329 31.5469 11.2071 31.5223 11.144 31.4026C11.1061 31.2664 11.2277 31.2043 11.3072 31.134C11.68 30.7991 12.1241 30.5425 12.623 30.4469C12.9625 30.3845 13.3064 30.4088 13.5667 30.6315C14.3307 31.2747 15.2995 31.4428 16.1889 31.7885C16.835 32.0437 17.3047 32.0927 17.8198 31.5924C17.9579 31.4477 18.2346 31.373 18.44 31.3273C20.4774 30.9531 22.0357 29.8196 23.4889 28.4509C25.5913 26.4578 27.9835 24.8649 30.4933 23.4453C30.6651 23.3501 30.8495 23.3003 31.013 23.2464C31.0842 23.2174 31.1806 23.1719 31.1763 23.0852C31.1594 22.9531 31.0503 22.9532 30.9413 22.9533C30.7443 22.9577 30.543 22.9827 30.2998 22.9996C30.8148 22.3919 31.4811 22.1144 32.0971 21.7626C32.9099 21.299 33.7858 20.9552 34.5483 20.4174C35.0301 20.0823 35.55 20.0981 35.9026 20.4033C36.2511 20.729 36.3272 21.2162 36.1309 21.7574Z" fill="#242424"/>
<path d="M25.7506 29.4508C25.0965 29.4517 24.7237 29.7866 24.4561 30.3568C24.2679 30.7494 23.8445 30.7954 23.4545 30.7835C23.1107 30.7591 22.7794 30.7802 22.5324 31.0324C22.0592 31.5409 21.4849 31.6862 20.8265 31.6003C20.34 31.5266 19.8916 31.6965 19.4221 31.8623C19.8367 31.4281 20.3985 31.3448 20.9269 31.4267C21.4763 31.5128 21.9206 31.3635 22.3017 30.9873C22.5781 30.6979 22.9301 30.5735 23.3159 30.6061C23.8946 30.6549 24.2339 30.3778 24.4514 29.948C24.7023 29.4604 25.0669 29.2741 25.5742 29.2446C25.6413 29.2362 25.6874 29.2238 25.7545 29.2155C25.9055 29.2235 26.1064 28.9838 26.1528 29.186C26.2118 29.4337 25.9016 29.4589 25.7506 29.4508Z" fill="#242424"/>
<path d="M15.6277 32.1937C15.284 32.2768 14.5291 32.129 14.101 31.8736C13.6184 31.5645 13.1443 31.3214 12.4607 31.2521C12.9341 30.9583 13.2824 31.1767 13.5552 31.3374C14.1763 31.7165 14.8099 32.0337 15.5312 32.1319C15.5522 32.136 15.59 32.1649 15.6277 32.1937Z" fill="#242424"/>
<path d="M32.5238 24.1855C31.7994 24.9669 31.0541 25.7442 30.1827 26.3895C30.1659 26.3647 30.1491 26.34 30.1323 26.3152C30.8903 25.5834 31.6735 24.8349 32.4315 24.103C32.4483 24.1278 32.486 24.1566 32.5238 24.1855Z" fill="#242424"/>
<path d="M29.5462 26.951C29.3202 27.3147 28.9179 27.4722 28.6038 27.7327C28.2101 28.0636 27.7408 28.3367 27.2925 28.614C27.2171 28.6636 27.125 28.7959 27.0451 28.6514C26.9779 28.5524 27.0953 28.511 27.1707 28.4613C27.9541 27.9276 28.7375 27.3939 29.4958 26.8768C29.4916 26.8974 29.5084 26.9222 29.5462 26.951Z" fill="#242424"/>
<path d="M33.3718 21.8183C33.347 22.0496 32.7562 22.3848 32.517 22.2736C32.3954 22.2284 32.3911 22.1416 32.4161 22.0177C32.4829 21.7946 32.948 21.5422 33.1996 21.5914C33.3213 21.6367 33.3968 21.6944 33.3718 21.8183Z" fill="#242424"/>
<path d="M35.0764 23.5251C35.0223 23.7936 34.6537 24.1079 34.4691 24.0504C34.3265 24.001 34.3515 23.8771 34.3723 23.7738C34.4348 23.464 34.7866 23.125 34.967 23.2032C35.1725 23.2649 35.1014 23.4012 35.0764 23.5251Z" fill="#242424"/>
<path d="M29.5462 26.951C29.5294 26.9263 29.5126 26.9015 29.4958 26.8768C29.5627 26.7611 29.6505 26.6502 29.8308 26.6211C29.831 26.8358 29.6677 26.8889 29.5462 26.951Z" fill="#242424"/>
<path d="M30.1827 26.3895C30.1158 26.5052 30.0446 26.6415 29.881 26.588C29.8556 26.3898 30.0107 26.3773 30.1364 26.2945C30.149 26.3399 30.1659 26.3647 30.1827 26.3895Z" fill="#242424"/>
<path d="M32.3138 30.1981C32.1999 29.682 31.9058 29.1951 31.9931 28.654C32.128 29.1742 32.4012 29.657 32.3138 30.1981Z" fill="#242424"/>
<path d="M31.7387 29.9141C31.5246 29.679 31.5284 29.4436 31.5323 29.2082C31.6919 29.3897 31.7341 29.6127 31.7387 29.9141Z" fill="#242424"/>
<path d="M28.2754 23.7407C27.7261 23.762 27.432 23.2751 26.9831 23.1229C27.5031 23.1388 27.8307 23.5678 28.2754 23.7407Z" fill="#242424"/>
<path d="M27.7477 23.981C27.3955 23.998 27.2948 23.9568 27.0973 23.6391C27.3657 23.7131 27.5378 23.8326 27.7477 23.981Z" fill="#242424"/>
<path d="M14.6526 15.634C14.648 15.6546 14.648 15.6546 14.6526 15.634V15.634ZM34.98 14.8262C34.6265 14.643 34.256 14.7362 33.9143 14.5986C32.6732 14.075 31.4412 13.5102 30.0903 13.2863C29.5634 13.1953 29.032 13.1249 28.5207 13.3604C28.2754 13.4804 28.0574 13.4769 27.8112 13.4028C26.6338 13.0867 25.442 13.1338 24.2485 13.2882C23.3029 13.4094 22.3765 13.6425 21.4037 13.8872C21.5988 13.4979 21.7594 13.166 21.9037 12.8089C22.0779 12.4152 21.9052 12.206 21.4856 12.2241C20.8642 12.2637 20.0352 12.9485 19.8784 13.5614C19.7379 14.1993 19.2948 14.6218 18.779 14.8779C17.6919 15.4429 16.5885 15.9828 15.6323 16.7482C15.5515 16.8171 15.4752 16.8655 15.3544 16.8181C14.9901 16.7834 15.3252 16.5533 15.2643 16.4326C15.2479 16.4075 15.2316 16.3825 15.2197 16.3369C15.0571 16.2806 14.9199 16.2082 15.0697 16.0247L15.0533 15.9997C14.8889 16.0508 14.8653 15.9595 14.8925 15.836C14.7671 15.8093 14.6372 15.8031 14.678 15.6179C14.46 15.6144 14.32 15.4552 14.171 15.3372C13.8193 15.0466 13.3951 15.0853 12.989 15.0417L12.9636 15.0578C13.0182 15.3065 12.6459 15.507 12.9185 15.7592C13.0018 15.2814 13.3233 15.1131 13.7395 15.3097C14.2301 15.5653 14.6563 15.9149 14.9254 16.3817C15.1782 16.8235 15.1283 17.0499 14.7706 17.3829C14.3066 17.8009 13.8426 18.2189 13.2979 18.7058C13.2666 18.0527 13.31 17.4587 13.1008 16.9185C12.9419 17.1431 13.022 17.3757 13.0811 17.6037C13.1194 17.8274 13.2875 18.0572 13.0242 18.2595C13.0106 18.3212 13.0224 18.3669 13.0088 18.4286C13.2007 18.7497 13.0891 19.1568 12.7949 19.2016L12.774 19.1972C12.7687 19.5192 12.5705 19.3261 12.4406 19.3199C12.4117 19.5507 12.28 19.6519 12.0547 19.5822C11.9993 19.635 11.9694 19.6717 11.9185 19.7039C11.9077 19.8524 11.8387 19.967 11.7279 20.0726C11.6126 20.1988 11.6363 20.29 11.769 20.383C11.9323 20.1378 12.0794 19.8676 12.4127 19.7448C12.2939 20.0857 12.1169 20.3927 12.2579 20.746C12.3087 20.7137 12.4013 20.6904 12.4104 20.6493C12.893 19.3519 13.9464 18.5427 14.9415 17.6995C17.6756 15.4178 20.8433 14.0476 24.4121 13.5386C25.4294 13.3896 26.454 13.3068 27.457 13.5211C27.5824 13.5478 27.7286 13.5791 27.8241 13.6426C28.073 13.8035 28.2956 13.7864 28.5408 13.6664C28.9549 13.4747 29.3955 13.4611 29.8433 13.5137C31.1152 13.6991 32.2818 14.1638 33.4393 14.6695C33.8391 14.8411 34.2451 14.8848 34.6421 14.9695C34.8929 15.0231 34.9165 15.1143 34.7413 15.3139C34.015 16.1284 32.9187 16.2389 32.0572 15.5809C31.5892 15.2224 31.0822 14.9417 30.4672 14.8535C30.0402 14.8054 29.6404 14.6338 29.2751 14.405C29.0425 14.2691 28.8708 14.254 28.6702 14.4696C28.3588 14.791 27.9446 14.9826 27.4905 15.058C25.6902 15.3845 24.1827 16.269 22.8671 17.4747C21.9346 18.3313 20.9739 19.1172 19.9714 19.8942C20.0714 19.9371 20.1713 19.98 20.2713 20.0229C20.3984 19.9423 20.5464 19.8662 20.6781 19.765C20.7053 19.6416 20.737 19.4975 20.9251 19.5377C20.9505 19.5216 20.9759 19.5055 21.0268 19.4732C21.0749 19.3542 21.053 19.1556 21.281 19.3121L21.3065 19.296C21.2891 19.0768 21.3417 18.9372 21.6043 19.0364C21.6043 19.0364 21.6043 19.0364 21.6252 19.0408C21.6169 18.7805 21.7276 18.6749 21.9948 18.7535C22.0338 18.6757 21.9983 18.5388 22.0746 18.4904C22.0746 18.4904 22.0746 18.4905 22.1 18.4743C22.1 18.4743 22.1 18.4743 22.1209 18.4788L22.1627 18.4877C22.1836 18.4922 22.2254 18.5011 22.288 18.5145C22.288 18.5145 22.3089 18.519 22.3135 18.4984C22.3052 18.2381 22.4159 18.1324 22.6667 18.186C22.6921 18.1699 22.6966 18.1493 22.7012 18.1287C22.7211 17.9391 22.7991 17.7834 23.0498 17.8369C23.0753 17.8208 23.1007 17.8047 23.1307 17.768C23.1606 17.7313 23.186 17.7152 23.216 17.6785C23.3613 17.5156 23.5556 17.4279 23.7172 17.29C24.7288 16.4719 25.7967 15.795 27.1055 15.5144C27.5433 15.414 27.9648 15.2885 28.3744 15.1175C29.1009 14.7987 29.1009 14.7987 29.874 14.9638C30.7098 15.1423 31.4767 15.4354 32.1264 15.962C33.2278 16.822 34.6572 16.0932 35.24 15.3343C35.2763 15.1696 35.2917 15.0005 34.98 14.8262ZM21.4777 12.955C21.2265 13.6985 20.8562 14.2873 19.9033 14.3424C20.1709 13.6239 20.3831 12.9582 21.1678 12.6733C21.265 12.6294 21.3758 12.5238 21.483 12.6329C21.5739 12.717 21.5049 12.8315 21.4777 12.955Z" fill="#242424"/>
<path d="M18.8336 24.0682C18.2712 23.8404 17.7732 23.5186 17.2153 23.2701C16.9364 23.1459 16.6638 22.8938 16.3141 22.9914C16.2378 23.0398 16.1615 23.0881 16.0852 23.1365C15.7164 23.1223 15.6948 23.4194 15.6404 23.6663C15.5133 23.7469 15.3816 23.848 15.2336 23.9241C15.0155 23.9207 14.8348 23.9467 14.8595 24.2321L14.834 24.2482C14.7059 24.1346 14.646 24.208 14.6188 24.3315L14.4154 24.4604C14.2855 24.4542 14.111 24.3523 14.1611 24.6215L14.1357 24.6377C14.0284 24.5286 13.894 24.5429 13.7732 24.4956C13.9003 24.415 14.032 24.3139 14.1591 24.2333C14.6032 24.0049 15.0473 23.7766 15.3932 23.398C15.4231 23.3613 15.4994 23.313 15.483 23.288C15.434 23.2128 15.3831 23.2451 15.3113 23.2728C15.156 23.2827 15.0007 23.2927 14.8408 23.3232C14.7273 23.342 14.6228 23.3197 14.6037 23.2079C14.5682 23.071 14.6608 23.0477 14.758 23.0038C14.9733 22.9205 15.184 22.8578 15.4038 22.7539C16.4817 22.2301 17.4825 21.5604 18.5159 20.9409C18.4887 21.0643 18.4615 21.1878 18.4552 21.3157C18.4507 21.3363 18.4716 21.3408 18.467 21.3613C18.3799 21.5582 18.5834 21.4293 18.6161 21.4794C18.6788 21.4928 18.716 21.5223 18.7578 21.5312C18.7951 21.5607 18.8114 21.5857 18.8487 21.6152C18.8696 21.6197 18.8905 21.6242 18.9068 21.6492C18.9232 21.6742 18.9605 21.7037 18.9768 21.7288C18.9496 21.8523 18.9942 21.948 19.1377 21.8924L19.1541 21.9175C19.0941 21.9908 19.0597 22.0481 18.9997 22.1215C18.8716 22.0079 18.7435 21.8944 18.5899 21.797C18.3618 21.6405 18.1156 21.5664 17.8659 21.707C17.4381 21.9603 17.0059 22.2343 16.5782 22.4877C16.451 22.5682 16.3612 22.6783 16.561 22.7641C17.3324 23.0366 17.9658 23.5381 18.7026 23.8679C18.9025 23.9537 19.1024 24.0395 19.3104 23.89C19.5437 23.7244 19.5055 23.5007 19.4926 23.261C19.4534 22.8432 19.2034 22.4882 19.0206 22.126C19.0878 22.1188 19.176 22.116 19.225 22.1912C19.5287 22.6007 19.7097 23.0703 19.7099 23.5659C19.6983 24.0159 19.2751 24.2487 18.8336 24.0682Z" fill="#242424"/>
<path d="M11.7345 20.4399C11.5704 20.9866 11.1527 21.3929 10.8305 21.8628C10.3358 22.6189 10.12 23.4993 9.70891 24.2733C9.36677 24.9328 9.4151 25.3094 9.93496 25.8298C9.91683 25.9121 9.90324 25.9739 9.88511 26.0562L9.85968 26.0723C9.21823 25.806 8.91538 25.095 9.29201 24.3782C9.74668 23.5058 9.9851 22.5225 10.5397 21.6929C10.8964 21.1658 11.3368 20.6566 11.5608 20.0365C11.6089 19.9175 11.7033 19.7869 11.8632 19.7564C11.8524 19.9049 11.7834 20.0194 11.6726 20.125C11.5827 20.2351 11.6019 20.3469 11.7345 20.4399Z" fill="#242424"/>
<path d="M18.535 24.1336C17.7863 23.7582 17.0766 23.305 16.2934 22.9869C16.664 22.8937 16.9157 23.1414 17.1947 23.2656C17.7316 23.5096 18.246 23.8564 18.8129 24.0637C19.2545 24.2442 19.694 24.0364 19.6892 23.5614C19.6935 23.0452 19.508 22.5962 19.2044 22.1866C19.1508 22.1321 19.0878 22.1188 18.9997 22.1215L19.0045 22.1009L18.9791 22.117C19.039 22.0436 19.078 21.9657 19.1334 21.9129C19.6877 22.3761 19.8788 22.9986 19.8219 23.6544C19.8159 24.2779 19.2255 24.475 18.535 24.1336Z" fill="#242424"/>
<path d="M12.9989 18.2752C12.8577 17.4263 12.691 16.5935 12.5498 15.7446C12.4879 15.4297 12.6467 15.2051 12.9337 15.094C12.9884 15.3427 12.616 15.5432 12.8887 15.7954C12.8841 15.816 12.896 15.8616 12.8914 15.8822C12.8569 15.9394 12.8433 16.0012 12.8298 16.0629C12.8252 16.0835 12.8162 16.1246 12.8116 16.1452C12.8071 16.1658 12.798 16.2069 12.8144 16.232C12.8099 16.2526 12.8217 16.2982 12.8172 16.3188C12.8272 16.4717 12.8881 16.5925 12.9445 16.7338C12.9609 16.7588 12.9773 16.7839 12.9936 16.8089C13.01 16.834 13.0264 16.859 13.0427 16.884C13.0591 16.9091 13.0591 16.9091 13.0754 16.9341L13.0963 16.9386C12.9375 17.1632 13.0175 17.3958 13.0767 17.6239C13.0941 17.843 13.2622 18.0729 12.9989 18.2752Z" fill="#242424"/>
<path d="M12.183 25.5563C12.1575 25.5724 12.1067 25.6046 12.0813 25.6207C11.9796 25.6852 11.8779 25.7496 11.7761 25.8141C11.3693 26.0719 10.9625 26.3298 10.4429 26.305C10.204 26.297 10.0159 26.2569 9.86411 26.0521L9.88954 26.036C10.4864 26.2066 11.0123 26.1034 11.5254 25.7605C11.7079 25.6272 11.8786 25.4482 12.1339 25.4811C12.1457 25.5268 12.1666 25.5312 12.183 25.5563Z" fill="#242424"/>
<path d="M14.1283 24.5707C13.7006 24.8241 13.2983 25.0613 12.8096 25.194C12.9013 24.9765 13.0866 24.9299 13.26 24.8377C13.4289 24.766 13.6188 24.6989 13.6641 24.4931C13.6895 24.477 13.7358 24.4653 13.7612 24.4492C13.8866 24.476 14.0374 24.4866 14.1283 24.5707Z" fill="#242424"/>
<path d="M14.648 15.6547C14.43 15.6512 14.2691 15.4876 14.141 15.374C13.7893 15.0834 13.3651 15.1221 12.959 15.0785C13.0099 15.0462 13.0607 15.014 13.1279 15.0068C13.4149 14.8957 13.6793 14.8876 13.9564 15.1191C14.18 15.2962 14.5234 15.3264 14.648 15.6547Z" fill="#242424"/>
<path d="M19.2477 20.7953C18.9934 20.9564 18.7137 21.1337 18.4595 21.2948C18.4867 21.1714 18.5138 21.0479 18.5201 20.92C18.5456 20.9039 18.5755 20.8672 18.6218 20.8555C18.8472 20.9252 18.9733 20.6505 19.1986 20.7201C19.215 20.7452 19.2313 20.7702 19.2477 20.7953Z" fill="#242424"/>
<path d="M12.7692 19.2176C12.849 18.9545 12.9034 18.7076 12.9832 18.4445C13.1796 18.745 13.0681 19.1521 12.7692 19.2176Z" fill="#242424"/>
<path d="M20.2365 20.0798C19.9913 20.1998 19.8651 20.4745 19.5872 20.5444C19.5653 20.3458 19.8432 20.2759 19.8422 20.0818C19.8467 20.0612 19.8467 20.0612 19.8304 20.0362C19.8931 20.0495 19.9185 20.0334 19.9321 19.9717C20.0366 19.994 20.1365 20.0369 20.2365 20.0798Z" fill="#242424"/>
<path d="M12.8047 25.215C12.6295 25.4146 12.3815 25.4478 12.1618 25.5517C12.1454 25.5266 12.129 25.5016 12.1127 25.4765C12.3043 25.302 12.5122 25.1525 12.8047 25.215Z" fill="#242424"/>
<path d="M16.0894 23.1155C15.9769 23.3284 15.8271 23.5119 15.6446 23.6453C15.6989 23.3983 15.7206 23.1013 16.0894 23.1155Z" fill="#242424"/>
<path d="M15.2382 23.9027C15.1765 24.0834 15.033 24.139 14.8641 24.2106C14.8439 23.9047 15.0247 23.8786 15.2382 23.9027Z" fill="#242424"/>
<path d="M22.5738 18.2095C22.4631 18.3151 22.385 18.4708 22.2206 18.5219C22.1869 18.2776 22.3186 18.1765 22.5738 18.2095Z" fill="#242424"/>
<path d="M12.0035 19.6145C12.1024 19.4633 12.2459 19.4078 12.394 19.3317C12.3814 19.5875 12.2497 19.6887 12.0035 19.6145Z" fill="#242424"/>
<path d="M21.9437 18.7856C21.8121 18.8868 21.7013 18.9924 21.5742 19.073C21.5613 18.8332 21.6721 18.7276 21.9437 18.7856Z" fill="#242424"/>
<path d="M21.5443 19.109C21.438 19.1941 21.3854 19.3336 21.2464 19.3686C21.2291 19.1494 21.2817 19.0098 21.5443 19.109Z" fill="#242424"/>
<path d="M19.5872 20.5444C19.4601 20.625 19.3584 20.6895 19.2313 20.7701C19.2149 20.7451 19.1986 20.72 19.1822 20.695C19.2439 20.5143 19.3991 20.5042 19.5872 20.5444Z" fill="#242424"/>
<path d="M22.9362 17.8554C22.879 18.0155 22.7355 18.0711 22.5875 18.1472C22.6283 17.962 22.7063 17.8063 22.9362 17.8554Z" fill="#242424"/>
<path d="M15.2109 16.3777C15.0482 16.3215 14.911 16.2491 15.0608 16.0656C15.0981 16.0951 15.1353 16.1246 15.1681 16.1747C15.189 16.1792 15.1844 16.1997 15.1799 16.2203C15.2172 16.2498 15.2245 16.316 15.2109 16.3777Z" fill="#242424"/>
<path d="M15.3704 16.8426C15.0061 16.8079 15.3412 16.5779 15.2803 16.4571C15.3412 16.5779 15.3767 16.7147 15.3704 16.8426Z" fill="#242424"/>
<path d="M12.4106 19.3559C12.5287 19.3165 12.6259 19.2726 12.7439 19.2332C12.7387 19.5552 12.5242 19.3371 12.4106 19.3559Z" fill="#242424"/>
<path d="M21.923 18.7812C21.992 18.6667 21.8746 18.4046 22.1745 18.5333C22.11 18.6273 22.0247 18.7168 21.923 18.7812Z" fill="#242424"/>
<path d="M20.8652 19.6106C20.838 19.7341 20.7572 19.803 20.6182 19.838C20.6709 19.6984 20.6772 19.5705 20.8652 19.6106Z" fill="#242424"/>
<path d="M21.2005 19.3806C21.136 19.4746 21.0597 19.5229 20.9462 19.5417C20.9943 19.4227 20.9933 19.2286 21.2005 19.3806Z" fill="#242424"/>
<path d="M14.8834 15.8768C14.7581 15.85 14.6282 15.8438 14.6689 15.6586C14.7734 15.6809 14.8434 15.7605 14.8834 15.8768C14.8625 15.8723 14.8625 15.8723 14.8834 15.8768Z" fill="#242424"/>
<path d="M14.4036 24.4143C14.3228 24.4833 14.242 24.5522 14.1493 24.5755C14.1201 24.3107 14.2991 24.392 14.4036 24.4143Z" fill="#242424"/>
<path d="M15.0487 16.0202C14.8843 16.0713 14.8606 15.98 14.8878 15.8566C14.9669 15.895 15.0505 15.9128 15.0487 16.0202Z" fill="#242424"/>
<path d="M14.843 24.2067C14.7994 24.3051 14.7113 24.3078 14.6277 24.29C14.6549 24.1665 14.7148 24.0931 14.843 24.2067Z" fill="#242424"/>
<path d="M19.1633 21.8759C18.9989 21.927 18.9752 21.8358 19.0024 21.7123C19.0606 21.7463 19.1442 21.7641 19.1633 21.8759Z" fill="#242424"/>
<path d="M18.5993 21.4539C18.5665 21.4038 18.3677 21.5121 18.4502 21.3359C18.5338 21.3537 18.592 21.3877 18.5993 21.4539Z" fill="#242424"/>
<path d="M18.9976 21.7334C18.9603 21.7039 18.9441 21.6787 18.9068 21.6492C18.9486 21.6581 18.9649 21.6833 18.9976 21.7334Z" fill="#242424"/>
<path d="M18.7578 21.5312C18.7951 21.5607 18.8114 21.5857 18.8487 21.6152C18.816 21.5651 18.7996 21.5401 18.7578 21.5312Z" fill="#242424"/>
<path d="M15.4875 23.2672C15.4875 23.2672 15.4276 23.3406 15.3976 23.3773C15.3813 23.3522 15.3485 23.3021 15.3322 23.2771C15.3876 23.2243 15.4593 23.1965 15.4875 23.2672Z" fill="#242424"/>
<path d="M13.6641 24.4931C13.6188 24.6989 13.4289 24.766 13.26 24.8377C13.0702 24.9049 12.8804 24.9721 12.8096 25.194C12.5171 25.1315 12.3091 25.2816 12.1339 25.4811C11.8786 25.4482 11.7034 25.6477 11.5254 25.7605C11.0123 26.1034 10.4819 26.2271 9.88954 26.036C9.90767 25.9537 9.92172 25.8914 9.93985 25.8091C10.4141 26.0397 10.8592 26.0055 11.3214 25.6948C12.0216 25.198 12.8449 24.8352 13.6641 24.4931Z" fill="#242424"/>
<path d="M13.0427 16.884C13.0264 16.859 13.01 16.834 12.9936 16.8089C12.9773 16.7839 12.9609 16.7588 12.9445 16.7338C12.8881 16.5925 12.8272 16.4717 12.8172 16.3188C12.8217 16.2982 12.8099 16.2526 12.8144 16.232C12.8189 16.2114 12.8071 16.1658 12.8116 16.1452C12.8162 16.1246 12.8252 16.0835 12.8298 16.0629C12.8433 16.0012 12.8569 15.9394 12.8914 15.8822C12.9443 16.2382 12.997 16.5945 13.0708 16.955C13.0544 16.9299 13.0591 16.9091 13.0427 16.884Z" fill="#242424"/>
<path d="M19.5872 20.5444C19.3991 20.5042 19.2439 20.5144 19.1986 20.7201C18.9733 20.6505 18.8472 20.9252 18.6218 20.8555C18.9796 20.5225 19.4072 20.269 19.8304 20.0362C19.8259 20.0567 19.8467 20.0612 19.8422 20.0818C19.8432 20.2759 19.5653 20.3458 19.5872 20.5444Z" fill="#242424"/>
<path d="M19.8514 20.0406C19.8769 20.0245 19.9277 19.9922 19.9531 19.9761C19.9395 20.0379 19.9141 20.054 19.8514 20.0406Z" fill="#242424"/>
<path d="M13.3677 24.1495C13.2969 24.3714 12.7093 24.6553 12.5095 24.5695C12.3886 24.5222 12.3604 24.4515 12.3831 24.3486C12.4584 24.1061 12.9996 23.8339 13.2413 23.9286C13.3412 23.9715 13.4158 24.0305 13.3677 24.1495Z" fill="#242424"/>
<path d="M11.4426 22.3603C11.3655 22.7102 10.9824 23.0592 10.7988 22.9985C10.5944 22.9333 10.6725 22.7776 10.7042 22.6335C10.793 22.3293 10.9564 22.0841 11.3044 22.0938C11.5015 22.0928 11.4607 22.278 11.4426 22.3603Z" fill="#242424"/>
<path d="M18.7432 17.822C18.5052 18.0082 18.2465 18.1899 17.9831 18.3922C17.9703 18.1525 18.6631 17.5894 18.7676 17.6118C18.7885 17.6162 18.8048 17.6413 18.8212 17.6663C18.8867 17.7665 18.794 17.7898 18.7432 17.822Z" fill="#242424"/>
<path d="M25.6736 14.8636C25.1505 15.0535 24.6417 14.8802 24.1475 14.8393C24.261 14.8205 24.3582 14.7766 24.4672 14.7783C24.8733 14.822 25.263 14.8406 25.6736 14.8636Z" fill="#242424"/>
<path d="M23.2285 15.6344C22.7308 15.8081 22.3146 15.6115 21.935 15.7459C22.2955 15.4997 22.7061 15.5228 23.2285 15.6344Z" fill="#242424"/>
<path d="M17.2401 18.6862C17.1975 18.9787 16.9541 18.9914 16.6908 19.1937C16.8141 18.8322 17.0203 18.79 17.2401 18.6862Z" fill="#242424"/>
<path d="M15.4713 20.1608C15.4539 19.9417 15.572 19.9022 15.711 19.8673C15.7538 20.0703 15.5984 20.0802 15.4713 20.1608Z" fill="#242424"/>
<path d="M16.3302 19.4393C16.3337 19.2246 16.4518 19.1852 16.5862 19.1708C16.6081 19.3694 16.4692 19.4044 16.3302 19.4393Z" fill="#242424"/>
<path d="M13.491 22.0001C13.4747 21.9751 13.4583 21.95 13.4419 21.925C13.4555 21.8633 13.4691 21.8015 13.5618 21.7782C13.6081 21.7666 13.6454 21.7961 13.6363 21.8372C13.6345 21.9446 13.5628 21.9724 13.491 22.0001Z" fill="#242424"/>
<path d="M13.8832 21.6101C13.8696 21.6718 13.856 21.7336 13.7633 21.7569C13.717 21.7685 13.6798 21.739 13.6888 21.6979C13.6906 21.5905 13.7623 21.5627 13.8341 21.535C13.8504 21.56 13.8668 21.585 13.8832 21.6101Z" fill="#242424"/>
<path d="M14.2968 21.2243C14.2787 21.3066 14.2115 21.3138 14.1652 21.3254C14.1652 21.3254 14.137 21.2548 14.146 21.2136C14.1596 21.1519 14.2269 21.1447 14.2732 21.133C14.2941 21.1375 14.2805 21.1992 14.2968 21.2243Z" fill="#242424"/>
<path d="M15.956 19.7473C15.9379 19.8297 15.8871 19.8619 15.8244 19.8485C15.8035 19.844 15.7962 19.7778 15.8007 19.7573C15.8143 19.6955 15.8652 19.6633 15.9278 19.6767C15.9324 19.6561 15.9397 19.7223 15.956 19.7473Z" fill="#242424"/>
<path d="M14.5137 21.0337C14.5001 21.0954 14.4537 21.1071 14.382 21.1349C14.3702 21.0892 14.3538 21.0642 14.3629 21.023C14.3765 20.9613 14.4273 20.9291 14.49 20.9425C14.4945 20.9219 14.5227 20.9925 14.5137 21.0337Z" fill="#242424"/>
<path d="M15.3905 20.23L15.3814 20.2712C15.3814 20.2712 15.3769 20.2917 15.356 20.2873C15.3305 20.3034 15.3051 20.3195 15.2842 20.315C15.2215 20.3016 15.2306 20.2605 15.2397 20.2193C15.2533 20.1576 15.2832 20.1209 15.3504 20.1137C15.3504 20.1137 15.3504 20.1137 15.3713 20.1182C15.3713 20.1182 15.3713 20.1182 15.3922 20.1226C15.3922 20.1226 15.3922 20.1226 15.3877 20.1432C15.3877 20.1432 15.3877 20.1432 15.3832 20.1638C15.395 20.2094 15.395 20.2094 15.3905 20.23Z" fill="#242424"/>
<path d="M14.7396 20.8018C14.7351 20.8224 14.7351 20.8224 14.7306 20.843C14.726 20.8636 14.7261 20.8636 14.7006 20.8797L14.6752 20.8958C14.6543 20.8913 14.6498 20.9119 14.6289 20.9074C14.5662 20.8941 14.5753 20.8529 14.5843 20.8117C14.5979 20.75 14.6279 20.7133 14.6951 20.7061C14.6951 20.7061 14.6951 20.7061 14.716 20.7106C14.716 20.7106 14.716 20.7106 14.7369 20.715C14.7369 20.715 14.7369 20.715 14.7323 20.7356C14.7323 20.7356 14.7323 20.7356 14.7278 20.7562C14.7487 20.7607 14.7442 20.7812 14.7396 20.8018Z" fill="#242424"/>
<path d="M15.0673 20.5059C15.0537 20.5676 15.0237 20.6043 14.9565 20.6115C14.8893 20.6187 14.9029 20.5569 14.9074 20.5363C14.9001 20.4701 14.951 20.4379 15.0182 20.4307C15.0899 20.403 15.0509 20.4808 15.0673 20.5059Z" fill="#242424"/>
<path d="M23.7086 15.2413C23.6787 15.278 23.6442 15.3352 23.6142 15.3719C23.5888 15.388 23.5307 15.3541 23.5606 15.3174C23.5906 15.2807 23.6251 15.2234 23.655 15.1867C23.685 15.15 23.7222 15.1795 23.7086 15.2413Z" fill="#242424"/>
<path d="M13.8832 21.6101C13.8668 21.585 13.8504 21.56 13.8341 21.535C13.9267 21.5117 13.9003 21.3337 14.0121 21.4222C14.0539 21.4311 13.9803 21.5662 13.8832 21.6101Z" fill="#242424"/>
<path d="M13.491 22.0001C13.4447 22.0118 13.4014 22.1104 13.3523 22.0353C13.3195 21.9852 13.3747 21.9322 13.4419 21.925C13.4583 21.95 13.4747 21.9751 13.491 22.0001Z" fill="#242424"/>
<path d="M21.7736 15.8833C21.7482 15.8995 21.7273 15.895 21.7019 15.9111C21.7064 15.8905 21.69 15.8655 21.6946 15.8449C21.6991 15.8243 21.75 15.7921 21.75 15.7921C21.8126 15.8055 21.8036 15.8466 21.7736 15.8833Z" fill="#242424"/>
<path d="M13.8444 17.6158C13.8114 17.0701 13.4932 16.5281 13.5738 15.9636C13.6948 16.5065 13.9967 17.0235 13.8444 17.6158Z" fill="#242424"/>
<path d="M14.3218 17.1361C14.2508 16.8624 14.2007 16.5932 14.1343 16.2989C14.3188 16.5538 14.457 16.8203 14.3218 17.1361Z" fill="#242424"/>
<path d="M18.8639 23.2341C18.307 23.1798 17.9662 22.7407 17.4919 22.5102C18.0442 22.585 18.3715 23.0859 18.8639 23.2341Z" fill="#242424"/>
<path d="M13.3069 2.98137C12.6703 3.27265 12.0593 3.63275 11.4431 3.97909C9.9795 4.81729 8.6089 5.77809 7.36056 6.89774C6.18588 7.95972 5.17029 9.15171 4.27052 10.4425C3.69183 11.2746 3.13732 12.1292 2.68333 13.0413C2.30411 13.7705 1.96306 14.5171 1.66017 15.2813C1.31801 16.1531 1.00003 17.0475 0.767258 17.9581C0.390247 19.4197 0.131501 20.9013 0.0482645 22.4289C-0.0138847 23.5434 -0.0201185 24.6377 0.0537481 25.7344C0.138039 27.0302 0.414262 28.2882 0.681609 29.5651C0.845345 30.3487 1.19591 31.0807 1.41556 31.8442C1.64164 32.6678 2.10914 33.3734 2.48389 34.1279C2.81404 34.8049 3.17726 35.4856 3.60016 36.1136C4.82049 37.9527 6.26559 39.5861 7.96343 41.0039C9.28961 42.1028 10.711 43.074 12.2491 43.8471C13.2618 44.3567 14.2959 44.7962 15.3657 45.1605C16.9111 45.6969 18.5033 46.0606 20.1335 46.2702C21.4331 46.4426 22.7528 46.4986 24.0751 46.4757C24.5454 46.4625 25.0236 46.5559 25.5053 46.4451C25.5002 46.4313 25.49 46.4038 25.4849 46.39C25.1035 46.3867 24.7105 46.3096 24.3329 46.2737C23.7684 46.2895 23.2039 46.3052 22.633 46.2608C22.4742 46.3023 22.3191 46.3113 22.1231 46.2101C22.329 46.1673 22.4981 46.1533 22.6685 46.1857C23.219 46.175 23.7606 46.183 24.3023 46.1911C24.6531 46.1118 25.0205 46.1201 25.3866 46.0821C26.485 45.9681 27.582 45.8077 28.6623 45.5597C29.5787 45.3395 30.4658 45.0829 31.3414 44.7526C31.3973 44.7325 31.4583 44.7261 31.4658 44.661C31.4468 44.6523 31.4417 44.6385 31.4366 44.6247C30.8417 44.7294 30.2876 44.9442 29.7081 45.0901C28.8807 45.294 28.0481 45.4841 27.2092 45.6141C26.4923 45.7314 25.7574 45.7148 25.0494 45.8133C24.5091 45.8516 23.9688 45.8898 23.4411 45.8767C22.6796 45.9164 21.9434 45.8535 21.1919 45.7492C21.9598 45.7696 22.7176 45.7624 23.4855 45.7827C23.9979 45.7545 24.5153 45.7401 25.0276 45.712C26.0547 45.5767 27.0856 45.4089 28.1101 45.181C28.9146 45.001 29.695 44.7984 30.474 44.5495C30.6558 44.4842 30.8286 44.4377 31.0205 44.3999C31.3014 44.3457 31.5708 44.2176 31.8644 44.1121C31.7727 44.0358 31.727 44.0835 31.6851 44.0985C31.1526 44.2432 30.6353 44.4291 30.1219 44.5825C28.6845 45.0213 27.2139 45.2848 25.7126 45.4657C23.4791 45.7226 21.2489 45.6039 19.0616 45.1734C17.4707 44.8561 15.8911 44.4411 14.4153 43.708C13.8136 43.4094 13.1941 43.1485 12.5961 42.8175C10.946 41.913 9.43164 40.8193 8.0531 39.5363C6.76619 38.3297 5.64947 36.9838 4.68896 35.5038C4.17686 34.7206 3.68762 33.9136 3.30134 33.0852C2.81432 32.0278 2.44291 30.8976 2.11853 29.7661C2.04065 29.5133 1.91574 29.2618 1.8798 28.9939C1.77065 28.1438 1.5865 27.3052 1.50531 26.4451C1.27858 24.124 1.38247 21.84 1.92879 19.5531C2.17289 18.5448 2.47423 17.5628 2.84169 16.5882C3.15212 15.759 3.57704 14.9821 3.92564 14.1704C4.14243 13.6868 4.4928 13.2644 4.78591 12.8158C5.42541 11.8058 6.15143 10.8583 6.95889 9.9596C7.57463 9.27019 8.19038 8.58078 8.91307 8.00893C10.206 6.96685 11.5766 6.00605 13.0759 5.26421C13.8001 4.91023 14.4849 4.49244 15.2639 4.24356C16.2018 3.95317 17.1244 3.62148 18.0726 3.35862C18.7449 3.16372 19.4121 2.95504 20.1164 2.88906C20.8346 2.81806 21.5655 2.69571 22.2888 2.63847C23.5944 2.52793 24.8989 2.54259 26.2073 2.69623C27.0529 2.79786 27.8845 2.90451 28.7188 3.10381C29.3064 3.23581 29.8939 3.3678 30.4828 3.54612C31.1569 3.74061 31.8361 3.94888 32.4709 4.2511C32.5891 4.27098 32.705 4.36975 32.8345 4.29196C32.454 3.99193 32.0012 3.79592 31.5572 3.58111C31.2328 3.43251 30.9135 3.29768 30.5891 3.14908C30.556 3.14536 30.523 3.14165 30.5267 3.10909C30.5077 3.10035 30.5077 3.10035 30.5026 3.08658C30.5165 3.08156 30.5216 3.09532 30.5356 3.0903C30.5687 3.09401 30.5878 3.10275 30.6208 3.10647C31.5084 3.19302 32.3276 3.52256 33.1328 3.85712C33.8858 4.17923 34.6212 4.53892 35.3247 4.94122C35.9278 5.28606 36.536 5.64465 37.1073 6.0321C37.6354 6.38829 38.1458 6.78206 38.6332 7.19966C38.7198 7.26216 38.8356 7.36093 38.9423 7.30696C39.0579 7.23419 39.0643 7.29428 39.1369 7.36181C39.4564 7.66818 39.7582 8.01213 40.1551 8.22825C40.1831 8.2182 40.211 8.20815 40.253 8.19307C39.489 7.32882 38.5791 6.62627 37.6692 5.92372C36.6969 5.18118 35.6802 4.53261 34.5721 3.9793C34.0276 3.70702 33.4831 3.43473 32.912 3.21883C32.2073 2.94174 31.5077 2.67841 30.7992 2.43388C29.3963 1.93978 27.8985 1.91659 26.4539 1.60911C25.9185 1.48957 25.3642 1.53283 24.8086 1.52976C23.7253 1.51357 22.6383 1.52994 21.5475 1.57887C20.922 1.60093 20.2954 1.7482 19.6726 1.8629C18.7269 2.04688 17.785 2.19829 16.8611 2.48366C15.5546 2.89095 14.2979 3.38958 13.0067 3.83817C12.9508 3.85828 12.914 3.88712 12.8631 3.92099C12.4171 4.12814 11.9572 4.34031 11.4692 4.56253C11.5454 4.42596 11.6445 4.4371 11.7233 4.39318C12.6291 3.80233 13.6151 3.38542 14.6152 2.96348C15.0942 2.76005 15.5988 2.62545 16.0931 2.46332C16.6066 2.30993 17.12 2.15654 17.6335 2.00315C17.8622 1.93651 18.0859 1.8561 18.3198 1.80322C18.9235 1.67977 19.5413 1.55129 20.1603 1.46914C20.9764 1.36296 21.7912 1.21045 22.6175 1.1318C23.0306 1.09247 23.4413 1.13203 23.8596 1.10647C24.2117 1.07349 24.5703 1.10059 24.934 1.14146C25.4769 1.19588 26.0389 1.25904 26.5806 1.26713C27.5176 1.27349 28.3965 1.55037 29.3044 1.69198C29.8766 1.78268 30.4198 2.00864 30.9705 2.16948C31.6777 2.36768 32.3722 2.61724 33.0438 2.89062C34.812 3.64345 36.4635 4.59424 38.0033 5.75678C39.4948 6.8743 40.8403 8.15353 42.0118 9.6045C42.9388 10.7377 43.7553 11.9575 44.4283 13.2601C44.8323 14.0509 45.2504 14.8367 45.5426 15.6678C45.6599 15.9844 45.7773 16.301 45.8896 16.6039C45.9175 16.5938 45.9315 16.5888 45.9595 16.5788C45.8257 16.346 45.8228 16.0819 45.7309 15.8341C45.5459 15.2921 45.2681 14.7992 45.0831 14.2572C44.9708 13.9544 44.7975 13.6578 44.6433 13.37C44.4891 13.0822 44.3069 12.8045 44.2035 12.4829C43.8634 11.9499 43.5424 11.4257 43.2022 10.8927C42.9703 10.5236 42.6648 10.2122 42.4749 9.82805C42.3171 9.74436 42.2191 9.608 42.1183 9.379C42.3384 9.50268 42.4365 9.63904 42.5066 9.78545C42.9497 10.297 43.3001 10.8575 43.6923 11.4029C43.928 11.7395 44.1166 12.0773 44.3014 12.4477C44.7332 13.0569 45.0442 13.7251 45.3693 14.3883C45.5745 14.8138 45.7658 15.2443 45.9812 15.6973C46.028 15.5244 45.977 15.3868 45.94 15.2441C45.5073 13.9487 44.8892 12.7512 44.1871 11.5839C43.1208 9.86106 41.8563 8.2875 40.3899 6.89574C39.6058 6.14796 38.7671 5.4666 37.8687 4.83791C36.7972 4.08423 35.6725 3.4433 34.5071 2.86377C33.5428 2.39918 32.5519 1.99098 31.5255 1.65794C30.4278 1.3037 29.3086 1.01961 28.1819 0.800631C27.4812 0.662515 26.759 0.594543 26.033 0.55913C24.736 0.479347 23.4507 0.473425 22.1451 0.58397C21.6709 0.629632 21.1903 0.615197 20.7341 0.794809C20.7188 0.753509 20.6858 0.749794 20.6387 0.751104C20.2358 0.817963 19.8315 0.838499 19.4388 0.932891C18.6673 1.11665 17.906 1.32794 17.1587 1.5342C15.7619 1.91156 14.5293 2.4327 13.3069 2.98137ZM0.603228 20.9345C0.511572 21.8411 0.400833 22.739 0.370196 23.6393C0.365311 23.7971 0.360428 23.9548 0.360646 24.1264C0.381058 24.1814 0.382389 24.2278 0.336679 24.2754C0.374606 25.1042 0.407429 25.9193 0.459335 26.7431C0.598448 27.1611 0.587568 27.6019 0.684745 28.035C0.74354 28.2791 0.755296 28.5245 0.828069 28.7635C0.546288 28.1316 0.52633 27.4367 0.417398 26.7582C0.294486 26.0847 0.265655 25.4086 0.269884 24.7363C0.274769 24.5785 0.279653 24.4207 0.284537 24.2629C0.28831 24.2304 0.278103 24.2029 0.281876 24.1703C0.242619 23.2951 0.349585 22.4298 0.45655 21.5645C0.488062 21.3503 0.453451 21.1288 0.570166 20.9308C0.566175 20.7918 0.576163 20.6478 0.643397 20.53C0.680449 20.6727 0.665358 20.803 0.603228 20.9345ZM0.742142 20.1981C0.7397 20.277 0.761443 20.3784 0.659818 20.4461C0.654715 20.4323 0.644509 20.4048 0.639406 20.391C0.634303 20.3773 0.634303 20.3773 0.634303 20.3773C0.6292 20.3635 0.624097 20.3497 0.632973 20.331C0.62787 20.3172 0.627869 20.3172 0.636745 20.2984C0.631642 20.2846 0.64562 20.2796 0.64562 20.2796C0.64562 20.2796 0.640516 20.2658 0.654495 20.2608C0.654495 20.2608 0.649394 20.247 0.663373 20.242C0.65827 20.2283 0.672248 20.2232 0.672248 20.2232C0.667145 20.2095 0.681123 20.2044 0.681123 20.2044C0.695102 20.1994 0.689998 20.1856 0.703977 20.1806C0.701098 19.9164 0.76434 19.6597 0.865746 19.4204C0.882605 19.6796 0.805384 19.9413 0.742142 20.1981ZM1.30733 17.7483C1.34549 17.7658 1.3506 17.7796 1.34172 17.7984C1.34172 17.7984 1.34682 17.8121 1.33285 17.8171C1.33285 17.8171 1.33795 17.8309 1.32397 17.8359L1.31509 17.8547C1.30111 17.8598 1.30622 17.8735 1.29224 17.8785C1.29224 17.8785 1.27826 17.8836 1.28336 17.8973C1.27071 17.9487 1.23898 17.9913 1.21746 18.0614C1.1398 17.9802 1.18551 17.9325 1.22612 17.8711C1.25274 17.8147 1.28314 17.7258 1.30733 17.7483ZM2.70904 14.2645C2.77139 14.3045 2.72568 14.3521 2.70793 14.3897C2.69906 14.4085 2.69018 14.4273 2.68131 14.4461C2.67243 14.4649 2.65468 14.5025 2.6458 14.5213C2.63693 14.5401 2.62805 14.5589 2.6103 14.5964C2.60142 14.6152 2.57857 14.6391 2.57479 14.6716C2.56592 14.6904 2.54817 14.728 2.53929 14.7468C2.53042 14.7656 2.52665 14.7981 2.50379 14.822C2.49492 14.8408 2.47716 14.8783 2.46829 14.8971C2.45941 14.9159 2.43656 14.9397 2.43278 14.9723C2.42391 14.9911 2.41503 15.0099 2.40616 15.0287C2.39728 15.0475 2.37953 15.0851 2.37066 15.1038C2.36178 15.1226 2.3529 15.1414 2.34403 15.1602C2.33515 15.179 2.32627 15.1978 2.30852 15.2354C2.29965 15.2542 2.29077 15.273 2.27302 15.3106C2.26414 15.3293 2.26414 15.3293 2.25527 15.3481C2.24639 15.3669 2.24639 15.3669 2.23752 15.3857C2.22864 15.4045 2.21089 15.4421 2.20201 15.4609C2.19314 15.4797 2.18426 15.4985 2.16651 15.5361C2.15763 15.5549 2.14876 15.5736 2.13101 15.6112C2.12213 15.63 2.11326 15.6488 2.0955 15.6864C2.08663 15.7052 2.07775 15.724 2.06 15.7616C2.05113 15.7804 2.04225 15.7992 2.0245 15.8367C2.01562 15.8555 1.99277 15.8794 1.989 15.9119C1.98012 15.9307 1.97124 15.9495 1.95349 15.9871C1.94595 16.0522 1.95748 16.1261 1.9029 16.1925C1.89402 16.2113 1.88515 16.2301 1.87627 16.2489C1.8674 16.2677 1.85852 16.2864 1.84077 16.324C1.83189 16.3428 1.82302 16.3616 1.80527 16.3992C1.79639 16.418 1.78751 16.4368 1.76976 16.4744C1.76089 16.4932 1.75201 16.512 1.73426 16.5495C1.73559 16.5959 1.71784 16.6334 1.71917 16.6798C1.71029 16.6986 1.70142 16.7174 1.69254 16.7362C1.68367 16.7549 1.67989 16.7875 1.65704 16.8113C1.64816 16.8301 1.63929 16.8489 1.62153 16.8865C1.62286 16.9328 1.60512 16.9704 1.60645 17.0167C1.59757 17.0355 1.58869 17.0543 1.57982 17.0731C1.57094 17.0919 1.56206 17.1107 1.55829 17.1432C1.53166 17.1996 1.50504 17.256 1.48351 17.3261C1.47974 17.3587 1.48485 17.3725 1.48107 17.405C1.4722 17.4238 1.46842 17.4564 1.44557 17.4802C1.43669 17.499 1.42782 17.5178 1.42404 17.5503C1.4165 17.6155 1.43314 17.7031 1.37345 17.7557C1.36458 17.7745 1.32774 17.8034 1.32774 17.8034C1.2756 17.7909 1.30733 17.7483 1.31621 17.7295C1.33773 17.6594 1.35038 17.608 1.35792 17.5429C1.3668 17.5241 1.37057 17.4916 1.39343 17.4677C1.4023 17.4489 1.40608 17.4164 1.42893 17.3926C1.43781 17.3738 1.46066 17.35 1.46953 17.3312C1.44402 17.2623 1.46554 17.1922 1.51125 17.1446C1.52013 17.1258 1.5239 17.0932 1.54676 17.0694C1.55563 17.0506 1.55941 17.018 1.56828 16.9992C1.57205 16.9667 1.5847 16.9153 1.58847 16.8828C1.59735 16.864 1.60112 16.8314 1.62398 16.8076C1.63285 16.7888 1.64173 16.77 1.65948 16.7324C1.66836 16.7136 1.67723 16.6949 1.69498 16.6573C1.67967 16.616 1.67834 16.5696 1.71518 16.5408C1.72405 16.522 1.72783 16.4894 1.75068 16.4656C1.75956 16.4468 1.76843 16.428 1.78618 16.3905C1.80393 16.3529 1.80394 16.3529 1.82169 16.3153C1.83056 16.2965 1.85342 16.2727 1.85719 16.2401C1.86606 16.2213 1.86984 16.1888 1.89269 16.1649C1.90024 16.0998 1.92686 16.0435 1.93441 15.9783C1.94329 15.9595 1.96614 15.9357 1.96991 15.9032C1.97879 15.8844 2.00164 15.8606 2.00542 15.828C2.01429 15.8092 2.02317 15.7904 2.04092 15.7528C2.0498 15.734 2.05867 15.7152 2.07642 15.6777C2.0853 15.6589 2.08907 15.6263 2.11192 15.6025C2.1208 15.5837 2.12457 15.5511 2.14743 15.5273C2.1563 15.5085 2.17916 15.4847 2.18293 15.4522C2.19181 15.4334 2.19558 15.4008 2.21843 15.377C2.22731 15.3582 2.23619 15.3394 2.25394 15.3018C2.26281 15.283 2.26659 15.2505 2.28944 15.2266C2.29832 15.2079 2.32117 15.184 2.32494 15.1515C2.33382 15.1327 2.3427 15.1139 2.36045 15.0763C2.36932 15.0575 2.39218 15.0337 2.39595 15.0011C2.40483 14.9823 2.4137 14.9636 2.43145 14.926L2.46696 14.8508C2.47583 14.832 2.4796 14.7994 2.50246 14.7756C2.51133 14.7568 2.51511 14.7243 2.53796 14.7005C2.54684 14.6817 2.56969 14.6579 2.57347 14.6253C2.58234 14.6065 2.58611 14.5739 2.60897 14.5501C2.61784 14.5313 2.62672 14.5125 2.64447 14.475C2.65335 14.4562 2.65712 14.4236 2.67997 14.3998C2.68885 14.381 2.69773 14.3622 2.71548 14.3246C2.64936 14.3172 2.67598 14.2608 2.70904 14.2645ZM3.78988 12.3938C3.81029 12.4489 3.76836 12.464 3.73152 12.4928C3.72265 12.5116 3.71887 12.5442 3.69602 12.568C3.68714 12.5868 3.66429 12.6106 3.65541 12.6294C3.66562 12.6569 3.65675 12.6757 3.61991 12.7045C3.63145 12.7784 3.57176 12.8311 3.52095 12.8649C3.52738 12.925 3.50963 12.9626 3.45882 12.9965C3.44994 13.0153 3.44107 13.0341 3.42709 13.0391C3.37494 13.0266 3.41178 12.9978 3.42065 12.979C3.41555 12.9652 3.42443 12.9464 3.42443 12.9464L3.41932 12.9327L3.4282 12.9139C3.43707 12.8951 3.44595 12.8763 3.4688 12.8525L3.48278 12.8475C3.47768 12.8337 3.48656 12.8149 3.48145 12.8011C3.47635 12.7874 3.49033 12.7823 3.48523 12.7686L3.4941 12.7498C3.51185 12.7122 3.55379 12.6971 3.60083 12.6958C3.59062 12.6683 3.5944 12.6357 3.63633 12.6206C3.64521 12.6018 3.64898 12.5693 3.65275 12.5367C3.66163 12.5179 3.68448 12.4941 3.68826 12.4616C3.68693 12.4152 3.68559 12.3689 3.74661 12.3626C3.7657 12.3713 3.78988 12.3938 3.78988 12.3938ZM9.92246 5.94549C9.81706 6.04579 9.72564 6.14106 9.58075 6.17755C9.17558 6.49483 8.77552 6.82588 8.37035 7.14316C8.26496 7.24346 8.15956 7.34375 8.05416 7.44405C7.73797 7.74494 7.43575 8.04081 7.11446 8.32794C6.6192 8.78681 6.1965 9.31321 5.71656 9.81339C5.54526 10.0778 5.32559 10.2972 5.10081 10.5028C5.07929 10.5729 5.05266 10.6293 4.98277 10.6544C4.98033 10.7333 4.93462 10.781 4.86982 10.8199C4.8483 10.89 4.82167 10.9464 4.75178 10.9715C4.74934 11.0504 4.70363 11.098 4.63884 11.1369C4.61731 11.2071 4.59069 11.2634 4.50681 11.2936C4.51702 11.3211 4.51325 11.3537 4.47131 11.3688C4.46887 11.4477 4.42316 11.4953 4.35837 11.5342C4.34705 11.6319 4.27849 11.7033 4.20482 11.761C4.18329 11.8311 4.15667 11.8875 4.08677 11.9127C4.0779 11.9314 4.06902 11.9502 4.05127 11.9878C4.04239 12.0066 4.03352 12.0254 4.01577 12.063C4.02087 12.0768 4.00689 12.0818 4.01199 12.0955C4.01199 12.0955 4.0171 12.1093 4.00312 12.1143C3.99424 12.1331 3.98537 12.1519 3.97649 12.1707C3.97649 12.1707 3.96251 12.1757 3.96762 12.1895C3.95364 12.1945 3.93078 12.2184 3.89772 12.2146C3.90282 12.2284 3.90282 12.2284 3.90282 12.2284C3.90282 12.2284 3.90793 12.2422 3.89395 12.2472C3.89395 12.2472 3.88507 12.266 3.87109 12.271L3.85712 12.276C3.84824 12.2948 3.85334 12.3086 3.84447 12.3274C3.8012 12.2961 3.83426 12.2999 3.85712 12.276C3.85201 12.2623 3.84691 12.2485 3.85578 12.2297C3.86466 12.2109 3.86466 12.2109 3.89262 12.2009C3.8569 12.1045 3.92679 12.0794 3.99158 12.0405C4.00046 12.0217 4.00933 12.0029 4.02708 11.9653C4.03596 11.9465 4.05882 11.9227 4.06769 11.9039C4.06636 11.8576 4.07013 11.825 4.09299 11.8012C4.11584 11.7774 4.1438 11.7673 4.18063 11.7385C4.17287 11.6321 4.22745 11.5656 4.33418 11.5117C4.33152 11.419 4.38233 11.3852 4.46621 11.355C4.456 11.3275 4.45977 11.2949 4.50171 11.2798C4.46599 11.1835 4.53588 11.1583 4.60067 11.1194C4.59801 11.0268 4.6628 10.9879 4.7327 10.9628C4.71606 10.8751 4.78085 10.8362 4.85074 10.8111C4.84564 10.7974 4.84564 10.7974 4.85452 10.7786C4.84941 10.7648 4.86339 10.7598 4.86339 10.7598L4.88114 10.7222C4.88114 10.7222 4.89512 10.7172 4.89002 10.7034C4.89889 10.6846 4.92685 10.6746 4.94083 10.6695C4.95481 10.6645 4.95481 10.6645 4.96879 10.6595C4.96369 10.6457 4.96369 10.6457 4.97256 10.6269L4.96746 10.6131L4.98521 10.5756C4.99409 10.5568 5.00806 10.5517 5.02204 10.5467C5.03602 10.5417 5.03602 10.5417 5.05 10.5367C5.06398 10.5316 5.07286 10.5128 5.08683 10.5078C5.09571 10.489 5.10459 10.4702 5.11346 10.4514C5.14519 10.4088 5.16294 10.3713 5.19467 10.3286C5.20355 10.3098 5.21753 10.3048 5.2264 10.286C5.23528 10.2672 5.24926 10.2622 5.27212 10.2384C5.28099 10.2196 5.29497 10.2146 5.30895 10.2096C5.34068 10.1669 5.39149 10.1331 5.42322 10.0905C5.46005 10.0616 5.50576 10.014 5.53749 9.97137C5.56035 9.94755 5.57433 9.94253 5.59718 9.91871C5.62004 9.89489 5.64289 9.87108 5.65177 9.85228C6.27373 9.05143 6.99242 8.3406 7.73531 7.65229C7.93722 7.47049 8.12006 7.27994 8.37035 7.14316C8.73603 6.76207 9.1514 6.47233 9.58075 6.17755C9.65309 6.07354 9.75849 5.97324 9.92246 5.94549ZM39.2845 6.43508C39.3036 6.44382 39.3277 6.46633 39.3468 6.47507L39.338 6.49386C39.3189 6.48512 39.2947 6.46261 39.2756 6.45387C39.2565 6.44513 39.2463 6.4176 39.2272 6.40886C39.2692 6.39378 39.2794 6.42132 39.2845 6.43508ZM39.1687 6.33631C39.1687 6.33631 39.1877 6.34505 39.1738 6.35007C39.1649 6.36887 39.1649 6.36887 39.1458 6.36013C39.1407 6.34636 39.1547 6.34133 39.1687 6.33631C39.1636 6.32254 39.1547 6.34133 39.1687 6.33631ZM39.1203 6.29129C38.9792 6.29522 38.9397 6.23142 38.8658 6.11757C39.0031 6.1462 39.0515 6.19121 39.1203 6.29129ZM38.797 6.01749C38.8161 6.02623 38.8454 6.0625 38.8314 6.06753C38.8085 6.09134 38.7983 6.06381 38.7793 6.05507L38.6736 5.98383C38.6825 5.96504 38.6825 5.96504 38.6914 5.94625C38.7346 5.9775 38.7588 6 38.797 6.01749ZM28.2853 1.12229C29.4273 1.38256 30.5643 1.62907 31.6684 2.0434C32.0156 2.16818 32.3629 2.29297 32.705 2.40398C32.7622 2.4302 32.8284 2.43763 32.8539 2.50646C32.9238 2.48134 32.967 2.51258 32.9875 2.56765C33.1756 2.56241 33.3385 2.65987 33.4962 2.74357C34.2265 3.08949 34.9516 3.42165 35.6552 3.82395C36.4644 4.29749 37.2418 4.81364 37.9965 5.35361C38.0639 5.40737 38.1453 5.4561 38.1899 5.53368C38.2472 5.5599 38.3273 5.5623 38.316 5.65998C38.2181 5.69516 38.2015 5.60754 38.1582 5.57629C37.6035 5.27647 37.1351 4.86762 36.6033 4.54398C35.5344 3.88295 34.453 3.27327 33.2903 2.78639C33.1758 2.73394 33.0436 2.71908 32.9557 2.61026C32.8947 2.6166 32.8426 2.60414 32.8031 2.54033C32.4012 2.48198 32.0285 2.28837 31.6482 2.15987C30.6446 1.80302 29.6297 1.54384 28.5919 1.30847C28.4025 1.26739 28.2269 1.22128 28.0184 1.17145C28.1289 1.08492 28.2192 1.11486 28.2853 1.12229ZM28.0221 1.13889C27.9205 1.20663 27.8493 1.18543 27.7437 1.11419C27.8644 1.0552 27.9356 1.07639 28.0221 1.13889ZM27.1561 0.982198C27.3379 0.916865 27.5007 1.01433 27.6762 1.06044C27.4856 1.14456 27.3088 1.05213 27.1384 1.01978C26.9553 1.03879 26.7798 0.992679 26.6043 0.946569C26.8 0.87621 26.9844 0.903528 27.1561 0.982198ZM26.5089 0.902864C26.514 0.91663 26.514 0.916632 26.5051 0.935425L26.486 0.926683C26.486 0.926683 26.4809 0.912915 26.4949 0.90789C26.4949 0.90789 26.4949 0.907889 26.5089 0.902864ZM26.3971 0.94307C26.2318 0.924493 26.0525 0.910942 25.8872 0.892365C25.896 0.873572 25.8858 0.846039 25.8947 0.827247C26.0498 0.81829 26.2291 0.831841 26.3971 0.94307ZM20.6451 0.8112C20.6642 0.819941 20.6782 0.814912 20.6973 0.823653C20.7164 0.832394 20.7303 0.827371 20.7494 0.836112C20.7634 0.831086 20.7825 0.839828 20.8104 0.829777C20.8244 0.824752 20.8435 0.833489 20.8435 0.833489C20.8575 0.828463 20.8715 0.823439 20.8766 0.837206C20.8905 0.83218 20.9096 0.840921 20.9376 0.83087C20.9986 0.824534 21.0736 0.813171 21.1346 0.806835C21.1486 0.80181 21.1817 0.805526 21.1956 0.800501C21.2096 0.795475 21.2287 0.804216 21.2427 0.79919C21.2757 0.802906 21.3088 0.806619 21.3279 0.81536C21.6228 0.756148 21.9101 0.762057 22.2165 0.776703C21.937 0.877216 21.6343 0.830007 21.3534 0.884194C20.8843 0.943622 20.4153 1.00305 19.9602 1.05746C19.9551 1.04369 19.9589 1.01113 19.9486 0.983597C20.1723 0.903186 20.4113 0.864077 20.6451 0.8112Z" fill="#C83A2E"/>
<path d="M25.4709 46.395C25.9055 46.2855 26.362 46.2775 26.8119 46.2093C26.8869 46.1979 26.967 46.2004 27.0434 46.2353C27.0485 46.2491 27.0536 46.2628 27.0587 46.2766C26.549 46.3974 26.0125 46.4031 25.4773 46.4551C25.4862 46.4363 25.4811 46.4226 25.4709 46.395Z" fill="white"/>
<path d="M32.8307 4.32441C32.8168 4.32941 32.8168 4.32941 32.8307 4.32441V4.32441Z" fill="white"/>
<path d="M32.3082 4.32532C32.3133 4.33903 32.3133 4.33903 32.3082 4.32532V4.32532Z" fill="white"/>
<path d="M30.7344 45.4231L33.0549 44.5889C32.2823 44.8979 31.525 45.2481 30.7167 45.4607C30.7256 45.4419 30.7344 45.4231 30.7344 45.4231Z" fill="white"/>
<path d="M42.985 36.1199C42.9408 36.3854 42.6566 36.8153 42.3783 36.9621C42.5827 36.7014 42.768 36.432 42.985 36.1199Z" fill="white"/>
<path d="M43.6081 35.194C43.6272 35.2027 43.6323 35.2165 43.6462 35.2114C43.5462 35.497 43.3837 35.7427 43.1641 35.962C43.145 35.9533 43.145 35.9533 43.1259 35.9446C43.1437 35.907 43.1474 35.8744 43.1652 35.8368C43.2007 35.7617 43.2273 35.7053 43.2679 35.6439C43.3669 35.4835 43.49 35.3456 43.6081 35.194Z" fill="white"/>
<path d="M45.3266 31.7522C45.3456 31.761 45.3457 31.761 45.3647 31.7697C45.351 31.9463 45.2939 32.0916 45.2039 32.2332C45.1721 32.2758 45.1455 32.3322 45.1138 32.3748C45.0947 32.366 45.0947 32.366 45.0756 32.3573C45.088 32.1344 45.2238 31.9452 45.3266 31.7522Z" fill="white"/>
<path d="M44.4948 33.6115C44.5139 33.6202 44.5139 33.6202 44.533 33.629C44.5241 33.6477 44.5203 33.6803 44.5114 33.6991C44.481 33.788 44.4595 33.8582 44.424 33.9333C44.4151 33.9521 44.4063 33.9709 44.3834 33.9947C44.3745 34.0135 44.3517 34.0374 44.3428 34.0561C44.3288 34.0612 44.3339 34.0749 44.3199 34.08C44.2971 34.1038 44.2831 34.1088 44.2603 34.1326C44.2412 34.1239 44.2412 34.1239 44.2221 34.1151C44.2829 33.9373 44.3246 33.7507 44.4948 33.6115Z" fill="white"/>
<path d="M44.1105 34.3268C44.1296 34.3356 44.1296 34.3356 44.1487 34.3443C44.1221 34.4007 44.1145 34.4658 44.0879 34.5222C44.0435 34.6161 43.9991 34.7101 43.8975 34.7778C43.8784 34.7691 43.8644 34.7741 43.8593 34.7604C43.9303 34.61 43.9581 34.4284 44.1105 34.3268Z" fill="white"/>
<path d="M43.8593 34.7604C43.8784 34.7691 43.8784 34.7691 43.8975 34.7778C43.8545 34.9181 43.8114 35.0585 43.6869 35.1501C43.6678 35.1413 43.6678 35.1413 43.6487 35.1326C43.6918 34.9923 43.7158 34.8432 43.8593 34.7604Z" fill="white"/>
<path d="M30.7344 45.4231C30.7395 45.4369 30.7254 45.4421 30.7305 45.4558C30.4725 45.4862 30.2515 45.6593 29.9832 45.6621C29.9921 45.6433 29.9921 45.6433 30.001 45.6245C30.2539 45.5804 30.456 45.3984 30.7344 45.4231Z" fill="white"/>
<path d="M27.0572 46.2304C27.2199 46.1564 27.394 46.1562 27.5631 46.1422L27.5593 46.1747C27.3903 46.1887 27.2582 46.3454 27.0725 46.2717C27.0674 46.258 27.0623 46.2442 27.0572 46.2304Z" fill="white"/>
<path d="M31.4174 44.6158L32.0604 44.3847C32.0656 44.3984 32.0707 44.4122 32.0758 44.426L31.4467 44.6521C31.4276 44.6434 31.4225 44.6296 31.4174 44.6158Z" fill="white"/>
<path d="M40.1588 8.19562C40.2695 8.28063 40.3662 8.37066 40.4122 8.49456C40.3982 8.49958 40.4033 8.51335 40.4033 8.51335C40.2697 8.45217 40.1856 8.31078 40.0749 8.22578C40.094 8.23452 40.1359 8.21944 40.1588 8.19562Z" fill="white"/>
<path d="M30.001 45.6245C29.9921 45.6433 29.9921 45.6433 29.9832 45.6621C29.7824 45.7187 29.5868 45.7889 29.4 45.8405C29.5855 45.7426 29.7695 45.5985 30.001 45.6245Z" fill="white"/>
<path d="M45.4658 31.3592C45.4849 31.3679 45.49 31.3817 45.504 31.3766C45.5257 31.478 45.4902 31.5532 45.4217 31.6247C45.4026 31.6159 45.4026 31.6159 45.3835 31.6072C45.386 31.5283 45.3973 31.4306 45.4658 31.3592Z" fill="white"/>
<path d="M34.154 5.15925C34.2671 5.16537 34.3257 5.23792 34.3843 5.31047C34.3754 5.32926 34.3754 5.32926 34.3665 5.34805C34.2762 5.31811 34.1859 5.28818 34.1362 5.19684C34.1311 5.18307 34.14 5.16428 34.154 5.15925Z" fill="white"/>
<path d="M41.7984 37.7479C41.8175 37.7567 41.8366 37.7654 41.8417 37.7792C41.8328 37.798 41.8328 37.798 41.8239 37.8168C41.7884 37.8919 41.7427 37.9396 41.65 37.9885C41.6409 37.8358 41.7387 37.8006 41.7984 37.7479Z" fill="white"/>
<path d="M42.1679 37.3344C42.1248 37.4747 42.0652 37.5273 41.9533 37.5675C41.9875 37.446 42.0472 37.3934 42.1679 37.3344Z" fill="white"/>
<path d="M43.1259 35.9446C43.145 35.9533 43.145 35.9533 43.1641 35.962C43.1425 36.0322 43.1452 36.125 43.0372 36.1326C43.0015 36.0362 43.0471 35.9885 43.1259 35.9446Z" fill="white"/>
<path d="M27.5631 46.1422C27.6521 46.1258 27.75 46.0906 27.839 46.0742C27.7514 46.1369 27.6688 46.2134 27.5543 46.1609L27.5631 46.1422Z" fill="white"/>
<path d="M40.9671 38.7957L40.9862 38.8044C40.9405 38.8521 40.8999 38.9135 40.8542 38.9611C40.8082 38.8372 40.9163 38.8295 40.9671 38.7957Z" fill="white"/>
<path d="M40.5313 39.2021C40.5582 39.3173 40.4832 39.3286 40.4426 39.39C40.4157 39.2749 40.4958 39.2773 40.5313 39.2021Z" fill="white"/>
<path d="M42.3759 37.0413C42.3925 37.1289 42.3227 37.154 42.2769 37.2017C42.2579 37.1929 42.2439 37.1979 42.2388 37.1842C42.2654 37.1278 42.2818 37.0439 42.3759 37.0413Z" fill="white"/>
<path d="M45.6052 30.9657C45.6243 30.9744 45.6294 30.9882 45.6434 30.9832C45.6549 31.057 45.6614 31.1171 45.6017 31.1698C45.5826 31.1611 45.5826 31.1611 45.5635 31.1523C45.5711 31.0872 45.5595 31.0133 45.6052 30.9657Z" fill="white"/>
<path d="M41.9495 37.6C41.947 37.6789 41.8822 37.7178 41.8505 37.7604C41.8314 37.7517 41.8123 37.7429 41.8072 37.7292C41.839 37.6866 41.8414 37.6077 41.9495 37.6Z" fill="white"/>
<path d="M41.645 37.9747C41.6197 38.0774 41.607 38.1288 41.5129 38.1314C41.5014 38.0575 41.5522 38.0237 41.645 37.9747Z" fill="white"/>
<path d="M42.2388 37.1842C42.2579 37.1929 42.2718 37.1879 42.2769 37.2017C42.2643 37.253 42.2289 37.328 42.1805 37.283C42.1322 37.2379 42.202 37.213 42.2388 37.1842Z" fill="white"/>
<path d="M32.9642 4.38571C33.0341 4.36059 33.0774 4.39184 33.1118 4.44188C33.1029 4.46067 33.094 4.47946 33.0852 4.49825C33.0521 4.49454 33.033 4.4858 33 4.48208C32.9809 4.47334 32.9376 4.44209 32.9642 4.38571Z" fill="white"/>
<path d="M33.3473 4.77853C33.3613 4.7735 33.3804 4.78224 33.3944 4.77722C33.4185 4.79972 33.4376 4.80847 33.4478 4.836C33.439 4.85479 33.439 4.85479 33.4301 4.87358C33.364 4.86615 33.3626 4.81983 33.3473 4.77853Z" fill="white"/>
<path d="M40.4172 8.50842C40.4414 8.53093 40.4846 8.56218 40.5088 8.58468C40.5 8.60348 40.5 8.60348 40.486 8.6085C40.425 8.61484 40.4236 8.56852 40.3943 8.53224C40.4032 8.51345 40.4032 8.51345 40.4172 8.50842Z" fill="white"/>
<path d="M40.5088 8.58468C40.547 8.60217 40.5763 8.63846 40.5484 8.64851C40.5115 8.67735 40.5102 8.63101 40.486 8.6085C40.5 8.60348 40.4949 8.58971 40.5088 8.58468Z" fill="white"/>
<path d="M33.1118 4.44188C33.1639 4.45433 33.1793 4.49565 33.1946 4.53695C33.1807 4.54198 33.1667 4.54701 33.1387 4.55706C33.1145 4.53455 33.0955 4.52581 33.0713 4.5033C33.0941 4.47948 33.1029 4.46067 33.1118 4.44188Z" fill="white"/>
<path d="M40.6824 39.0536L40.6968 39.0484L40.7021 39.0626L40.6824 39.0536Z" fill="white"/>
<path d="M40.6142 39.1254L40.6194 39.1393L40.5912 39.1494L40.6142 39.1254Z" fill="white"/>
<path d="M40.9901 38.7716C40.9952 38.7854 40.9862 38.8044 40.9862 38.8044L40.9671 38.7957C40.9812 38.7906 40.9901 38.7716 40.9901 38.7716Z" fill="white"/>
<path d="M43.6487 35.1326C43.6678 35.1413 43.6678 35.1413 43.6869 35.1501C43.678 35.1689 43.6605 35.2065 43.6516 35.2252C43.6325 35.2165 43.6274 35.2027 43.6134 35.2078C43.6172 35.1752 43.6399 35.1514 43.6487 35.1326Z" fill="white"/>
<path d="M32.261 4.32629C32.2751 4.32122 32.2943 4.33004 32.2943 4.33004L32.2854 4.349C32.2854 4.349 32.2802 4.33511 32.261 4.32629Z" fill="white"/>
<path d="M32.7545 4.28966C32.7964 4.27458 32.8154 4.28311 32.8307 4.32441C32.7799 4.35827 32.7609 4.34975 32.7545 4.28966Z" fill="white"/>
<path d="M32.8168 4.32967C32.8307 4.32465 32.8307 4.32465 32.8168 4.32967C32.8587 4.31459 32.8778 4.32334 32.8931 4.36464C32.8563 4.39348 32.8232 4.38976 32.8168 4.32967Z" fill="white"/>
<path d="M32.8931 4.36464C32.935 4.34956 32.9541 4.35808 32.9694 4.39938C32.9186 4.43325 32.8944 4.41097 32.8931 4.36464Z" fill="white"/>
<path d="M44.146 34.2516C44.165 34.2604 44.165 34.2604 44.1841 34.2691C44.1753 34.2879 44.1576 34.3255 44.1487 34.3443C44.1296 34.3356 44.1296 34.3356 44.1105 34.3268C44.1194 34.308 44.1231 34.2754 44.146 34.2516Z" fill="white"/>
<path d="M44.1727 34.1954C44.1917 34.2042 44.1917 34.2042 44.2108 34.2129C44.202 34.2317 44.1791 34.2555 44.1753 34.2881C44.1562 34.2794 44.1562 34.2794 44.1372 34.2706C44.1549 34.233 44.1638 34.2142 44.1727 34.1954Z" fill="white"/>
<path d="M44.2082 34.1203C44.2273 34.129 44.2273 34.129 44.2464 34.1378C44.2375 34.1565 44.2337 34.1891 44.2108 34.2129C44.1917 34.2042 44.1917 34.2042 44.1727 34.1954C44.1904 34.1579 44.1994 34.1391 44.2082 34.1203Z" fill="white"/>
<path d="M33.4428 4.82222C33.4619 4.83097 33.4949 4.83468 33.5191 4.85719C33.5103 4.87598 33.5014 4.89477 33.5014 4.89477C33.4823 4.88603 33.4581 4.86352 33.4251 4.85981C33.4251 4.85981 33.4339 4.84102 33.4428 4.82222Z" fill="white"/>
<path d="M33.5191 4.85719C33.5382 4.86593 33.5624 4.88837 33.5955 4.89208C33.5866 4.91087 33.5917 4.92464 33.5777 4.92966C33.5586 4.92092 33.5344 4.89849 33.5014 4.89477C33.5014 4.89477 33.5103 4.87598 33.5191 4.85719Z" fill="white"/>
<path d="M33.5815 4.89714C33.6006 4.90588 33.6248 4.92839 33.6578 4.9321C33.649 4.95089 33.649 4.95089 33.6401 4.96968C33.621 4.96094 33.588 4.95723 33.5638 4.93472C33.5777 4.92969 33.5866 4.9109 33.5815 4.89714Z" fill="white"/>
<path d="M33.6578 4.9321C33.6769 4.94084 33.7012 4.96327 33.7343 4.96699C33.7254 4.98578 33.7254 4.98578 33.7166 5.00457C33.6975 4.99583 33.6643 4.99219 33.6401 4.96968C33.635 4.95592 33.6439 4.93713 33.6578 4.9321Z" fill="white"/>
<path d="M33.7151 4.95811C33.7341 4.96685 33.7672 4.97057 33.7863 4.97931C33.7774 4.9981 33.7774 4.9981 33.7685 5.01689C33.7494 5.00815 33.7253 4.98564 33.6922 4.98193C33.7113 4.99067 33.7202 4.97187 33.7151 4.95811Z" fill="white"/>
<path d="M33.7913 4.99308C33.8104 5.00182 33.8104 5.00182 33.8295 5.01056C33.8486 5.01931 33.8486 5.01931 33.8677 5.02805C33.8588 5.04684 33.8499 5.06563 33.8499 5.06563C33.8308 5.05689 33.8118 5.04815 33.7736 5.03067C33.7825 5.01188 33.7965 5.00685 33.7913 4.99308Z" fill="white"/>
<path d="M33.8677 5.02805C33.8868 5.03679 33.9111 5.05948 33.9441 5.06319C33.9353 5.08199 33.9353 5.08198 33.9264 5.10078C33.9073 5.09203 33.8881 5.08311 33.8499 5.06563C33.8588 5.04684 33.8537 5.03307 33.8677 5.02805Z" fill="white"/>
<path d="M44.5163 33.5415C44.5353 33.5503 44.5353 33.5503 44.5544 33.559C44.5456 33.5778 44.5227 33.6016 44.5189 33.6342C44.4998 33.6254 44.4998 33.6254 44.4808 33.6167C44.5036 33.5929 44.5074 33.5603 44.5163 33.5415Z" fill="white"/>
<path d="M33.939 5.04926C33.9581 5.05801 33.9823 5.08051 34.0154 5.08423C34.0065 5.10302 34.0065 5.10302 33.9976 5.12181C33.9785 5.11307 33.9595 5.10433 33.9213 5.08685C33.9213 5.08685 33.9302 5.06806 33.939 5.04926Z" fill="white"/>
<path d="M44.5569 33.4799C44.576 33.4887 44.576 33.4887 44.5951 33.4974C44.5862 33.5162 44.5773 33.535 44.5596 33.5726C44.5405 33.5639 44.5405 33.5639 44.5214 33.5551C44.5252 33.5226 44.548 33.4987 44.5569 33.4799Z" fill="white"/>
<path d="M34.0013 5.08928C34.0204 5.09803 34.0446 5.12053 34.0776 5.12425C34.0688 5.14304 34.0688 5.14304 34.0599 5.16184C34.0408 5.15309 34.0077 5.14938 33.9836 5.12687C33.9975 5.12185 34.0064 5.10305 34.0013 5.08928Z" fill="white"/>
<path d="M44.5924 33.4047C44.6114 33.4134 44.6114 33.4134 44.6305 33.4222C44.6216 33.441 44.5988 33.4648 44.5899 33.4836C44.5708 33.4748 44.5708 33.4748 44.5517 33.4661C44.5606 33.4473 44.5695 33.4285 44.5924 33.4047Z" fill="white"/>
<path d="M34.0776 5.12425C34.0967 5.13299 34.1298 5.13675 34.154 5.15925C34.1451 5.17805 34.1451 5.17804 34.1362 5.19684C34.1171 5.18809 34.093 5.16563 34.074 5.15689C34.0689 5.14312 34.0688 5.14304 34.0776 5.12425Z" fill="white"/>
<path d="M44.6141 33.3345C44.6332 33.3432 44.6383 33.357 44.6522 33.352C44.6434 33.3708 44.6345 33.3895 44.6167 33.4271C44.5977 33.4184 44.5977 33.4184 44.5786 33.4097C44.6014 33.3858 44.6052 33.3533 44.6141 33.3345Z" fill="white"/>
<path d="M44.6496 33.2596C44.6687 33.2683 44.6687 33.2683 44.6878 33.2771C44.6789 33.2958 44.6751 33.3281 44.6522 33.352C44.6332 33.3432 44.6332 33.3432 44.6141 33.3345C44.6369 33.3107 44.6459 33.2921 44.6496 33.2596Z" fill="white"/>
<path d="M44.69 33.1983C44.7091 33.207 44.7091 33.207 44.7282 33.2157C44.7193 33.2345 44.7104 33.2533 44.6927 33.2909C44.6736 33.2822 44.6736 33.2822 44.6545 33.2734C44.6583 33.2409 44.6672 33.2221 44.69 33.1983Z" fill="white"/>
<path d="M44.7116 33.128C44.7307 33.1367 44.7307 33.1367 44.7498 33.1454C44.7409 33.1642 44.7372 33.1968 44.7143 33.2206C44.6952 33.2119 44.6952 33.2119 44.6761 33.2031C44.699 33.1793 44.7028 33.1468 44.7116 33.128Z" fill="white"/>
<path d="M34.3843 5.31047C34.4034 5.31921 34.4328 5.35564 34.4328 5.35564C34.4099 5.37945 34.3908 5.37071 34.3806 5.34318C34.3615 5.33444 34.3703 5.3155 34.3843 5.31047Z" fill="white"/>
<path d="M44.7523 33.0666C44.7714 33.0753 44.7714 33.0753 44.7905 33.084C44.7816 33.1028 44.7587 33.1267 44.7498 33.1454C44.7307 33.1367 44.7307 33.1367 44.7116 33.128C44.7345 33.1041 44.7434 33.0854 44.7523 33.0666Z" fill="white"/>
<path d="M44.7878 32.9912C44.8069 33 44.8069 33 44.826 33.0087C44.8171 33.0275 44.7942 33.0515 44.7905 33.084C44.7714 33.0753 44.7714 33.0753 44.7523 33.0666C44.7561 33.034 44.779 33.01 44.7878 32.9912Z" fill="white"/>
<path d="M44.8092 32.9212C44.8283 32.9299 44.8334 32.9437 44.8474 32.9387C44.8385 32.9575 44.8385 32.9575 44.8296 32.9763C44.8207 32.995 44.8207 32.995 44.8119 33.0138C44.7928 33.0051 44.7928 33.0051 44.7737 32.9964C44.7914 32.9588 44.8003 32.94 44.8092 32.9212Z" fill="white"/>
<path d="M44.8448 32.846C44.8638 32.8548 44.8638 32.8548 44.8829 32.8635C44.874 32.8823 44.8702 32.9148 44.8474 32.9387C44.8283 32.9299 44.8283 32.9299 44.8092 32.9212C44.832 32.8974 44.841 32.8786 44.8448 32.846Z" fill="white"/>
<path d="M44.8854 32.7847C44.9045 32.7934 44.9045 32.7934 44.9235 32.8022C44.9147 32.821 44.9109 32.8535 44.888 32.8774C44.869 32.8686 44.869 32.8686 44.8499 32.8599C44.8537 32.8273 44.8765 32.8035 44.8854 32.7847Z" fill="white"/>
<path d="M44.9208 32.7095C44.9399 32.7183 44.9399 32.7183 44.959 32.727C44.9501 32.7458 44.9413 32.7646 44.9235 32.8022C44.9045 32.7934 44.9045 32.7934 44.8854 32.7847C44.8892 32.7521 44.898 32.7334 44.9208 32.7095Z" fill="white"/>
<path d="M44.9425 32.6394C44.9615 32.6482 44.9615 32.6482 44.9806 32.6569C44.9717 32.6757 44.9489 32.6995 44.94 32.7183C44.9209 32.7096 44.9209 32.7096 44.9019 32.7008C44.9298 32.6908 44.9387 32.672 44.9425 32.6394Z" fill="white"/>
<path d="M44.9831 32.5779C45.0022 32.5867 45.0073 32.6004 45.0212 32.5954C45.0124 32.6142 44.9895 32.638 44.9857 32.6706C44.9667 32.6618 44.9667 32.6618 44.9476 32.6531C44.9653 32.6155 44.9742 32.5967 44.9831 32.5779Z" fill="white"/>
<path d="M45.0185 32.5028C45.0376 32.5115 45.0376 32.5115 45.0567 32.5202C45.0478 32.539 45.0441 32.5716 45.0212 32.5954C45.0022 32.5867 44.9971 32.5729 44.9831 32.5779C44.9869 32.5454 44.9956 32.5266 45.0185 32.5028Z" fill="white"/>
<path d="M45.0401 32.4325C45.0592 32.4412 45.0592 32.4412 45.0783 32.45C45.0694 32.4687 45.0656 32.5013 45.0428 32.5251C45.0237 32.5164 45.0237 32.5164 45.0046 32.5076C45.0275 32.4838 45.0312 32.4513 45.0401 32.4325Z" fill="white"/>
<path d="M45.0806 32.3712C45.0997 32.3799 45.0997 32.3799 45.1188 32.3886C45.1099 32.4074 45.1061 32.44 45.0833 32.4638C45.0642 32.4551 45.0642 32.4551 45.0451 32.4463C45.0629 32.4087 45.0718 32.39 45.0806 32.3712Z" fill="white"/>
<path d="M45.3482 31.6821C45.3672 31.6908 45.3672 31.6908 45.3863 31.6996C45.3774 31.7184 45.3546 31.7422 45.3508 31.7747C45.3317 31.766 45.3317 31.766 45.3127 31.7572C45.3355 31.7334 45.3444 31.7146 45.3482 31.6821Z" fill="white"/>
<path d="M45.3885 31.6208C45.4076 31.6295 45.4076 31.6295 45.4267 31.6382C45.4178 31.657 45.4141 31.6896 45.3912 31.7134C45.3721 31.7047 45.3721 31.7047 45.353 31.6959C45.3568 31.6634 45.3797 31.6396 45.3885 31.6208Z" fill="white"/>
<path d="M45.5015 31.2839C45.5205 31.2927 45.5205 31.2927 45.5396 31.3014C45.5308 31.3202 45.5218 31.3391 45.504 31.3766C45.4849 31.3679 45.4798 31.3541 45.4658 31.3592C45.4747 31.3404 45.4837 31.3215 45.5015 31.2839Z" fill="white"/>
<path d="M45.5418 31.2226C45.5609 31.2314 45.5609 31.2314 45.58 31.2401C45.5711 31.2589 45.5674 31.2914 45.5445 31.3153C45.5254 31.3065 45.5254 31.3065 45.5063 31.2978C45.5101 31.2652 45.519 31.2464 45.5418 31.2226Z" fill="white"/>
<path d="M45.5635 31.1523C45.5826 31.1611 45.5826 31.1611 45.6017 31.1698C45.5928 31.1886 45.5699 31.2124 45.5661 31.245C45.547 31.2362 45.547 31.2362 45.528 31.2275C45.5508 31.2037 45.5546 31.1711 45.5635 31.1523Z" fill="white"/>
<path d="M45.6407 30.8906C45.6598 30.8994 45.6598 30.8994 45.6789 30.9081C45.67 30.9269 45.6663 30.9594 45.6434 30.9832C45.6243 30.9744 45.6192 30.9607 45.6052 30.9657C45.6281 30.9419 45.6318 30.9094 45.6407 30.8906Z" fill="white"/>
<path d="M45.6813 30.8291C45.7004 30.8378 45.7004 30.8378 45.7195 30.8466C45.7106 30.8653 45.7069 30.8979 45.684 30.9217C45.6649 30.913 45.6649 30.913 45.6458 30.9042C45.6496 30.8717 45.6725 30.8479 45.6813 30.8291Z" fill="white"/>
<path d="M45.713 30.7865C45.7181 30.8002 45.7144 30.8328 45.7195 30.8466C45.7004 30.8378 45.7004 30.8378 45.6813 30.8291C45.6902 30.8103 45.699 30.7915 45.713 30.7865Z" fill="white"/>
<path d="M20.6451 0.8112C20.8728 0.869767 21.109 0.738032 21.3366 0.796599C21.3417 0.810365 21.3519 0.837898 21.357 0.851665C20.888 0.911092 20.4189 0.970519 19.9638 1.02492C19.9536 0.997387 19.9625 0.978595 19.9523 0.951062C20.1722 0.90321 20.4113 0.864077 20.6451 0.8112Z" fill="white"/>
<path d="M21.357 0.851665C21.3519 0.837898 21.3417 0.810365 21.3366 0.796599C21.6315 0.737386 21.9189 0.743287 22.2254 0.757934C21.9318 0.863472 21.6379 0.797478 21.357 0.851665Z" fill="white"/>
<path d="M27.1561 0.982198C27.3379 0.916865 27.5007 1.01433 27.6762 1.06044C27.4856 1.14456 27.3088 1.05213 27.1384 1.01978C27.1524 1.01476 27.1612 0.995964 27.1561 0.982198Z" fill="white"/>
<path d="M26.3971 0.94307C26.2318 0.924493 26.0525 0.910942 25.8872 0.892365C25.896 0.873572 25.8858 0.846039 25.8947 0.827247C26.0498 0.81829 26.2291 0.831841 26.3971 0.94307Z" fill="white"/>
<path d="M27.1384 1.01978C26.9553 1.03879 26.7798 0.992679 26.6043 0.946569C26.7911 0.895002 26.9704 0.90857 27.1612 0.995981C27.1612 0.995981 27.1524 1.01476 27.1384 1.01978Z" fill="white"/>
<path d="M38.6966 5.95958C38.6877 5.97853 38.6877 5.97853 38.6787 5.99749L38.6966 5.95958Z" fill="white"/>
<path d="M9.92246 5.94549C9.81706 6.04579 9.72564 6.14106 9.58075 6.17755C9.56167 6.16881 9.56159 6.16871 9.54251 6.15997C9.65301 6.07344 9.75849 5.97324 9.92246 5.94549Z" fill="white"/>
<path d="M0.6902 20.1855C0.681246 20.2044 0.681247 20.2044 0.667145 20.2095C0.681247 20.2044 0.6902 20.1855 0.6902 20.1855Z" fill="white"/>
<path d="M4.3672 11.5154C4.35588 11.6131 4.28732 11.6845 4.21365 11.7422C4.19457 11.7335 4.19457 11.7335 4.17549 11.7248C4.16772 11.6183 4.2172 11.5381 4.32903 11.4979C4.34812 11.5067 4.35322 11.5204 4.3672 11.5154Z" fill="white"/>
<path d="M27.7437 1.11419C27.8695 1.06896 27.9356 1.07639 28.0221 1.13889C27.9345 1.2016 27.8582 1.16664 27.7437 1.11419Z" fill="white"/>
<path d="M3.90644 12.1959C3.87071 12.0995 3.94061 12.0744 4.0054 12.0355C4.02448 12.0442 4.02448 12.0442 4.04356 12.0529C4.02204 12.1231 3.97633 12.1707 3.90644 12.1959Z" fill="white"/>
<path d="M4.06258 11.8901C4.04594 11.8025 4.11069 11.7636 4.17549 11.7248C4.18059 11.7385 4.19457 11.7335 4.21365 11.7422C4.20611 11.8074 4.16554 11.8687 4.09564 11.8939C4.08166 11.8989 4.08166 11.8989 4.06258 11.8901Z" fill="white"/>
<path d="M4.33418 11.5117C4.33152 11.419 4.38233 11.3852 4.46621 11.355C4.46377 11.4339 4.41803 11.4816 4.35323 11.5205C4.35323 11.5205 4.34816 11.5067 4.33418 11.5117Z" fill="white"/>
<path d="M4.50171 11.2798C4.46599 11.1835 4.53588 11.1583 4.60067 11.1194C4.61975 11.1282 4.61975 11.1282 4.63884 11.1369C4.61731 11.2071 4.59069 11.2634 4.50171 11.2798Z" fill="white"/>
<path d="M3.48278 12.8475C3.48012 12.7548 3.52563 12.7073 3.61461 12.6909C3.62615 12.7647 3.56646 12.8174 3.51565 12.8513C3.50167 12.8563 3.50186 12.8562 3.48278 12.8475Z" fill="white"/>
<path d="M4.71862 10.9677C4.70198 10.8801 4.76677 10.8412 4.83667 10.816C4.85575 10.8248 4.85575 10.8248 4.87483 10.8335C4.85331 10.9037 4.82668 10.96 4.75679 10.9852C4.7377 10.9764 4.7326 10.9627 4.71862 10.9677Z" fill="white"/>
<path d="M4.73779 10.9765C4.73534 11.0554 4.68964 11.103 4.62485 11.1419C4.60576 11.1332 4.60576 11.1332 4.58668 11.1244C4.58402 11.0318 4.64881 10.9929 4.70473 10.9728C4.73268 10.9627 4.73779 10.9765 4.73779 10.9765Z" fill="white"/>
<path d="M5.06261 10.4852C5.08169 10.494 5.08173 10.4941 5.10081 10.5028C5.07929 10.5729 5.05266 10.6293 4.98277 10.6544C4.96369 10.6457 4.96364 10.6456 4.95854 10.6319C4.95344 10.6181 4.95344 10.6181 4.96231 10.5993L4.95721 10.5855L4.97496 10.548C4.98384 10.5292 4.99782 10.5241 5.0118 10.5191C5.02577 10.5141 5.02577 10.5141 5.03975 10.5091C5.03975 10.5091 5.05373 10.504 5.06261 10.4852Z" fill="white"/>
<path d="M4.98277 10.6544C4.98033 10.7333 4.93462 10.781 4.86982 10.8199C4.85074 10.8111 4.85063 10.8112 4.83155 10.8025C4.82889 10.7098 4.8797 10.676 4.94449 10.6371C4.96357 10.6458 4.96879 10.6595 4.98277 10.6544Z" fill="white"/>
<path d="M3.69838 12.489C3.69705 12.4427 3.69572 12.3963 3.75674 12.39C3.77072 12.385 3.7898 12.3937 3.7949 12.4075C3.81531 12.4626 3.77338 12.4776 3.73655 12.5065C3.71746 12.4977 3.71236 12.484 3.69838 12.489Z" fill="white"/>
<path d="M3.42065 12.979C3.41422 12.9189 3.44595 12.8763 3.48278 12.8475C3.50186 12.8562 3.50187 12.8562 3.52095 12.8649C3.52738 12.925 3.50963 12.9626 3.45882 12.9965C3.44484 13.0015 3.42576 12.9928 3.42065 12.979Z" fill="white"/>
<path d="M1.66079 16.7788C1.66212 16.8252 1.64438 16.8628 1.64571 16.9091C1.64438 16.8628 1.65702 16.8114 1.66079 16.7788Z" fill="white"/>
<path d="M39.2845 6.43508C39.3036 6.44382 39.3277 6.46633 39.3468 6.47507L39.338 6.49386C39.3189 6.48512 39.2947 6.46261 39.2756 6.45387C39.2807 6.46764 39.2845 6.43508 39.2845 6.43508Z" fill="white"/>
<path d="M26.4808 0.912521L26.4949 0.90789C26.5001 0.921777 26.5001 0.921341 26.4911 0.940298L26.4719 0.931479C26.486 0.92641 26.486 0.926409 26.4808 0.912521Z" fill="white"/>
<path d="M3.67168 12.5454C3.68056 12.5266 3.70341 12.5028 3.70718 12.4703C3.72626 12.479 3.72627 12.479 3.74535 12.4878C3.73647 12.5065 3.7327 12.5391 3.70984 12.5629C3.69076 12.5542 3.67678 12.5592 3.67168 12.5454Z" fill="white"/>
<path d="M3.69602 12.568C3.68714 12.5868 3.66429 12.6106 3.65541 12.6294C3.66429 12.6106 3.66797 12.5781 3.67684 12.5593C3.67684 12.5593 3.69092 12.5542 3.69602 12.568Z" fill="white"/>
<path d="M2.14359 15.5599C2.13472 15.5787 2.12584 15.5975 2.10809 15.6351C2.13094 15.6113 2.13982 15.5925 2.14359 15.5599Z" fill="white"/>
<path d="M3.65541 12.6294C3.66562 12.6569 3.66185 12.6895 3.61991 12.7045C3.6046 12.6632 3.61348 12.6445 3.65541 12.6294Z" fill="white"/>
<path d="M2.1841 15.4986C2.17522 15.5174 2.16635 15.5362 2.1486 15.5738C2.15237 15.5412 2.17522 15.5174 2.1841 15.4986Z" fill="white"/>
<path d="M30.4327 3.11169C30.4276 3.0978 30.4135 3.10287 30.4083 3.08898C30.4276 3.0978 30.4276 3.0978 30.4327 3.11169Z" fill="white"/>
<path d="M30.4414 3.09299C30.4745 3.09671 30.4937 3.10538 30.5267 3.10909C30.5179 3.12788 30.5089 3.14675 30.5089 3.14675C30.467 3.16182 30.4479 3.15308 30.4414 3.09299Z" fill="white"/>
<path d="M3.87109 12.271C3.86214 12.29 3.86742 12.3035 3.85846 12.3225C3.81482 12.291 3.84289 12.2812 3.87109 12.271Z" fill="white"/>
<path d="M1.69619 16.7036C1.68731 16.7224 1.67855 16.7413 1.66079 16.7788C1.66967 16.76 1.68731 16.7224 1.69619 16.7036Z" fill="white"/>
<path d="M1.71768 16.6335C1.7088 16.6523 1.70503 16.6849 1.68218 16.7087C1.70503 16.6849 1.71391 16.6661 1.71768 16.6335Z" fill="white"/>
<path d="M3.86575 12.2572C3.85554 12.2297 3.85931 12.1971 3.90125 12.182C3.91656 12.2233 3.8937 12.2472 3.86575 12.2572Z" fill="white"/>
<path d="M4.06016 11.969C4.05129 11.9878 4.04241 12.0066 4.02466 12.0442C4.00558 12.0354 4.00558 12.0355 3.98649 12.0267C3.99537 12.0079 4.00424 11.9891 4.022 11.9515C4.04108 11.9603 4.06016 11.969 4.06016 11.969Z" fill="white"/>
<path d="M38.797 6.01749C38.8161 6.02623 38.8454 6.0625 38.8314 6.06753C38.8085 6.09134 38.7983 6.06381 38.7793 6.05507C38.7932 6.05005 38.7881 6.03628 38.797 6.01749Z" fill="white"/>
<path d="M39.1546 6.34098C39.1687 6.33591 39.1879 6.34501 39.1738 6.35007C39.1699 6.38292 39.1702 6.38283 39.1458 6.36013C39.1407 6.34624 39.1546 6.34098 39.1546 6.34098Z" fill="white"/>
<path d="M39.2807 6.46769C39.2616 6.45895 39.2514 6.43142 39.2323 6.42268C39.2552 6.39886 39.2654 6.42639 39.2896 6.4489C39.2845 6.43513 39.2807 6.46769 39.2807 6.46769Z" fill="white"/>
<path d="M1.91175 16.1736C1.90287 16.1924 1.89402 16.2113 1.87627 16.2489C1.88004 16.2163 1.88889 16.1974 1.91175 16.1736Z" fill="white"/>
<path d="M2.28204 15.2914C2.27308 15.3103 2.27308 15.3103 2.26413 15.3293C2.27308 15.3103 2.26794 15.2964 2.28204 15.2914Z" fill="white"/>
<path d="M4.10067 11.9077C4.09179 11.9265 4.08802 11.9591 4.06517 11.9829C4.04608 11.9741 4.04616 11.9741 4.02708 11.9653C4.03596 11.9465 4.05882 11.9227 4.06769 11.9039C4.08167 11.8989 4.08159 11.899 4.10067 11.9077Z" fill="white"/>
<path d="M4.46621 11.355C4.456 11.3275 4.45977 11.2949 4.50171 11.2798C4.51702 11.3211 4.50814 11.3399 4.46621 11.355Z" fill="white"/>
<path d="M3.44471 13.0015C3.43583 13.0203 3.42696 13.0391 3.41298 13.0441C3.36084 13.0317 3.39767 13.0028 3.40655 12.984C3.42563 12.9928 3.44471 13.0015 3.44471 13.0015Z" fill="white"/>
<path d="M2.31721 15.2167C2.30834 15.2354 2.29979 15.2538 2.28204 15.2914C2.28581 15.2588 2.30834 15.2354 2.31721 15.2167Z" fill="white"/>
<path d="M2.33879 15.1465C2.32992 15.1653 2.32099 15.1841 2.31721 15.2167C2.32609 15.1979 2.32992 15.1653 2.33879 15.1465Z" fill="white"/>
<path d="M11.6864 21.3028C11.9447 21.4439 11.9145 21.7044 11.9007 21.881C11.853 22.3506 11.9082 22.7987 12.111 23.3031C11.8654 23.1106 11.8359 22.9028 11.8064 22.6949C11.778 22.3619 11.8106 22.0226 11.7632 21.6808C11.7452 21.5469 11.6904 21.4417 11.6864 21.3028Z" fill="#C83A2E"/>
</svg>
