<svg width="28" height="27" viewBox="0 0 28 27" fill="none" xmlns="http://www.w3.org/2000/svg">
<path d="M28 5.4675C28 8.48712 25.4687 10.935 22.3462 10.935C19.2236 10.935 16.6923 8.48712 16.6923 5.4675C16.6923 2.44788 19.2236 0 22.3462 0C25.4687 0 28 2.44788 28 5.4675Z" fill="#2A2A2F"/>
<path d="M11.3077 21.5325C11.3077 24.5521 8.77638 27 5.65385 27C2.53131 27 0 24.5521 0 21.5325C0 18.5129 2.53131 16.065 5.65385 16.065C8.77638 16.065 11.3077 18.5129 11.3077 21.5325Z" fill="#2A2A2F"/>
<path d="M16.6923 16.065H28V25.1775C28 26.184 27.1562 27 26.1154 27H18.5769C17.5361 27 16.6923 26.184 16.6923 25.1775V16.065Z" fill="#F03C1F"/>
<path d="M0 0H11.3077V9.1125C11.3077 10.119 10.4639 10.935 9.42308 10.935H1.88462C0.843771 10.935 0 10.119 0 9.1125V0Z" fill="#F03C1F"/>
</svg>
